<svg width="48" height="48" viewBox="0 0 48 48" fill="none" xmlns="http://www.w3.org/2000/svg">
<circle cx="24" cy="24" r="24" fill="#F4F4F5"/>
<path fill-rule="evenodd" clip-rule="evenodd" d="M18 23.5C18 23.7083 18.079 23.9082 18.2196 24.0555C18.3603 24.2028 18.551 24.2856 18.7499 24.2856H27.4384L24.2183 27.6573C24.1486 27.7303 24.0933 27.817 24.0555 27.9124C24.0178 28.0079 23.9984 28.1101 23.9984 28.2134C23.9984 28.3167 24.0178 28.419 24.0555 28.5144C24.0933 28.6099 24.1486 28.6966 24.2183 28.7696C24.288 28.8427 24.3708 28.9006 24.4619 28.9401C24.553 28.9797 24.6506 29 24.7492 29C24.8479 29 24.9455 28.9797 25.0366 28.9401C25.1277 28.9006 25.2105 28.8427 25.2802 28.7696L29.7797 24.0562C29.8495 23.9832 29.9049 23.8965 29.9427 23.8011C29.9805 23.7056 30 23.6033 30 23.5C30 23.3967 29.9805 23.2944 29.9427 23.1989C29.9049 23.1035 29.8495 23.0168 29.7797 22.9438L25.2802 18.2304C25.1394 18.0829 24.9484 18 24.7492 18C24.5501 18 24.3591 18.0829 24.2183 18.2304C24.0775 18.3779 23.9984 18.578 23.9984 18.7866C23.9984 18.9952 24.0775 19.1952 24.2183 19.3428L27.4384 22.7144H18.7499C18.551 22.7144 18.3603 22.7972 18.2196 22.9445C18.079 23.0918 18 23.2917 18 23.5Z" fill="#2D3942"/>
</svg>
