<svg width="61" height="60" viewBox="0 0 61 60" fill="none" xmlns="http://www.w3.org/2000/svg">
<circle cx="40" cy="21" r="21" fill="#EBF5F2"/>
<path d="M45.0413 38.5152C43.6705 37.669 42.0161 37.763 40.7399 38.5152C40.7399 38.5152 40.7871 38.5152 40.7871 38.4682C40.1727 37.81 39.4636 37.1518 38.7546 36.4936C40.1254 35.3653 41.3071 34.237 42.3942 33.1087C45.8921 29.3947 47.0738 26.2919 45.8921 24.1763C44.1904 21.1675 38.5655 21.5436 32.0426 23.6592C30.6718 17.0304 28.2611 12 24.8106 12C23.7707 12 22.8253 12.4701 21.9745 13.2693C21.9745 13.2693 22.0218 13.2693 22.0218 13.3164C21.4545 13.0343 20.8873 12.8932 20.2256 12.8932C17.9567 12.8932 16.066 14.7267 16.066 17.0304C16.066 18.6288 16.9641 19.9922 18.2876 20.6503C18.0513 21.5906 17.8149 22.5779 17.5786 23.6121C11.1029 21.1675 5.38344 20.6033 3.58726 23.5651C1.79107 26.5269 4.95803 31.3222 10.2048 35.9765C9.11761 36.9167 8.17225 37.81 7.32143 38.7502C7.08509 38.9853 6.84875 39.2674 6.65967 39.5024C5.57251 39.0793 4.24901 39.1263 3.16185 39.7375C1.12932 40.8658 0.420304 43.3575 1.50747 45.379C1.98015 46.1783 2.68917 46.8364 3.53999 47.1655C3.58726 47.3536 3.68179 47.5416 3.77633 47.7297C4.57988 49.1871 6.37607 49.8923 8.9758 49.8923C10.2048 49.8923 11.6228 49.7512 13.2299 49.4221C14.6007 49.1401 16.0187 48.764 17.5313 48.2468C18.8548 54.9226 21.2655 60 24.7633 60C28.1193 60 30.53 55.2517 31.8535 48.858C34.8786 49.8923 37.6675 50.5034 39.9363 50.5034C42.2052 50.5034 43.9068 49.8923 44.7576 48.4819C45.2776 47.5886 45.4194 46.5544 45.1358 45.4261C45.6085 45.097 46.0339 44.6739 46.3648 44.1567C47.5937 42.2292 46.9792 39.6905 45.0413 38.5152ZM44.0486 40.1136C45.0885 40.7718 45.4194 42.1352 44.8049 43.1694C44.1432 44.2037 42.7724 44.5328 41.7325 43.9216C40.6926 43.2635 40.3617 41.9001 40.9762 40.8658C41.638 39.8315 43.0087 39.5024 44.0486 40.1136ZM40.409 38.7502C40.3617 38.7502 40.3617 38.7973 40.3145 38.7973C40.3617 38.7973 40.3617 38.7502 40.409 38.7502ZM40.0781 39.0323L40.0309 39.0793C40.0309 39.0793 40.0309 39.0793 40.0781 39.0323ZM40.6453 23.8942C42.4888 23.8942 43.7178 24.3173 44.1904 25.1166C44.8995 26.3859 43.7178 28.9246 40.9762 31.8394C39.9363 32.9677 38.7074 34.096 37.3366 35.2243C36.0131 34.096 34.5478 32.9677 33.0352 31.8394C32.8934 29.6768 32.7043 27.5612 32.3734 25.5397C35.6822 24.4584 38.5655 23.8942 40.6453 23.8942ZM27.9775 41.524C26.7486 42.2292 25.5196 42.8404 24.2906 43.4515C23.1562 42.8404 22.0218 42.1822 20.8401 41.477C20.0365 40.9598 19.233 40.4897 18.4767 39.9726C18.3821 38.7032 18.3821 37.3869 18.3821 35.9765C18.3821 34.7072 18.4294 33.4378 18.4767 32.2625C19.5166 31.6043 20.6037 30.9931 21.6909 30.335C22.6835 29.7708 23.6289 29.2537 24.5742 28.7835C25.5669 29.3007 26.5595 29.9119 27.5521 30.523C28.8283 31.2752 30.01 32.0744 31.1445 32.8737C31.1917 33.8609 31.1917 34.8952 31.1917 35.9765C31.1917 37.2458 31.1445 38.4682 31.0972 39.6435C30.1046 40.3017 29.0647 40.9128 27.9775 41.524ZM31.0027 41.9941C30.8609 43.5455 30.6718 45.0029 30.4827 46.3663C29.2065 45.8492 27.8357 45.238 26.4177 44.5328C27.2685 44.1097 28.0721 43.6396 28.9229 43.2165C29.5846 42.7933 30.2937 42.3702 31.0027 41.9941ZM22.1636 44.4388C21.1237 44.9089 20.0365 45.332 19.0439 45.7081C18.9021 44.6268 18.7603 43.4985 18.6185 42.3232C19.0439 42.6053 19.422 42.8404 19.8474 43.0754C20.6037 43.5455 21.4073 44.0157 22.1636 44.4388ZM16.4914 38.6562C15.2624 37.763 14.128 36.9167 13.0881 36.0235C14.1753 35.1773 15.3097 34.331 16.4914 33.5318C16.4441 34.331 16.4441 35.1773 16.4441 35.9765C16.4441 36.8697 16.4914 37.763 16.4914 38.6562ZM18.6185 29.9589C18.713 28.6425 18.9021 27.3732 19.0911 26.1508C20.2256 26.621 21.36 27.1851 22.5417 27.7493C21.9272 28.0784 21.36 28.3604 20.7455 28.6895C20.0365 29.1126 19.3275 29.5358 18.6185 29.9589ZM26.654 27.8433C27.9775 27.2321 29.301 26.668 30.53 26.1978C30.7191 27.5612 30.9081 28.9716 31.0027 30.523C30.1991 29.9589 29.3483 29.4417 28.4975 28.9246C27.9303 28.5485 27.2685 28.2194 26.654 27.8433ZM33.0825 34.284C34.0751 34.9892 34.9732 35.7414 35.824 36.4466C34.9732 37.1048 34.0278 37.763 33.0825 38.4212C33.1297 37.5749 33.1297 36.7757 33.1297 35.9765C33.1297 35.4123 33.1297 34.8482 33.0825 34.284ZM22.4472 13.5044C22.3999 13.5044 22.3999 13.4574 22.3526 13.4574C22.3526 13.5044 22.3999 13.5044 22.4472 13.5044ZM23.2507 14.1626C23.2035 14.1156 23.1562 14.0686 23.1089 14.0215C23.1089 14.0686 23.1562 14.1156 23.2507 14.1626ZM22.8253 13.7865C22.778 13.7395 22.7308 13.7395 22.7308 13.6925C22.7308 13.7395 22.778 13.7395 22.8253 13.7865ZM20.2256 14.7738C21.4545 14.7738 22.4944 15.761 22.4944 17.0304C22.4944 18.2997 21.5018 19.287 20.2256 19.287C18.9493 19.287 17.9567 18.2997 17.9567 17.0304C17.9567 15.761 18.9966 14.7738 20.2256 14.7738ZM19.6584 21.0735C19.6584 21.0735 19.6111 21.0735 19.6584 21.0735C19.6111 21.0735 19.6584 21.0735 19.6584 21.0735ZM20.131 21.1205C20.1783 21.1205 20.1783 21.1205 20.2256 21.1205C22.4944 21.1205 24.3852 19.287 24.3852 16.9834C24.3852 15.9961 24.0543 15.1028 23.4398 14.3976L23.4871 14.4447C23.9125 14.0686 24.3379 13.8805 24.8106 13.8805C26.8431 13.8805 29.0174 17.8766 30.2464 24.3173C28.4029 24.9755 26.5122 25.8217 24.6215 26.715C22.8726 25.8217 21.1237 24.9755 19.422 24.2703C19.6111 23.142 19.8474 22.0607 20.131 21.1205ZM5.24164 24.5054C5.71432 23.7532 6.80148 23.3771 8.40859 23.3771C10.5829 23.3771 13.6553 24.0823 17.295 25.4456C17.0114 27.2791 16.775 29.2067 16.6332 31.1812C14.837 32.3565 13.1827 33.5318 11.6228 34.7542C6.56514 30.288 4.15447 26.2449 5.24164 24.5054ZM3.16185 44.4388C2.54736 43.3575 2.92551 41.9941 4.01267 41.383C4.34354 41.1949 4.72169 41.1009 5.09983 41.1009C5.90339 41.1009 6.65967 41.524 7.08509 42.2292C7.69957 43.3105 7.32143 44.6739 6.23426 45.285C5.1471 45.8962 3.77633 45.5201 3.16185 44.4388ZM12.899 47.5416C9.63756 48.1998 7.17962 48.1058 5.99792 47.3536C6.37607 47.2595 6.75421 47.1185 7.13235 46.9305C9.11761 45.8022 9.82663 43.3105 8.73946 41.3359C8.59766 41.0539 8.40859 40.8188 8.17225 40.5837C8.31405 40.3957 8.50313 40.2547 8.64493 40.0666C9.49575 39.1263 10.5356 38.1861 11.6228 37.2458C13.1827 38.5622 14.8843 39.8315 16.6332 41.0069C16.775 42.8404 16.9641 44.6268 17.2477 46.3663C15.7351 46.8834 14.2698 47.2596 12.899 47.5416ZM24.8106 58.1195C22.7781 58.1195 20.6037 54.1234 19.3748 47.6357C20.9819 47.0715 22.6362 46.3663 24.2906 45.5671C26.2286 46.5544 28.2139 47.4476 30.1519 48.1998C28.8756 54.3585 26.7486 58.1195 24.8106 58.1195ZM43.1978 47.5416C42.2052 49.1871 37.9983 49.046 32.2316 47.0245C32.5625 45.05 32.7989 42.9344 32.9407 40.7718C34.4532 39.7845 35.9185 38.7502 37.242 37.716C38.0456 38.4212 38.7546 39.1263 39.4164 39.8315C39.4164 39.8786 39.3691 39.8786 39.3691 39.9256C38.1874 41.8531 38.8019 44.3918 40.7399 45.5671C41.4016 45.9902 42.1579 46.1783 42.8669 46.1783C43.056 46.1783 43.1978 46.1783 43.3869 46.1312C43.4814 46.6954 43.4341 47.1655 43.1978 47.5416ZM39.7472 39.4084C39.7 39.4084 39.7 39.4084 39.7472 39.4084C39.7 39.4084 39.7 39.4084 39.7472 39.4084Z" fill="#2D3942"/>
</svg>
