<svg width="60" height="60" viewBox="0 0 60 60" fill="none" xmlns="http://www.w3.org/2000/svg">
<circle cx="39" cy="21" r="21" fill="#EBF5F2"/>
<path d="M41.0592 42.3432H39.0761H38.3549C37.138 41.4302 36.3718 39.7963 36.3718 38.1144C36.3718 36.3844 37.138 34.7986 38.3549 33.8375H39.0761C39.6169 33.8375 40.0225 33.405 40.0225 32.8284C40.0225 32.2517 39.6169 31.8192 39.0761 31.8192H37.138C37.8141 30.9542 38.1746 29.8009 38.1746 28.5995C38.1746 27.3982 37.769 26.2929 37.138 25.3799H40.5634C41.1042 25.3799 41.5099 24.9474 41.5099 24.3707C41.5099 23.7941 41.1042 23.3616 40.5634 23.3616H40.1127V17.0183H40.5634C41.1042 17.0183 41.5099 16.5858 41.5099 16.0092C41.5099 15.4325 41.1042 15 40.5634 15H9.73521C7.84225 15 6.30986 16.6339 6.30986 18.6522V21.8238C6.30986 23.8421 7.84225 25.476 9.73521 25.476H9.96056H10.231V31.8192H10.0056H9.96056H9.91549C6.67042 31.8673 4.05634 34.6545 4.05634 38.0664C4.05634 39.7002 4.64225 41.1899 5.6338 42.3432H0.946479C0.405634 42.3432 0 42.7757 0 43.3524C0 43.9291 0.405634 44.3616 0.946479 44.3616H1.89296C3.47042 45.5149 4.4169 47.5332 4.4169 49.6956C4.4169 51.8101 3.47042 53.8284 1.9831 54.9817H0.946479C0.405634 54.9817 0 55.4142 0 55.9908C0 56.5675 0.405634 57 0.946479 57H41.0592C44.8901 57 48 53.7323 48 49.6956C48 45.611 44.8901 42.3432 41.0592 42.3432ZM38.2197 19.2288H33.4423C32.9014 19.2288 32.4958 19.6613 32.4958 20.238C32.4958 20.8146 32.9014 21.2471 33.4423 21.2471H38.2197V23.4577H33.262H25.0141C24.9239 23.4577 24.8789 23.4096 24.7887 23.4096C23.9324 23.4096 23.2113 22.6888 23.2113 21.7757V18.6041C23.2113 17.8352 23.707 17.2105 24.3831 17.0183H38.2197V19.2288ZM20.1915 23.4096C20.1014 23.4096 20.0563 23.3616 19.9662 23.3616C19.1099 23.3616 18.3887 22.6407 18.3887 21.7277V18.6041C18.3887 17.8352 18.8845 17.2105 19.5606 17.0183H21.6338C21.4085 17.4989 21.2732 18.0275 21.2732 18.6041V21.7277C21.2732 22.3043 21.4084 22.881 21.6789 23.4096H20.1915ZM9.73521 23.4096C8.87887 23.4096 8.15775 22.6888 8.15775 21.7757V18.6522C8.15775 17.7391 8.87887 17.0183 9.73521 17.0183H16.8563C16.631 17.4989 16.4958 18.0275 16.4958 18.6041V21.7277C16.4958 22.3043 16.631 22.881 16.9014 23.4096H9.96056H9.73521ZM12.1239 29.6087H15.0535C15.5944 29.6087 16 29.1762 16 28.5995C16 28.0229 15.5944 27.5904 15.0535 27.5904H12.1239V25.3799H33.262C34.9746 25.3799 36.3268 26.8215 36.3268 28.5995C36.3268 30.3776 34.9296 31.8192 33.262 31.8192H29.2056H12.1239V29.6087ZM5.90423 38.0664C5.90423 35.7117 7.75211 33.7895 9.96056 33.7895H29.1606H33.2169H35.7408C34.9296 34.9908 34.4789 36.4805 34.4789 38.0664C34.4789 39.6041 34.9296 41.0938 35.7408 42.2952H18.0282H17.938H10.0056C7.75211 42.3432 5.90423 40.4211 5.90423 38.0664ZM6.26479 49.6956C6.26479 49.3112 6.21972 48.9268 6.17465 48.5423H13.5211V52.4828C13.5211 52.8192 13.7014 53.1556 13.9268 53.2998C14.1972 53.492 14.5127 53.492 14.8282 53.3959L16.4507 52.627L18.0732 53.3959C18.2084 53.4439 18.3437 53.492 18.4338 53.492C18.6141 53.492 18.7944 53.4439 18.9296 53.3478C19.2 53.1556 19.3352 52.8673 19.3352 52.5309V47.5332C19.3352 46.9565 18.9296 46.524 18.3887 46.524H14.3324H5.72394C5.45352 45.7071 5.04789 44.9863 4.55211 44.3135H9.96056H17.893C20.6873 44.3135 22.9859 46.7162 22.9859 49.5995C22.9859 52.5309 20.7324 54.8856 17.893 54.8856H4.64225C5.67887 53.492 6.26479 51.6178 6.26479 49.6956ZM15.4141 48.5423H17.5775V50.9931L16.8563 50.6567C16.631 50.5606 16.3606 50.5606 16.0901 50.6567L15.369 50.9931L15.4141 48.5423ZM41.0592 54.9817H22.7155C24.0676 53.6362 24.8789 51.762 24.8789 49.6956C24.8789 47.6293 24.0225 45.7071 22.7155 44.4096H37.9493C37.9944 44.4096 38.0845 44.4096 38.1296 44.4096C38.1746 44.4096 38.2648 44.4096 38.3099 44.4096H39.1211H41.1042C43.8986 44.4096 46.1972 46.8124 46.1972 49.6956C46.107 52.5789 43.8535 54.9817 41.0592 54.9817Z" fill="#2D3942"/>
</svg>
