<svg width="60" height="60" viewBox="0 0 60 60" fill="none" xmlns="http://www.w3.org/2000/svg">
<circle cx="39" cy="21" r="21" fill="#FFE7C1"/>
<path d="M44.4136 37.1844C44.2746 36.418 43.6145 35.8607 42.8154 35.8607H41.252L41.1477 35.1641C41.0435 34.4674 40.4876 33.9101 39.7927 33.8056C39.6538 33.7707 39.4801 33.7707 39.3411 33.7359C39.619 32.4819 39.3758 31.1931 38.7157 30.1133C39.0631 29.2076 38.9936 28.1974 38.542 27.3266C38.0903 26.4558 37.2565 25.8636 36.3184 25.6546C35.693 22.4151 32.8441 20.0465 29.5434 20.0117C29.474 20.0117 29.4045 20.0117 29.3002 20.0117C28.7791 19.1757 27.9105 18.6183 26.9377 18.5138C25.9649 18.4093 24.9921 18.7228 24.2625 19.3847C23.3591 18.7925 22.3168 18.479 21.2398 18.479C19.5026 18.479 17.8697 19.2802 16.8274 20.6735C15.6461 20.3252 14.3606 20.5342 13.3878 21.2657C12.3802 21.9623 11.7548 23.1118 11.6854 24.331C10.4346 24.8535 9.6355 26.0726 9.6355 27.4311C9.6355 27.6749 9.67024 27.8839 9.70498 28.1278C8.59319 29.7998 8.31525 31.8549 8.94063 33.7359C8.73217 33.7707 8.48896 33.8056 8.2805 33.8404C7.58564 33.9449 7.02974 34.5022 6.92551 35.1989L6.82128 35.8955H5.25783C4.49348 35.8955 3.79861 36.4529 3.65964 37.2192L0.0463245 55.4717C-0.092649 56.2032 0.0810679 56.9347 0.567475 57.4921C1.01914 58.0494 1.71401 58.3629 2.44362 58.3629H19.3636C20.0238 59.4775 22.0736 60 23.9845 60C25.8954 60 27.9105 59.5124 28.6054 58.3629H45.5601C46.2898 58.3629 46.9846 58.0494 47.4363 57.4921C47.8879 56.9347 48.0964 56.2032 47.9574 55.4717L44.4136 37.1844ZM12.0675 28.8941C11.4074 28.5109 11.0947 27.7098 11.3032 26.9783C11.5116 26.2468 12.1718 25.7243 12.9361 25.7243C13.4573 25.7243 13.9784 25.9681 14.2911 26.4209C14.4648 26.6648 14.7428 26.7693 15.0207 26.7344C15.2987 26.6996 15.5419 26.5254 15.6808 26.2468C15.7851 25.9681 15.7503 25.6895 15.5766 25.4456C15.0207 24.7141 14.1869 24.2265 13.2835 24.1568C13.5268 23.0073 14.5343 22.2061 15.6808 22.2061C15.7851 22.2061 15.8893 22.2061 15.9588 22.241C15.8893 22.4151 15.8198 22.5893 15.7851 22.7635C15.6808 23.1815 15.9588 23.6343 16.3757 23.7388C16.7926 23.8433 17.2443 23.5995 17.3485 23.1815C17.4528 22.8331 17.5917 22.4848 17.7654 22.1713C18.4951 20.9522 19.7806 20.2207 21.1703 20.2207C21.9346 20.2207 22.6643 20.4645 23.3244 20.8825C23.2202 21.2308 23.1507 21.5791 23.1507 21.9623C23.1507 22.4151 23.4981 22.7635 23.9498 22.7635C24.4014 22.7635 24.7489 22.4151 24.7489 21.9623C24.7489 21.0218 25.5132 20.2555 26.4513 20.2555C27.3894 20.2555 28.1537 21.0218 28.1537 21.9623C28.1537 22.4151 28.5011 22.7635 28.9528 22.7635C29.4045 22.7635 29.7519 22.4151 29.7519 21.9623C29.7519 21.8926 29.7519 21.823 29.7172 21.7881C32.045 21.9275 33.9906 23.5995 34.5118 25.8636C34.1296 25.9681 33.7821 26.1423 33.4694 26.3861C33.2262 26.5603 33.122 26.8389 33.1568 27.1176C33.1915 27.3963 33.3652 27.6401 33.6432 27.7794C33.9211 27.8839 34.2338 27.8491 34.4423 27.6749C35.1024 27.1873 35.971 27.2221 36.5964 27.7794C37.187 28.3019 37.3607 29.2076 36.9438 29.9043C36.7701 30.2178 36.4921 30.4616 36.1794 30.6009C35.832 30.7751 35.6583 31.1582 35.7278 31.5066C35.7973 31.8897 36.1447 32.1336 36.5269 32.1336C36.6311 32.1336 36.7701 32.0987 36.8743 32.0639C37.0828 31.9594 37.2912 31.8201 37.4649 31.6807C37.8819 32.8651 37.6387 34.1887 36.7701 35.1641L36.7353 35.1989C35.693 36.3484 33.9906 36.6619 32.6009 35.9652C32.4619 35.8955 32.3229 35.8259 32.2187 35.7214C32.8093 34.8854 32.9136 33.7707 32.4271 32.8651C32.2882 32.6212 32.045 32.4471 31.7323 32.4122C31.4543 32.4122 31.1764 32.5516 31.0027 32.7954C30.829 33.0392 30.829 33.3527 30.9679 33.5966C31.2459 34.1191 31.0722 34.7809 30.5857 35.1292C30.3078 35.3382 29.9256 35.3731 29.6129 35.3034C29.2655 35.2337 28.9876 34.9899 28.8486 34.6764C28.7096 34.4326 28.4664 34.2584 28.1885 34.2236C27.9105 34.2236 27.6326 34.3281 27.4588 34.5719C27.2851 34.8157 27.2851 35.1292 27.4241 35.373C27.9105 36.3484 28.8833 36.9405 29.9604 36.9405C30.3078 36.9405 30.6552 36.8709 30.9679 36.7315C31.2459 36.9754 31.5933 37.2192 31.906 37.3934C33.0525 37.9855 34.4075 38.1249 35.6583 37.7417C34.8592 38.8564 33.6432 39.5879 32.3229 39.7969C31.906 39.8665 31.628 40.2497 31.628 40.6677C31.6628 41.0857 32.0102 41.3992 32.4271 41.434C32.4619 41.434 32.4966 41.434 32.5661 41.434C33.0525 41.3643 33.5389 41.1902 33.9906 41.016C34.2338 41.4688 34.4423 41.9217 34.5812 42.4093C34.616 42.479 34.616 42.5835 34.616 42.688C34.616 43.0363 34.4075 43.3498 34.0948 43.4892C33.7127 43.6285 33.2957 43.524 33.0525 43.2105C32.4271 42.479 31.5933 41.9217 30.69 41.643C28.9528 41.0508 28.2579 40.5283 27.98 39.971C28.3969 39.9014 28.8138 39.8317 29.2308 39.7272C29.5087 39.6575 29.7172 39.4137 29.7866 39.135C29.8561 38.8564 29.7519 38.5429 29.5434 38.3687C29.335 38.1945 29.0223 38.09 28.7443 38.1945C28.2927 38.3339 27.8063 38.4384 27.3546 38.4384C26.4513 38.508 25.5132 38.3687 24.6794 38.0204C24.3667 37.881 23.9845 37.9855 23.776 38.2642C22.5948 39.6227 20.5797 39.8665 19.1204 38.7867C17.6612 37.7417 17.2443 35.7214 18.1824 34.1887C18.3213 33.9449 18.3213 33.6314 18.1824 33.3876C18.0434 33.1437 17.7654 32.9696 17.4875 32.9696C17.2095 32.9696 16.9316 33.1089 16.7926 33.3527C16.5842 33.6662 16.4452 34.0494 16.341 34.3977C15.7156 34.3629 15.1944 33.8404 15.1944 33.2134V33.1786C15.1944 32.9696 15.1249 32.7606 14.9512 32.6212C14.8123 32.4819 14.6038 32.3774 14.3953 32.3774C13.9437 32.3774 13.5962 32.7606 13.5962 33.2134C13.5962 34.6416 14.6733 35.8607 16.1325 36.0349C16.1325 36.3135 16.1672 36.5922 16.202 36.836C14.3953 37.2192 12.5192 36.5922 11.3379 35.1292C10.1566 33.7011 9.8787 31.7156 10.6083 30.0088C10.782 30.1829 10.9905 30.3571 11.1989 30.4964C11.5811 30.7054 12.0675 30.6009 12.3107 30.2178C12.5539 29.6256 12.415 29.1379 12.0675 28.8941ZM8.48896 35.4079C8.87114 35.3382 9.25332 35.3034 9.6355 35.2686C11.1295 37.672 14.0132 38.8215 16.7579 38.1597C17.4875 39.553 18.8425 40.5283 20.4059 40.807C21.9694 41.0857 23.5676 40.598 24.7141 39.5182C25.27 39.6924 25.8259 39.7969 26.4165 39.8317C26.7987 41.3295 27.9453 42.2352 30.3078 43.0363C30.9332 43.2453 31.5238 43.6285 31.9755 44.1162C32.4619 44.7083 33.1915 45.0218 33.9211 45.0566C34.2685 45.0566 34.5812 44.987 34.8939 44.8476C35.7973 44.4645 36.4226 43.5588 36.4226 42.5487C36.4226 42.27 36.3879 42.0262 36.2837 41.7823C36.1099 41.225 35.8667 40.6677 35.5541 40.1103C36.9438 39.1002 37.8819 37.6372 38.264 35.9652C38.4377 35.7562 38.5767 35.5472 38.7157 35.3034C38.9936 35.3382 39.2716 35.373 39.5495 35.4079L42.468 53.0683C36.7353 51.1524 30.551 51.1524 24.8183 53.0683V42.897C24.8183 42.4442 24.4709 42.0958 24.0193 42.0958C23.5676 42.0958 23.2202 42.4442 23.2202 42.897V53.1031C17.4875 51.1873 11.3032 51.1873 5.57052 53.1031L8.48896 35.4079ZM1.81824 56.4471C1.67926 56.2729 1.60978 56.0291 1.64452 55.7852L5.18834 37.4979H6.47385L3.93758 52.8244C3.83335 53.3818 4.04181 53.9391 4.49348 54.3222C4.9104 54.7054 5.50103 54.8099 6.05693 54.6357C10.3651 53.2424 14.986 52.9289 19.4679 53.7998L19.2247 56.7606H2.44362C2.20041 56.7257 1.95721 56.6212 1.81824 56.4471ZM24.0193 58.3629C22.0736 58.3629 20.9271 57.7707 20.7881 57.5269L21.0661 54.1481C21.9694 54.3571 22.838 54.6706 23.6718 55.0189C23.776 55.0886 23.915 55.0886 24.0193 55.0886C24.1582 55.0886 24.2625 55.0537 24.3667 55.0189C25.2005 54.6706 26.0691 54.3571 26.9724 54.1481L27.2504 57.5269C27.0767 57.7707 25.9649 58.3629 24.0193 58.3629ZM46.1855 56.4471C46.0465 56.6212 45.8033 56.7606 45.5601 56.7606H28.8138L28.5706 53.7998C33.0525 52.9638 37.6387 53.2424 41.9816 54.6706C42.5027 54.8447 43.0934 54.7054 43.545 54.3571C43.9619 53.9739 44.1704 53.4166 44.0662 52.8593L41.5299 37.5327H42.8154L46.3592 55.8201C46.4287 55.9942 46.3592 56.2381 46.1855 56.4471Z" fill="#2D3942"/>
<path d="M21.311 30.4616C20.9636 30.7751 20.9636 31.2627 21.2415 31.6111C21.9364 32.3774 22.8397 32.8999 23.8473 33.1089C23.3956 33.7359 22.666 34.1191 21.8669 34.1191C21.4152 34.1191 21.0678 34.4674 21.0678 34.9202C21.0678 35.3731 21.4152 35.7214 21.8669 35.7214C23.5346 35.7214 25.0633 34.6764 25.6539 33.1089C27.669 32.7606 29.2672 31.2279 29.6494 29.2076C29.7189 28.9289 29.6147 28.6154 29.4062 28.4413C29.1977 28.2323 28.8851 28.1974 28.6071 28.3019C28.3292 28.4064 28.1207 28.6503 28.086 28.9289C27.9122 29.7649 27.4606 30.4964 26.731 30.9841C25.376 31.8897 23.5693 31.6807 22.4575 30.4964C22.1796 30.1829 21.6584 30.1481 21.311 30.4616Z" fill="#2D3942"/>
<path d="M18.4944 29.5559C18.9461 29.5559 19.2935 29.2076 19.2935 28.7547C19.2935 28.1974 19.502 27.6401 19.9189 27.2569C20.3011 26.8737 20.857 26.6299 21.4129 26.6299C21.8645 26.6299 22.212 26.2816 22.212 25.8287C22.212 25.3759 21.8645 25.0276 21.4129 25.0276C19.363 25.0276 17.6953 26.6996 17.6953 28.7547C17.6953 28.9637 17.7648 29.1727 17.9385 29.3469C18.0775 29.4862 18.2859 29.5559 18.4944 29.5559Z" fill="#2D3942"/>
<path d="M24.8195 13.6372V12.8012C24.8195 12.3483 24.472 12 24.0201 12C23.5683 12 23.2207 12.3483 23.2207 12.8012V13.6023C23.2207 14.0552 23.5683 14.4035 24.0201 14.4035C24.472 14.4383 24.8195 14.09 24.8195 13.6372Z" fill="#2D3942"/>
<path d="M37.3258 17.852L36.5267 18.6531C36.3182 18.8621 36.214 19.1756 36.3182 19.4543C36.3877 19.733 36.6309 19.9768 36.9089 20.0465C37.1868 20.1161 37.4995 20.0465 37.708 19.8375L38.5071 19.0363C38.7155 18.8273 38.8198 18.5138 38.7155 18.2351C38.646 17.9565 38.4028 17.7126 38.1249 17.643C37.8122 17.5385 37.5343 17.6081 37.3258 17.852Z" fill="#2D3942"/>
<path d="M10.9218 20.0464C11.2346 20.0464 11.5474 19.8374 11.6864 19.5587C11.8255 19.2452 11.756 18.8969 11.5127 18.6879L10.7132 17.8867C10.5047 17.6777 10.1919 17.5732 9.91382 17.6777C9.63576 17.7474 9.39246 17.9912 9.32294 18.2699C9.25343 18.5485 9.32294 18.862 9.53149 19.071L10.3309 19.8722C10.5047 19.9419 10.7132 20.0464 10.9218 20.0464Z" fill="#2D3942"/>
<path d="M17.1751 16.6322C17.2793 16.6322 17.3836 16.5974 17.4878 16.5625C17.6963 16.4929 17.8352 16.3187 17.9395 16.1097C18.009 15.9007 18.009 15.6917 17.9395 15.4827L17.0014 13.2185C16.8972 12.9399 16.654 12.7657 16.3413 12.696C16.0633 12.696 15.7854 12.8005 15.5769 13.0444C15.4032 13.2882 15.3685 13.6017 15.4727 13.8455L16.4108 16.1097C16.5497 16.4232 16.8624 16.6322 17.1751 16.6322Z" fill="#2D3942"/>
<path d="M32.0794 12.8011C31.6624 12.6269 31.176 12.8359 31.0371 13.2539L30.099 15.4832C30.0295 15.6922 30.0295 15.9012 30.099 16.1102C30.1685 16.3192 30.3422 16.4586 30.5507 16.5631C30.6549 16.5979 30.7591 16.6327 30.8633 16.6327C31.176 16.6327 31.4887 16.4237 31.6277 16.1451L32.5658 13.8809C32.6353 13.6719 32.6353 13.4629 32.5658 13.2539C32.4268 13.0449 32.2878 12.8708 32.0794 12.8011Z" fill="#2D3942"/>
<path d="M40.4882 26.3163C40.5924 26.3163 40.6967 26.2815 40.8009 26.2466L43.0592 25.3061C43.3372 25.2016 43.5109 24.9578 43.5456 24.6443C43.5804 24.3656 43.4761 24.087 43.2329 23.878C42.9897 23.669 42.7118 23.669 42.4338 23.7735L40.1755 24.714C39.8281 24.8533 39.6196 25.2365 39.6891 25.6196C39.7586 26.0376 40.106 26.3163 40.4882 26.3163Z" fill="#2D3942"/>
<path d="M7.20306 26.2467C7.61998 26.4209 8.10639 26.2119 8.2801 25.7939C8.45382 25.3759 8.24536 24.8882 7.82844 24.7141L5.57012 23.8084C5.1532 23.6343 4.6668 23.8433 4.49308 24.2613C4.31936 24.6792 4.52782 25.1669 4.94474 25.3411L7.20306 26.2467Z" fill="#2D3942"/>
</svg>
