<svg width="60" height="60" viewBox="0 0 60 60" fill="none" xmlns="http://www.w3.org/2000/svg">
<circle cx="39" cy="21" r="21" fill="#FFE68E"/>
<path d="M15.095 25.5766C14.6805 25.2138 14.0068 25.2656 13.6441 25.6802L10.3795 29.463L9.1358 27.753C8.82489 27.2866 8.15124 27.183 7.68487 27.4939C7.21849 27.8048 7.11486 28.4784 7.42577 28.9448L9.3949 31.743C9.60218 32.0021 9.86127 32.1576 10.1722 32.1576H10.224C10.5349 32.1576 10.794 32.0021 11.0013 31.7949L15.095 27.0275C15.6132 26.5611 15.5614 25.9393 15.095 25.5766Z" fill="#2D3942"/>
<path d="M13.6441 34.6968L10.3795 38.4796L9.1358 36.7696C8.82489 36.3032 8.15124 36.1996 7.68487 36.5105C7.21849 36.8214 7.11486 37.495 7.42577 37.9614L9.3949 40.7596C9.60218 41.0187 9.86127 41.1742 10.1722 41.1742H10.224C10.5349 41.1742 10.794 41.0187 11.0013 40.8115L15.095 36.0441C15.4577 35.6295 15.4059 34.9559 14.9914 34.5932C14.6805 34.2304 14.0068 34.2822 13.6441 34.6968Z" fill="#2D3942"/>
<path d="M27.4804 23.4521H18.6711C18.1011 23.4521 17.6348 23.9185 17.6348 24.4885C17.6348 25.0585 18.1011 25.5249 18.6711 25.5249H27.4804C28.0504 25.5249 28.5168 25.0585 28.5168 24.4885C28.5168 23.9185 28.0504 23.4521 27.4804 23.4521Z" fill="#2D3942"/>
<path d="M28.5168 33.5571C28.5168 32.9871 28.0504 32.5208 27.4804 32.5208H18.6711C18.1011 32.5208 17.6348 32.9871 17.6348 33.5571C17.6348 34.1271 18.1011 34.5935 18.6711 34.5935H27.4804C28.0504 34.5935 28.5168 34.1271 28.5168 33.5571Z" fill="#2D3942"/>
<path d="M18.6711 29.8257H25.4076C25.9777 29.8257 26.444 29.3593 26.444 28.7893C26.444 28.2193 25.9777 27.7529 25.4076 27.7529H18.6711C18.1011 27.7529 17.6348 28.2193 17.6348 28.7893C17.6348 29.3593 18.1011 29.8257 18.6711 29.8257Z" fill="#2D3942"/>
<path d="M18.6711 36.9766C18.1011 36.9766 17.6348 37.4429 17.6348 38.0129C17.6348 38.583 18.1011 39.0493 18.6711 39.0493H24.3713C24.9413 39.0493 25.4076 38.583 25.4076 38.0129C25.4076 37.4429 24.9413 36.9766 24.3713 36.9766H18.6711Z" fill="#2D3942"/>
<path d="M34.2679 45.527C33.6979 45.527 33.2315 45.9934 33.2315 46.5634V56.9272H3.07277V22.2084H9.49835C10.0684 22.2084 10.5347 21.742 10.5347 21.172V14.0728H33.1797V29.3594C33.1797 29.9294 33.6461 30.3958 34.2161 30.3958C34.7861 30.3958 35.2525 29.9294 35.2525 29.3594V13.0364C35.2525 12.4664 34.7861 12 34.2161 12H9.03197C8.77288 12 8.46196 12.1036 8.25469 12.3109L1.2591 19.6692C1.10364 19.8765 1 20.1356 1 20.3947V57.9636C1 58.5336 1.46637 59 2.03638 59H34.2679C34.8379 59 35.3043 58.5336 35.3043 57.9636V46.5634C35.3043 45.9934 34.8379 45.527 34.2679 45.527ZM8.46196 15.1092V20.1356H3.6946L8.46196 15.1092Z" fill="#2D3942"/>
<path d="M45.4609 27.9604L44.7872 27.2867C43.3881 25.8876 41.2117 25.8358 39.9162 27.1313L38.4653 28.5822C38.4653 28.5822 38.4135 28.634 38.4135 28.6858C38.3616 28.6858 38.3616 28.7377 38.3098 28.7377L23.3859 43.7652C23.1786 43.9725 23.075 44.2834 23.075 44.5943L22.0386 49.569C21.9868 49.9317 22.0904 50.2426 22.2977 50.5017C22.505 50.709 22.7641 50.8126 23.0232 50.8126C23.075 50.8126 23.1786 50.8126 23.2304 50.8126L28.2051 49.7762C28.2569 49.7762 28.2569 49.7762 28.3087 49.7762C28.5678 49.7762 28.8269 49.6726 29.0342 49.4653L29.086 49.4135L44.0099 34.4378C44.0099 34.4378 44.0617 34.3859 44.0617 34.3341C44.1136 34.3341 44.1136 34.2823 44.1654 34.2823L45.6163 32.8314C46.9636 31.5359 46.86 29.3595 45.4609 27.9604ZM24.785 46.6153L26.1841 48.0144L24.3705 48.3771L24.785 46.6153ZM28.3087 47.2371L27.5832 46.5116L34.527 39.5679C34.8379 39.257 34.8379 38.7906 34.527 38.4797C34.2161 38.1687 33.7497 38.1687 33.4388 38.4797L26.495 45.3716L25.6141 44.4907L39.1389 30.9659L41.8853 33.7123L28.3087 47.2371ZM44.1654 31.3286L43.2845 32.2095L40.538 29.4631L41.419 28.5822C41.8853 28.1158 42.7663 28.1676 43.3363 28.7377L44.0099 29.4113C44.5799 30.0331 44.6836 30.8622 44.1654 31.3286Z" fill="#2D3942"/>
</svg>
