<svg width="60" height="60" viewBox="0 0 60 60" fill="none" xmlns="http://www.w3.org/2000/svg">
<circle cx="39" cy="21" r="21" fill="#FFE7C1"/>
<path d="M45.7412 33.5172H36.1412V28.6621C36.1412 27.0621 34.8424 25.7931 33.2047 25.7931H25.4118V23.0345H37.8353C38.2871 23.0345 38.6824 22.8138 38.8518 22.4276C39.0212 22.0414 39.0212 21.6 38.7388 21.269L35.8588 17.5172L38.7388 13.7655C39.0212 13.4345 39.0212 12.9931 38.8518 12.6069C38.6824 12.2207 38.2871 12 37.8353 12H24.2824C23.6612 12 23.1529 12.4966 23.1529 13.1034V25.7931H14.7953C13.1576 25.7931 11.8588 27.0621 11.8588 28.6621V33.5172H2.25882C1.01647 33.5172 0 34.5103 0 35.7241V57.7931C0 59.0069 1.01647 60 2.25882 60H11.8588C12.3671 60 12.8753 59.8345 13.2141 59.5586C13.6659 59.8345 14.2306 60 14.7953 60H33.2047C33.7694 60 34.3341 59.8345 34.7859 59.5586C35.1812 59.8345 35.6329 60 36.1412 60H45.7412C46.9835 60 48 59.0069 48 57.7931V35.7241C48 34.5103 46.9835 33.5172 45.7412 33.5172ZM25.4118 14.2069H35.5765L33.5435 16.8552C33.2612 17.2414 33.2612 17.7931 33.5435 18.1793L35.5765 20.8276H25.4118V14.2069ZM11.8588 57.7931H2.25882V35.7241H11.8588V57.131V57.7931ZM33.2047 57.7931H30.7765V50.8966H27.9529V57.7931H19.4824V50.8966H16.6588V57.7931H14.7953C14.4 57.7931 14.1176 57.5172 14.1176 57.131V35.7241V28.6621C14.1176 28.2759 14.4 28 14.7953 28H33.2047C33.6 28 33.8824 28.2759 33.8824 28.6621V35.7241V57.131C33.8824 57.5172 33.6 57.7931 33.2047 57.7931ZM45.7412 57.7931H36.1412V35.7241H45.7412V57.7931Z" fill="#2D3942"/>
<path d="M8.18876 38.7588H5.36523V41.5174H8.18876V38.7588Z" fill="#2D3942"/>
<path d="M8.18876 44.8276H5.36523V47.5863H8.18876V44.8276Z" fill="#2D3942"/>
<path d="M8.18876 50.8965H5.36523V53.6551H8.18876V50.8965Z" fill="#2D3942"/>
<path d="M19.4817 38.7588H16.6582V41.5174H19.4817V38.7588Z" fill="#2D3942"/>
<path d="M19.4817 44.8276H16.6582V47.5863H19.4817V44.8276Z" fill="#2D3942"/>
<path d="M25.1302 38.7588H22.3066V41.5174H25.1302V38.7588Z" fill="#2D3942"/>
<path d="M25.1302 44.8276H22.3066V47.5863H25.1302V44.8276Z" fill="#2D3942"/>
<path d="M25.1302 50.8965H22.3066V53.6551H25.1302V50.8965Z" fill="#2D3942"/>
<path d="M30.7767 38.7588H27.9531V41.5174H30.7767V38.7588Z" fill="#2D3942"/>
<path d="M19.4817 32.6897H16.6582V35.4483H19.4817V32.6897Z" fill="#2D3942"/>
<path d="M25.1302 32.6897H22.3066V35.4483H25.1302V32.6897Z" fill="#2D3942"/>
<path d="M30.7767 32.6897H27.9531V35.4483H30.7767V32.6897Z" fill="#2D3942"/>
<path d="M30.7767 44.8276H27.9531V47.5863H30.7767V44.8276Z" fill="#2D3942"/>
<path d="M42.636 38.7588H39.8125V41.5174H42.636V38.7588Z" fill="#2D3942"/>
<path d="M42.636 44.8276H39.8125V47.5863H42.636V44.8276Z" fill="#2D3942"/>
<path d="M42.636 50.8965H39.8125V53.6551H42.636V50.8965Z" fill="#2D3942"/>
</svg>
