<svg width="60" height="60" viewBox="0 0 60 60" fill="none" xmlns="http://www.w3.org/2000/svg">
<circle cx="39" cy="21" r="21" fill="#FFE68E"/>
<g clip-path="url(#clip0)">
<path d="M40.8899 42.8495C40.5667 41.8751 39.5162 38.465 37.6576 37.8967C37.5768 37.8967 36.7687 37.6531 35.799 37.8967C35.3949 37.4907 34.9101 37.1659 34.2636 37.0847C33.698 37.0847 32.6475 37.1659 31.7586 37.8155C31.1929 37.4907 30.6273 37.3283 29.9808 37.4095C29.5768 37.4095 29.1727 37.5719 28.7687 37.7343L27.2333 31.4012C26.6677 28.9654 24.7283 28.4782 23.597 28.803C22.8697 28.9654 22.2232 29.4525 21.9 30.1021C21.1727 31.4012 21.6576 33.1874 21.7384 33.3498L23.5162 40.5761C22.7889 40.7384 22.0616 41.3068 21.3343 42.4435C21.2535 42.6059 19.3141 46.9903 22.3848 49.6697C22.4657 49.7509 24.5667 51.6184 27.2333 52.5115C27.2333 52.5115 28.1222 52.7551 28.5263 54.1354C28.6879 54.6225 29.0919 56.1652 29.1727 56.7336C29.2535 57.2207 29.6576 57.5455 30.1424 57.5455C30.2232 57.5455 30.2232 57.5455 30.304 57.5455C30.8697 57.4643 31.1929 56.9772 31.1121 56.4088C31.0313 55.5969 30.4657 53.8106 30.4657 53.567C29.9 51.5372 28.5263 50.7253 27.799 50.5629C25.6172 49.8321 23.7586 48.2082 23.6778 48.1271C21.7384 46.422 23.0313 43.2554 23.0313 43.2554C23.597 42.3623 23.9202 42.3623 24.001 42.3623L24.405 44.0674C24.5667 44.7981 24.1626 45.2853 24.1626 45.2853C23.8394 45.6912 23.8394 46.2596 24.2434 46.6656C24.405 46.828 24.6475 46.9092 24.8899 46.9092C25.1323 46.9092 25.3747 46.828 25.6172 46.5844C26.0212 46.0972 26.6677 44.9605 26.3444 43.5802L23.6778 32.6191C23.597 32.2943 23.4353 31.32 23.6778 30.914C23.7586 30.8328 23.8394 30.6704 24.1626 30.5892C24.3242 30.5892 25.1323 30.4269 25.4556 31.8071L27.9606 42.1999C28.1222 42.6871 28.6071 43.0119 29.1727 42.9307C29.6576 42.7683 29.9808 42.2811 29.9 41.7128L29.4151 39.8453C29.4151 39.3581 30.0616 39.277 30.304 39.277C30.7081 39.1958 30.9505 39.3581 31.0313 39.4393C31.5162 39.8453 31.6778 40.9008 31.7586 41.2256C31.7586 41.7128 32.2434 42.1187 32.7283 42.1187C32.7283 42.1187 32.7283 42.1187 32.8091 42.1187C33.3747 42.1187 33.7788 41.6316 33.698 41.0632C33.698 40.9008 33.6172 40.0077 33.2131 39.1958C33.698 38.9522 34.1828 38.9522 34.1828 38.9522C34.8293 39.0334 35.0717 40.4137 35.0717 40.9008C35.0717 41.388 35.5566 41.8751 36.0414 41.8751C36.6071 41.8751 37.0111 41.388 37.0111 40.9008C37.0111 40.576 36.9303 40.1701 36.8495 39.6829C37.0111 39.6829 37.1727 39.7641 37.1727 39.7641C37.7384 39.9265 38.6273 41.794 39.1121 43.4178C39.6778 45.2041 38.7889 48.2082 38.4657 49.1826C38.4657 49.2638 37.9 50.8876 38.5465 52.8363L39.1929 54.5414C39.3545 54.9473 39.6778 55.1909 40.0818 55.1909C40.1626 55.1909 40.3242 55.1909 40.405 55.1097C40.8899 54.9473 41.1323 54.379 40.9707 53.8918L40.3242 52.1867C39.9202 50.9688 40.2434 49.9133 40.2434 49.9133C40.2434 49.6697 41.7788 45.6101 40.8899 42.8495Z" fill="#2D3942"/>
<path d="M20.4433 26.9354H18.9887V16.9486H28.9281V26.9354H28.0392C27.5544 26.9354 27.1503 27.3414 27.1503 27.8286C27.1503 28.3157 27.5544 28.7217 28.0392 28.7217H29.8978C30.3827 28.7217 30.7867 28.3157 30.7867 27.8286V16.0555C30.7867 15.5683 30.3827 15.1624 29.8978 15.1624H18.0998C17.615 15.1624 17.2109 15.5683 17.2109 16.0555V27.9098C17.2109 28.3969 17.615 28.8029 18.0998 28.8029H20.4433C20.9281 28.8029 21.3322 28.3969 21.3322 27.9098C21.413 27.3414 21.0089 26.9354 20.4433 26.9354Z" fill="#2D3942"/>
<path d="M47.1134 15.0811H35.2346C34.7497 15.0811 34.3457 15.487 34.3457 15.9742V27.8285C34.3457 28.3156 34.7497 28.7216 35.2346 28.7216H47.0326C47.5174 28.7216 47.9215 28.3156 47.9215 27.8285V16.0554C48.0023 15.487 47.5982 15.0811 47.1134 15.0811ZM46.1437 26.9353H36.2043V16.9485H46.1437V26.9353V26.9353Z" fill="#2D3942"/>
<path d="M12.7677 21.4954C12.2828 21.4954 11.8788 21.9013 11.8788 22.3885V26.9353H1.85859V16.9485H9.69697C10.1818 16.9485 10.5859 16.5425 10.5859 16.0554C10.5859 15.5682 10.1818 15.0811 9.69697 15.0811H0.888889C0.40404 15.0811 0 15.487 0 16.0554V27.9096C0 28.3968 0.40404 28.8028 0.888889 28.8028H12.6869C13.1717 28.8028 13.5758 28.3968 13.5758 27.9096V22.4697C13.6566 21.9013 13.2525 21.4954 12.7677 21.4954Z" fill="#2D3942"/>
<path d="M13.4152 15.3248L7.27381 22.6322L5.09199 20.3588C4.76876 20.034 4.1223 20.034 3.79906 20.3588C3.47583 20.6835 3.47583 21.3331 3.79906 21.6579L6.78896 24.662C6.95058 24.8244 7.193 24.9056 7.43543 24.9056C7.43543 24.9056 7.43543 24.9056 7.51624 24.9056C7.75866 24.9056 8.00109 24.7432 8.1627 24.5808L14.9506 16.5427C15.2738 16.1367 15.193 15.5683 14.8698 15.2436C14.5465 14.9188 13.7385 14.9188 13.4152 15.3248Z" fill="#2D3942"/>
</g>
<defs>
<clipPath id="clip0">
<rect width="48" height="42.5455" fill="white" transform="translate(0 15)"/>
</clipPath>
</defs>
</svg>
