<svg width="47" height="47" viewBox="0 0 47 47" fill="none" xmlns="http://www.w3.org/2000/svg">
<path d="M18.0212 32.8978V29.0645V32.8978ZM23.7712 32.8978V25.2311V32.8978ZM29.5212 32.8978V21.3978V32.8978ZM33.3545 40.5645H14.1878C13.1712 40.5645 12.1961 40.1606 11.4772 39.4417C10.7584 38.7228 10.3545 37.7478 10.3545 36.7311V9.89779C10.3545 8.88112 10.7584 7.9061 11.4772 7.18721C12.1961 6.46832 13.1712 6.06445 14.1878 6.06445H24.8943C25.4026 6.06456 25.89 6.26657 26.2494 6.62604L36.6262 17.0029C36.9857 17.3622 37.1877 17.8497 37.1878 18.358V36.7311C37.1878 37.7478 36.784 38.7228 36.0651 39.4417C35.3462 40.1606 34.3712 40.5645 33.3545 40.5645Z" stroke="#F3A024" stroke-width="3.31802" stroke-linecap="round" stroke-linejoin="round"/>
</svg>
