<svg width="47" height="47" viewBox="0 0 47 47" fill="none" xmlns="http://www.w3.org/2000/svg">
<path d="M11.3122 4.14771C10.0413 4.14771 8.82257 4.65254 7.92395 5.55115C7.02534 6.44976 6.52051 7.66854 6.52051 8.93937V37.6894C6.52051 38.9602 7.02534 40.179 7.92395 41.0776C8.82257 41.9762 10.0413 42.481 11.3122 42.481H25.323C24.5013 41.6257 23.8056 40.6576 23.2568 39.606H11.3122C10.8038 39.606 10.3163 39.4041 9.95689 39.0447C9.59744 38.6852 9.39551 38.1977 9.39551 37.6894H22.4538C22.1531 36.7567 21.9639 35.7916 21.8903 34.8144H9.39551V8.93937C9.39551 8.43104 9.59744 7.94353 9.95689 7.58408C10.3163 7.22464 10.8038 7.02271 11.3122 7.02271H33.3538C33.8622 7.02271 34.3497 7.22464 34.7091 7.58408C35.0686 7.94353 35.2705 8.43104 35.2705 8.93937V21.4341C36.2672 21.5108 37.2293 21.7025 38.1455 21.9976V8.93937C38.1455 7.66854 37.6407 6.44976 36.7421 5.55115C35.8434 4.65254 34.6247 4.14771 33.3538 4.14771H11.3122Z" fill="white"/>
<path d="M44.8538 33.8561C44.8538 31.0603 43.7432 28.379 41.7663 26.402C39.7893 24.4251 37.108 23.3145 34.3122 23.3145C31.5163 23.3145 28.835 24.4251 26.8581 26.402C24.8811 28.379 23.7705 31.0603 23.7705 33.8561C23.7705 36.6519 24.8811 39.3333 26.8581 41.3102C28.835 43.2871 31.5163 44.3978 34.3122 44.3978C37.108 44.3978 39.7893 43.2871 41.7663 41.3102C43.7432 39.3333 44.8538 36.6519 44.8538 33.8561ZM33.189 29.2504L38.5672 32.777C38.7338 32.884 38.8705 33.0316 38.9644 33.206C39.0583 33.3803 39.1063 33.5757 39.1038 33.7737C39.104 33.973 39.0567 34.1694 38.9658 34.3468C38.88 34.5223 38.7491 34.6718 38.5863 34.78L33.2063 38.4504C33.1126 38.5134 33.0107 38.563 32.9034 38.598C32.6543 38.6775 32.3845 38.6618 32.1463 38.5539C32.009 38.4896 31.8839 38.402 31.7764 38.2951C31.6726 38.1821 31.5884 38.0525 31.5273 37.9118C31.4674 37.7678 31.4368 37.6134 31.4372 37.4575V30.2547C31.4362 30.0241 31.5021 29.7981 31.627 29.6042C31.7518 29.4103 31.9302 29.2568 32.1406 29.1622C32.3077 29.0839 32.4924 29.0507 32.6763 29.0658C32.8602 29.0809 33.0369 29.1439 33.189 29.2485V29.2504Z" fill="white"/>
<path d="M12.2705 11.8144C12.2705 11.306 12.4724 10.8185 12.8319 10.4591C13.1913 10.0996 13.6788 9.89771 14.1872 9.89771H29.5205C30.0288 9.89771 30.5164 10.0996 30.8758 10.4591C31.2352 10.8185 31.4372 11.306 31.4372 11.8144V15.6477C31.4372 16.156 31.2352 16.6435 30.8758 17.003C30.5164 17.3624 30.0288 17.5644 29.5205 17.5644H14.1872C13.6788 17.5644 13.1913 17.3624 12.8319 17.003C12.4724 16.6435 12.2705 16.156 12.2705 15.6477V11.8144ZM15.1455 14.6894H28.5622V12.7727H15.1455V14.6894Z" fill="white"/>
</svg>
