<svg width="70" height="70" viewBox="0 0 70 70" fill="none" xmlns="http://www.w3.org/2000/svg">
<path d="M26.2502 49.5833V43.75V49.5833ZM35.0002 49.5833V37.9167V49.5833ZM43.7502 49.5833V32.0833V49.5833ZM49.5835 61.25H20.4168C18.8697 61.25 17.386 60.6354 16.292 59.5415C15.1981 58.4475 14.5835 56.9638 14.5835 55.4167V14.5833C14.5835 13.0362 15.1981 11.5525 16.292 10.4585C17.386 9.36458 18.8697 8.75 20.4168 8.75H36.7093C37.4828 8.75017 38.2246 9.05756 38.7714 9.60458L54.5622 25.3954C55.1093 25.9423 55.4167 26.684 55.4168 27.4575V55.4167C55.4168 56.9638 54.8022 58.4475 53.7083 59.5415C52.6143 60.6354 51.1306 61.25 49.5835 61.25Z" stroke="#F3A024" stroke-width="5" stroke-linecap="round" stroke-linejoin="round"/>
</svg>
