<svg width="70" height="70" viewBox="0 0 70 70" fill="none" xmlns="http://www.w3.org/2000/svg">
<path d="M16.0417 5.83325C14.1078 5.83325 12.2531 6.60148 10.8857 7.96893C9.51823 9.33639 8.75 11.191 8.75 13.1249V56.8749C8.75 58.8088 9.51823 60.6635 10.8857 62.0309C12.2531 63.3984 14.1078 64.1666 16.0417 64.1666H37.3625C36.1121 62.8649 35.0534 61.3918 34.2183 59.7916H16.0417C15.2681 59.7916 14.5263 59.4843 13.9793 58.9373C13.4323 58.3903 13.125 57.6485 13.125 56.8749H32.9962C32.5387 55.4556 32.2508 53.987 32.1388 52.4999H13.125V13.1249C13.125 12.3514 13.4323 11.6095 13.9793 11.0625C14.5263 10.5155 15.2681 10.2083 16.0417 10.2083H49.5833C50.3569 10.2083 51.0988 10.5155 51.6457 11.0625C52.1927 11.6095 52.5 12.3514 52.5 13.1249V32.1387C54.0167 32.2553 55.4808 32.547 56.875 32.9962V13.1249C56.875 11.191 56.1068 9.33639 54.7393 7.96893C53.3719 6.60148 51.5172 5.83325 49.5833 5.83325H16.0417Z" fill="#F3A024"/>
<path d="M67.0833 51.0417C67.0833 46.7871 65.3932 42.7069 62.3848 39.6985C59.3764 36.6901 55.2962 35 51.0417 35C46.7871 35 42.7069 36.6901 39.6985 39.6985C36.6901 42.7069 35 46.7871 35 51.0417C35 55.2962 36.6901 59.3764 39.6985 62.3848C42.7069 65.3932 46.7871 67.0833 51.0417 67.0833C55.2962 67.0833 59.3764 65.3932 62.3848 62.3848C65.3932 59.3764 67.0833 55.2962 67.0833 51.0417ZM49.3325 44.0329L57.5167 49.3996C57.7703 49.5624 57.9783 49.787 58.1211 50.0523C58.264 50.3176 58.337 50.6149 58.3333 50.9162C58.3336 51.2195 58.2616 51.5185 58.1233 51.7883C57.9928 52.0554 57.7934 52.2829 57.5458 52.4475L49.3587 58.0329C49.2163 58.1288 49.0612 58.2044 48.8979 58.2575C48.5188 58.3785 48.1083 58.3546 47.7458 58.1904C47.5369 58.0926 47.3464 57.9594 47.1829 57.7967C47.025 57.6246 46.8968 57.4275 46.8037 57.2133C46.7126 56.9943 46.666 56.7593 46.6667 56.5221V45.5612C46.6652 45.2103 46.7655 44.8664 46.9555 44.5713C47.1455 44.2763 47.417 44.0426 47.7371 43.8987C47.9914 43.7796 48.2724 43.729 48.5523 43.752C48.8321 43.7751 49.1011 43.8709 49.3325 44.03V44.0329Z" fill="#F3A024"/>
<path d="M17.5 17.4999C17.5 16.7264 17.8073 15.9845 18.3543 15.4375C18.9013 14.8905 19.6431 14.5833 20.4167 14.5833H43.75C44.5236 14.5833 45.2654 14.8905 45.8124 15.4375C46.3594 15.9845 46.6667 16.7264 46.6667 17.4999V23.3333C46.6667 24.1068 46.3594 24.8487 45.8124 25.3956C45.2654 25.9426 44.5236 26.2499 43.75 26.2499H20.4167C19.6431 26.2499 18.9013 25.9426 18.3543 25.3956C17.8073 24.8487 17.5 24.1068 17.5 23.3333V17.4999ZM21.875 21.8749H42.2917V18.9583H21.875V21.8749Z" fill="#F3A024"/>
</svg>
