<svg width="70" height="70" viewBox="0 0 70 70" fill="none" xmlns="http://www.w3.org/2000/svg">
<path d="M45.9375 42.2915C45.3573 42.2915 44.8009 42.522 44.3907 42.9322C43.9805 43.3424 43.75 43.8988 43.75 44.479C43.75 45.0592 43.9805 45.6156 44.3907 46.0258C44.8009 46.436 45.3573 46.6665 45.9375 46.6665H53.2292C53.8093 46.6665 54.3657 46.436 54.776 46.0258C55.1862 45.6156 55.4167 45.0592 55.4167 44.479C55.4167 43.8988 55.1862 43.3424 54.776 42.9322C54.3657 42.522 53.8093 42.2915 53.2292 42.2915H45.9375Z" fill="#F3A024"/>
<path d="M13.8538 14.5833C11.7266 14.5833 9.68645 15.4283 8.18226 16.9325C6.67806 18.4367 5.83301 20.4768 5.83301 22.6041V47.3958C5.83301 49.523 6.67806 51.5632 8.18226 53.0674C9.68645 54.5716 11.7266 55.4166 13.8538 55.4166H56.1455C58.2728 55.4166 60.3129 54.5716 61.8171 53.0674C63.3213 51.5632 64.1663 49.523 64.1663 47.3958V22.6041C64.1663 20.4768 63.3213 18.4367 61.8171 16.9325C60.3129 15.4283 58.2728 14.5833 56.1455 14.5833H13.8538ZM10.208 47.3958V32.0833H59.7913V47.3958C59.7913 49.4083 58.158 51.0416 56.1455 51.0416H13.8538C11.8413 51.0416 10.208 49.4083 10.208 47.3958ZM10.208 27.7083V22.6041C10.208 20.5916 11.8413 18.9583 13.8538 18.9583H56.1455C58.158 18.9583 59.7913 20.5916 59.7913 22.6041V27.7083H10.208Z" fill="#F3A024"/>
</svg>
