<svg width="47" height="47" viewBox="0 0 47 47" fill="none" xmlns="http://www.w3.org/2000/svg">
<path d="M18.6667 32.8333V29V32.8333ZM24.4167 32.8333V25.1667V32.8333ZM30.1667 32.8333V21.3333V32.8333ZM34 40.5H14.8333C13.8167 40.5 12.8416 40.0961 12.1228 39.3772C11.4039 38.6584 11 37.6833 11 36.6667V9.83333C11 8.81667 11.4039 7.84165 12.1228 7.12276C12.8416 6.40387 13.8167 6 14.8333 6H25.5398C26.0481 6.00011 26.5356 6.20211 26.8949 6.56158L37.2718 16.9384C37.6312 17.2978 37.8332 17.7852 37.8333 18.2935V36.6667C37.8333 37.6833 37.4295 38.6584 36.7106 39.3772C35.9917 40.0961 35.0167 40.5 34 40.5Z" stroke="white" stroke-width="3.31802" stroke-linecap="round" stroke-linejoin="round"/>
</svg>
