<svg width="47" height="47" viewBox="0 0 47 47" fill="none" xmlns="http://www.w3.org/2000/svg">
<path d="M30.9277 28.0605C30.5465 28.0605 30.1809 28.212 29.9113 28.4816C29.6417 28.7512 29.4902 29.1168 29.4902 29.498C29.4902 29.8793 29.6417 30.2449 29.9113 30.5145C30.1809 30.7841 30.5465 30.9356 30.9277 30.9356H35.7194C36.1007 30.9356 36.4663 30.7841 36.7359 30.5145C37.0055 30.2449 37.1569 29.8793 37.1569 29.498C37.1569 29.1168 37.0055 28.7512 36.7359 28.4816C36.4663 28.212 36.1007 28.0605 35.7194 28.0605H30.9277Z" fill="#F3A024"/>
<path d="M9.84407 9.85229C8.44616 9.85229 7.10551 10.4076 6.11703 11.3961C5.12856 12.3846 4.57324 13.7252 4.57324 15.1231V31.4148C4.57324 32.8127 5.12856 34.1534 6.11703 35.1419C7.10551 36.1303 8.44616 36.6856 9.84407 36.6856H37.6357C39.0336 36.6856 40.3743 36.1303 41.3628 35.1419C42.3513 34.1534 42.9066 32.8127 42.9066 31.4148V15.1231C42.9066 13.7252 42.3513 12.3846 41.3628 11.3961C40.3743 10.4076 39.0336 9.85229 37.6357 9.85229H9.84407ZM7.44824 31.4148V21.3523H40.0316V31.4148C40.0316 32.7373 38.9582 33.8106 37.6357 33.8106H9.84407C8.52157 33.8106 7.44824 32.7373 7.44824 31.4148ZM7.44824 18.4773V15.1231C7.44824 13.8006 8.52157 12.7273 9.84407 12.7273H37.6357C38.9582 12.7273 40.0316 13.8006 40.0316 15.1231V18.4773H7.44824Z" fill="#F3A024"/>
</svg>
