<svg width="46" height="47" viewBox="0 0 46 47" fill="none" xmlns="http://www.w3.org/2000/svg">
<path d="M43.1649 21.3637H34.1511V16.6978C34.1511 15.1601 32.9316 13.9406 31.3939 13.9406H24.0768V11.2895H35.7418C36.166 11.2895 36.5371 11.0774 36.6962 10.7062C36.8553 10.335 36.8553 9.91087 36.5901 9.59273L33.886 5.9872L36.5901 2.38166C36.8553 2.06352 36.8553 1.63934 36.6962 1.26819C36.5371 0.897027 36.166 0.684937 35.7418 0.684937H23.0164C22.4331 0.684937 21.9559 1.16214 21.9559 1.74539V13.9406H14.1086C12.5709 13.9406 11.3514 15.1601 11.3514 16.6978V21.3637H2.33755C1.17105 21.3637 0.216644 22.3182 0.216644 23.4846V44.6937C0.216644 45.8602 1.17105 46.8146 2.33755 46.8146H11.3514C11.8286 46.8146 12.3058 46.6555 12.6239 46.3904C13.0481 46.6555 13.5783 46.8146 14.1086 46.8146H31.3939C31.9242 46.8146 32.4544 46.6555 32.8786 46.3904C33.2497 46.6555 33.6739 46.8146 34.1511 46.8146H43.1649C44.3314 46.8146 45.2858 45.8602 45.2858 44.6937V23.4846C45.2858 22.3182 44.3314 21.3637 43.1649 21.3637ZM24.0768 2.80584H33.6209L31.7121 5.35092C31.4469 5.72208 31.4469 6.25231 31.7121 6.62347L33.6209 9.16855H24.0768V2.80584ZM11.3514 44.6937H2.33755V23.4846H11.3514V44.0574V44.6937ZM31.3939 44.6937H29.114V38.0659H26.4628V44.6937H18.5094V38.0659H15.8583V44.6937H14.1086C13.7374 44.6937 13.4723 44.4286 13.4723 44.0574V23.4846V16.6978C13.4723 16.3266 13.7374 16.0615 14.1086 16.0615H31.3939C31.7651 16.0615 32.0302 16.3266 32.0302 16.6978V23.4846V44.0574C32.0302 44.4286 31.7651 44.6937 31.3939 44.6937ZM43.1649 44.6937H34.1511V23.4846H43.1649V44.6937Z" fill="#3B9FBE"/>
<path d="M7.90211 26.4012H5.25098V29.0524H7.90211V26.4012Z" fill="#3B9FBE"/>
<path d="M7.90211 32.2339H5.25098V34.885H7.90211V32.2339Z" fill="#3B9FBE"/>
<path d="M7.90211 38.0658H5.25098V40.7169H7.90211V38.0658Z" fill="#3B9FBE"/>
<path d="M18.508 26.4012H15.8568V29.0524H18.508V26.4012Z" fill="#3B9FBE"/>
<path d="M18.508 32.2339H15.8568V34.885H18.508V32.2339Z" fill="#3B9FBE"/>
<path d="M23.809 26.4012H21.1579V29.0524H23.809V26.4012Z" fill="#3B9FBE"/>
<path d="M23.809 32.2339H21.1579V34.885H23.809V32.2339Z" fill="#3B9FBE"/>
<path d="M23.809 38.0658H21.1579V40.7169H23.809V38.0658Z" fill="#3B9FBE"/>
<path d="M29.1139 26.4012H26.4627V29.0524H29.1139V26.4012Z" fill="#3B9FBE"/>
<path d="M18.508 20.5684H15.8568V23.2195H18.508V20.5684Z" fill="#3B9FBE"/>
<path d="M23.809 20.5684H21.1579V23.2195H23.809V20.5684Z" fill="#3B9FBE"/>
<path d="M29.1139 20.5684H26.4627V23.2195H29.1139V20.5684Z" fill="#3B9FBE"/>
<path d="M29.1139 32.2339H26.4627V34.885H29.1139V32.2339Z" fill="#3B9FBE"/>
<path d="M40.2484 26.4012H37.5972V29.0524H40.2484V26.4012Z" fill="#3B9FBE"/>
<path d="M40.2484 32.2339H37.5972V34.885H40.2484V32.2339Z" fill="#3B9FBE"/>
<path d="M40.2484 38.0658H37.5972V40.7169H40.2484V38.0658Z" fill="#3B9FBE"/>
</svg>
