<svg width="60" height="60" viewBox="0 0 60 60" fill="none" xmlns="http://www.w3.org/2000/svg">
<mask id="path-1-inside-1" fill="white">
<path d="M49.4171 16.8597C47.6283 14.5514 45.5386 13.3097 43.2049 13.169C43.124 13.164 43.0456 13.169 42.9655 13.1669C41.8949 7.92053 37.3608 6.49969 35.0035 6.49969C32.6151 6.49969 30.8528 7.06695 29.7648 8.18491C29.759 8.19112 29.754 8.19692 29.7482 8.20312C29.7424 8.19692 29.7378 8.19112 29.7316 8.18491C28.6436 7.06654 26.8813 6.49969 24.4929 6.49969C22.1356 6.49969 17.601 7.92094 16.5305 13.1669C16.4504 13.169 16.372 13.1644 16.291 13.169C13.9574 13.3097 11.8677 14.5513 10.0619 16.8824C9.91705 17.0806 6.53813 21.7999 8.74482 27.4985C8.79917 27.633 9.90376 30.2901 12.2237 31.6617C11.2382 32.8782 10.4386 34.9019 10.9092 38.2123C10.9366 38.42 11.6374 43.3155 16.0188 44.9867C16.1379 45.033 16.8367 45.29 17.8139 45.3645C17.6305 47.7787 18.4757 51.4425 22.7796 53.0619C22.8692 53.095 23.9933 53.5001 25.4282 53.4997C26.795 53.4997 28.4444 53.1319 29.7478 51.7255C31.0511 53.1319 32.6997 53.4997 34.067 53.4997C35.5027 53.4997 36.6293 53.0942 36.721 53.0603C41.0285 51.4396 41.8684 47.7651 41.6804 45.3512C42.6228 45.2635 43.2759 45.0148 43.3195 44.997C47.6316 43.3528 48.3196 38.5462 48.3453 38.3513C48.7353 35.6032 48.0424 33.4177 47.0175 31.807C49.5126 30.4875 50.6947 27.6367 50.7561 27.4853C52.9583 21.7999 49.5789 17.0802 49.4171 16.8597ZM28.2739 50.267L28.2365 50.308C26.5149 52.1835 23.5277 51.1318 23.5074 51.1247C19.7343 49.7047 19.777 46.3839 19.9268 45.1841C19.9725 45.1721 20.0177 45.1638 20.0638 45.1505C20.6144 44.9929 20.9331 44.4203 20.775 43.8712C20.6173 43.3218 20.0426 43.0056 19.4919 43.1616C18.0998 43.5588 16.7898 43.066 16.7691 43.0582C13.5453 41.8285 12.9711 37.9756 12.9648 37.9314C12.2403 32.8331 15.0595 31.9857 15.206 31.9452C15.7558 31.8074 16.0935 31.2534 15.9616 30.7018C15.8284 30.1466 15.2707 29.8036 14.7118 29.936C14.7001 29.9389 14.4176 30.0121 14.0101 30.2165C11.8316 29.4904 10.681 26.7521 10.6752 26.7393C8.88964 22.1284 11.6233 18.2615 11.7212 18.1245C13.1242 16.3139 14.6997 15.3416 16.4047 15.2349C18.8724 15.083 21.0517 16.7405 21.8086 17.393C20.8858 19.3244 21.2293 20.972 21.2534 21.0796C21.3613 21.5599 21.787 21.8827 22.2613 21.8827C22.3331 21.8827 22.4065 21.8752 22.48 21.8599C23.036 21.7424 23.3925 21.1946 23.2808 20.6389C23.258 20.5256 22.7609 17.8341 26.1245 15.731C26.61 15.4273 26.7564 14.7893 26.4523 14.3052C26.1473 13.8211 25.5074 13.6746 25.0224 13.9783C24.1667 14.5133 23.4983 15.0863 22.9754 15.666C22.1642 14.9945 20.5828 13.8769 18.6044 13.3933C19.6911 8.66818 24.2912 8.57012 24.4933 8.56847C27.7834 8.56847 28.6926 9.83124 28.7108 10.5826V12.3721H27.7448C27.1718 12.3721 26.7075 12.8351 26.7075 13.4065C26.7075 13.9779 27.1718 14.4409 27.7448 14.4409H28.7104V16.82H26.3963C25.8232 16.82 25.3589 17.283 25.3589 17.8544C25.3589 18.4258 25.8232 18.8887 26.3963 18.8887H28.7104V21.6762H27.6722C27.0992 21.6762 26.6349 22.1392 26.6349 22.7106C26.6349 23.282 27.0992 23.745 27.6722 23.745H28.7104V31.0424H22.7128L20.6484 28.4121C21.0721 27.8316 21.3256 27.12 21.3256 26.3487C21.3256 24.4095 19.7434 22.8318 17.7985 22.8318C15.8537 22.8318 14.2715 24.4095 14.2715 26.3487C14.2715 28.288 15.8537 29.8656 17.7985 29.8656C18.2168 29.8656 18.6168 29.7887 18.9894 29.655L21.17 32.4338V36.0873C19.8695 36.6057 18.9471 37.8722 18.9471 39.3522C18.9471 41.2915 20.5293 42.8691 22.4742 42.8691C24.419 42.8691 26.0012 41.2915 26.0012 39.3522C26.0012 37.6773 24.8199 36.2747 23.2447 35.9226V33.1111H28.7104V48.4837C28.7104 49.6592 28.349 50.1731 28.2739 50.267ZM22.4738 37.9036C23.2746 37.9036 23.9261 38.5532 23.9261 39.3518C23.9261 40.1503 23.2746 40.7999 22.4738 40.7999C21.6729 40.7999 21.0214 40.1503 21.0214 39.3518C21.0214 38.5532 21.6733 37.9036 22.4738 37.9036ZM17.7985 27.7969C16.9977 27.7969 16.3462 27.1473 16.3462 26.3487C16.3462 25.5502 16.9977 24.9006 17.7985 24.9006C18.5994 24.9006 19.2509 25.5502 19.2509 26.3487C19.2509 27.1473 18.599 27.7969 17.7985 27.7969ZM48.8279 26.7228C48.8167 26.7505 47.7337 29.336 45.6788 30.1524C45.0212 29.5077 44.3535 29.046 43.8078 28.7721C43.2962 28.5156 42.6788 28.7204 42.419 29.2272C42.1597 29.7345 42.3622 30.3564 42.8697 30.6174C43.0402 30.7051 47.0349 32.8252 46.2901 38.0696C46.2851 38.1072 45.7506 41.855 42.5705 43.0677C42.5543 43.0743 40.9223 43.685 39.3849 42.9626C38.3505 42.4765 37.5517 41.4752 37.0019 39.996C38.1106 38.4378 38.3198 36.8097 38.333 36.6963C38.3994 36.1291 37.992 35.6152 37.4231 35.549C36.8533 35.4881 36.3392 35.8887 36.2724 36.4563C36.2687 36.489 35.8508 39.7502 32.6786 40.5935C32.125 40.7408 31.796 41.308 31.9437 41.86C32.0677 42.3225 32.4873 42.6279 32.9454 42.6279C33.0342 42.6279 33.1242 42.6163 33.2134 42.5927C34.0902 42.3598 34.8176 42.0006 35.4222 41.5745C36.1662 43.131 37.2048 44.2349 38.531 44.8481C38.8828 45.0107 39.2331 45.1274 39.5766 45.2105C39.7322 46.4266 39.7688 49.7018 35.9973 51.121C35.9678 51.1314 32.9806 52.1835 31.2594 50.3076L31.269 50.3034L31.2204 50.2646C31.1424 50.1661 30.7856 49.6514 30.7856 48.4833V30.008H37.794L40.2957 26.8204C40.7256 27.007 41.1995 27.1117 41.6974 27.1117C43.6423 27.1117 45.2245 25.534 45.2245 23.5948C45.2245 21.6555 43.6423 20.0779 41.6974 20.0779C39.7526 20.0779 38.1704 21.6555 38.1704 23.5948C38.1704 24.2853 38.3737 24.9279 38.7198 25.4716L36.7832 27.9392H30.7851V23.7446H31.718C32.291 23.7446 32.7553 23.2816 32.7553 22.7102C32.7553 22.1388 32.291 21.6758 31.718 21.6758H30.7851V18.8883H33.1391C33.7122 18.8883 34.1765 18.4253 34.1765 17.8539C34.1765 17.2825 33.7122 16.8196 33.1391 16.8196H30.7851V14.4405H31.7906C32.3636 14.4405 32.8279 13.9775 32.8279 13.4061C32.8279 12.8347 32.3636 12.3717 31.7906 12.3717H30.7851V10.5839C30.7851 10.581 30.7851 10.5793 30.7851 10.5756C30.8046 9.82959 31.7138 8.56764 35.0031 8.56764C35.2089 8.56764 39.8036 8.62846 40.892 13.3908C38.0492 14.0822 36.033 16.0897 35.9276 16.196C35.5255 16.6019 35.5301 17.2548 35.9363 17.6562C36.3425 18.0579 36.9994 18.0546 37.4023 17.6504C37.428 17.6243 40.0393 15.047 43.0908 15.234C44.7954 15.3408 46.3714 16.3131 47.7573 18.101C47.7868 18.1407 50.6196 22.0953 48.8279 26.7228ZM40.2451 23.5948C40.2451 22.7962 40.8966 22.1466 41.6974 22.1466C42.4983 22.1466 43.1497 22.7962 43.1497 23.5948C43.1497 24.3933 42.4983 25.0429 41.6974 25.0429C41.4207 25.0429 41.1642 24.961 40.9439 24.8265C40.885 24.7401 40.8161 24.6585 40.7289 24.5903C40.675 24.5485 40.6181 24.5133 40.5596 24.4839C40.3659 24.2378 40.2451 23.9312 40.2451 23.5948Z"/>
</mask>
<path d="M49.4171 16.8597C47.6283 14.5514 45.5386 13.3097 43.2049 13.169C43.124 13.164 43.0456 13.169 42.9655 13.1669C41.8949 7.92053 37.3608 6.49969 35.0035 6.49969C32.6151 6.49969 30.8528 7.06695 29.7648 8.18491C29.759 8.19112 29.754 8.19692 29.7482 8.20312C29.7424 8.19692 29.7378 8.19112 29.7316 8.18491C28.6436 7.06654 26.8813 6.49969 24.4929 6.49969C22.1356 6.49969 17.601 7.92094 16.5305 13.1669C16.4504 13.169 16.372 13.1644 16.291 13.169C13.9574 13.3097 11.8677 14.5513 10.0619 16.8824C9.91705 17.0806 6.53813 21.7999 8.74482 27.4985C8.79917 27.633 9.90376 30.2901 12.2237 31.6617C11.2382 32.8782 10.4386 34.9019 10.9092 38.2123C10.9366 38.42 11.6374 43.3155 16.0188 44.9867C16.1379 45.033 16.8367 45.29 17.8139 45.3645C17.6305 47.7787 18.4757 51.4425 22.7796 53.0619C22.8692 53.095 23.9933 53.5001 25.4282 53.4997C26.795 53.4997 28.4444 53.1319 29.7478 51.7255C31.0511 53.1319 32.6997 53.4997 34.067 53.4997C35.5027 53.4997 36.6293 53.0942 36.721 53.0603C41.0285 51.4396 41.8684 47.7651 41.6804 45.3512C42.6228 45.2635 43.2759 45.0148 43.3195 44.997C47.6316 43.3528 48.3196 38.5462 48.3453 38.3513C48.7353 35.6032 48.0424 33.4177 47.0175 31.807C49.5126 30.4875 50.6947 27.6367 50.7561 27.4853C52.9583 21.7999 49.5789 17.0802 49.4171 16.8597ZM28.2739 50.267L28.2365 50.308C26.5149 52.1835 23.5277 51.1318 23.5074 51.1247C19.7343 49.7047 19.777 46.3839 19.9268 45.1841C19.9725 45.1721 20.0177 45.1638 20.0638 45.1505C20.6144 44.9929 20.9331 44.4203 20.775 43.8712C20.6173 43.3218 20.0426 43.0056 19.4919 43.1616C18.0998 43.5588 16.7898 43.066 16.7691 43.0582C13.5453 41.8285 12.9711 37.9756 12.9648 37.9314C12.2403 32.8331 15.0595 31.9857 15.206 31.9452C15.7558 31.8074 16.0935 31.2534 15.9616 30.7018C15.8284 30.1466 15.2707 29.8036 14.7118 29.936C14.7001 29.9389 14.4176 30.0121 14.0101 30.2165C11.8316 29.4904 10.681 26.7521 10.6752 26.7393C8.88964 22.1284 11.6233 18.2615 11.7212 18.1245C13.1242 16.3139 14.6997 15.3416 16.4047 15.2349C18.8724 15.083 21.0517 16.7405 21.8086 17.393C20.8858 19.3244 21.2293 20.972 21.2534 21.0796C21.3613 21.5599 21.787 21.8827 22.2613 21.8827C22.3331 21.8827 22.4065 21.8752 22.48 21.8599C23.036 21.7424 23.3925 21.1946 23.2808 20.6389C23.258 20.5256 22.7609 17.8341 26.1245 15.731C26.61 15.4273 26.7564 14.7893 26.4523 14.3052C26.1473 13.8211 25.5074 13.6746 25.0224 13.9783C24.1667 14.5133 23.4983 15.0863 22.9754 15.666C22.1642 14.9945 20.5828 13.8769 18.6044 13.3933C19.6911 8.66818 24.2912 8.57012 24.4933 8.56847C27.7834 8.56847 28.6926 9.83124 28.7108 10.5826V12.3721H27.7448C27.1718 12.3721 26.7075 12.8351 26.7075 13.4065C26.7075 13.9779 27.1718 14.4409 27.7448 14.4409H28.7104V16.82H26.3963C25.8232 16.82 25.3589 17.283 25.3589 17.8544C25.3589 18.4258 25.8232 18.8887 26.3963 18.8887H28.7104V21.6762H27.6722C27.0992 21.6762 26.6349 22.1392 26.6349 22.7106C26.6349 23.282 27.0992 23.745 27.6722 23.745H28.7104V31.0424H22.7128L20.6484 28.4121C21.0721 27.8316 21.3256 27.12 21.3256 26.3487C21.3256 24.4095 19.7434 22.8318 17.7985 22.8318C15.8537 22.8318 14.2715 24.4095 14.2715 26.3487C14.2715 28.288 15.8537 29.8656 17.7985 29.8656C18.2168 29.8656 18.6168 29.7887 18.9894 29.655L21.17 32.4338V36.0873C19.8695 36.6057 18.9471 37.8722 18.9471 39.3522C18.9471 41.2915 20.5293 42.8691 22.4742 42.8691C24.419 42.8691 26.0012 41.2915 26.0012 39.3522C26.0012 37.6773 24.8199 36.2747 23.2447 35.9226V33.1111H28.7104V48.4837C28.7104 49.6592 28.349 50.1731 28.2739 50.267ZM22.4738 37.9036C23.2746 37.9036 23.9261 38.5532 23.9261 39.3518C23.9261 40.1503 23.2746 40.7999 22.4738 40.7999C21.6729 40.7999 21.0214 40.1503 21.0214 39.3518C21.0214 38.5532 21.6733 37.9036 22.4738 37.9036ZM17.7985 27.7969C16.9977 27.7969 16.3462 27.1473 16.3462 26.3487C16.3462 25.5502 16.9977 24.9006 17.7985 24.9006C18.5994 24.9006 19.2509 25.5502 19.2509 26.3487C19.2509 27.1473 18.599 27.7969 17.7985 27.7969ZM48.8279 26.7228C48.8167 26.7505 47.7337 29.336 45.6788 30.1524C45.0212 29.5077 44.3535 29.046 43.8078 28.7721C43.2962 28.5156 42.6788 28.7204 42.419 29.2272C42.1597 29.7345 42.3622 30.3564 42.8697 30.6174C43.0402 30.7051 47.0349 32.8252 46.2901 38.0696C46.2851 38.1072 45.7506 41.855 42.5705 43.0677C42.5543 43.0743 40.9223 43.685 39.3849 42.9626C38.3505 42.4765 37.5517 41.4752 37.0019 39.996C38.1106 38.4378 38.3198 36.8097 38.333 36.6963C38.3994 36.1291 37.992 35.6152 37.4231 35.549C36.8533 35.4881 36.3392 35.8887 36.2724 36.4563C36.2687 36.489 35.8508 39.7502 32.6786 40.5935C32.125 40.7408 31.796 41.308 31.9437 41.86C32.0677 42.3225 32.4873 42.6279 32.9454 42.6279C33.0342 42.6279 33.1242 42.6163 33.2134 42.5927C34.0902 42.3598 34.8176 42.0006 35.4222 41.5745C36.1662 43.131 37.2048 44.2349 38.531 44.8481C38.8828 45.0107 39.2331 45.1274 39.5766 45.2105C39.7322 46.4266 39.7688 49.7018 35.9973 51.121C35.9678 51.1314 32.9806 52.1835 31.2594 50.3076L31.269 50.3034L31.2204 50.2646C31.1424 50.1661 30.7856 49.6514 30.7856 48.4833V30.008H37.794L40.2957 26.8204C40.7256 27.007 41.1995 27.1117 41.6974 27.1117C43.6423 27.1117 45.2245 25.534 45.2245 23.5948C45.2245 21.6555 43.6423 20.0779 41.6974 20.0779C39.7526 20.0779 38.1704 21.6555 38.1704 23.5948C38.1704 24.2853 38.3737 24.9279 38.7198 25.4716L36.7832 27.9392H30.7851V23.7446H31.718C32.291 23.7446 32.7553 23.2816 32.7553 22.7102C32.7553 22.1388 32.291 21.6758 31.718 21.6758H30.7851V18.8883H33.1391C33.7122 18.8883 34.1765 18.4253 34.1765 17.8539C34.1765 17.2825 33.7122 16.8196 33.1391 16.8196H30.7851V14.4405H31.7906C32.3636 14.4405 32.8279 13.9775 32.8279 13.4061C32.8279 12.8347 32.3636 12.3717 31.7906 12.3717H30.7851V10.5839C30.7851 10.581 30.7851 10.5793 30.7851 10.5756C30.8046 9.82959 31.7138 8.56764 35.0031 8.56764C35.2089 8.56764 39.8036 8.62846 40.892 13.3908C38.0492 14.0822 36.033 16.0897 35.9276 16.196C35.5255 16.6019 35.5301 17.2548 35.9363 17.6562C36.3425 18.0579 36.9994 18.0546 37.4023 17.6504C37.428 17.6243 40.0393 15.047 43.0908 15.234C44.7954 15.3408 46.3714 16.3131 47.7573 18.101C47.7868 18.1407 50.6196 22.0953 48.8279 26.7228ZM40.2451 23.5948C40.2451 22.7962 40.8966 22.1466 41.6974 22.1466C42.4983 22.1466 43.1497 22.7962 43.1497 23.5948C43.1497 24.3933 42.4983 25.0429 41.6974 25.0429C41.4207 25.0429 41.1642 24.961 40.9439 24.8265C40.885 24.7401 40.8161 24.6585 40.7289 24.5903C40.675 24.5485 40.6181 24.5133 40.5596 24.4839C40.3659 24.2378 40.2451 23.9312 40.2451 23.5948Z" fill="#969CA0" stroke="#969CA0" stroke-width="2" mask="url(#path-1-inside-1)"/>
</svg>
