<svg width="260" height="94" viewBox="0 0 260 94" fill="none" xmlns="http://www.w3.org/2000/svg">
<path d="M1.824 72.832C1.92 72.952 2.064 73 2.256 73H5.544C5.712 73 5.856 72.952 5.976 72.832C6.096 72.712 6.168 72.568 6.168 72.376V66.304H11.832V72.376C11.832 72.568 11.88 72.712 12 72.832C12.12 72.952 12.264 73 12.456 73H15.72C15.888 73 16.032 72.952 16.152 72.832C16.272 72.712 16.344 72.568 16.344 72.376V56.32C16.344 56.128 16.272 55.984 16.152 55.864C16.032 55.744 15.888 55.672 15.72 55.672H12.456C12.264 55.672 12.12 55.744 12 55.864C11.88 55.984 11.832 56.128 11.832 56.32V62.176H6.168V56.32C6.168 56.128 6.096 55.984 5.976 55.864C5.856 55.744 5.712 55.672 5.544 55.672H2.256C2.064 55.672 1.92 55.744 1.824 55.864C1.704 55.984 1.656 56.128 1.656 56.32V72.376C1.656 72.568 1.704 72.712 1.824 72.832ZM26.8971 59.344C27.4731 59.344 27.9771 59.464 28.3851 59.704C28.7691 59.944 29.0331 60.208 29.1291 60.544C29.3211 60.856 29.5851 61 29.9451 61H33.3051C33.4491 61 33.5691 60.952 33.6651 60.832C33.7611 60.736 33.8091 60.592 33.8091 60.448C33.7611 59.752 33.4731 59.032 32.9211 58.288C32.3691 57.544 31.5771 56.92 30.5451 56.416C29.5131 55.936 28.3131 55.672 26.9451 55.672C25.5531 55.672 24.3531 55.912 23.3451 56.344C22.3371 56.776 21.5451 57.4 20.9931 58.192C20.4411 58.984 20.1771 59.872 20.1771 60.88C20.1771 62.368 20.6571 63.496 21.6171 64.288C22.5771 65.104 23.9931 65.704 25.9131 66.088C27.8091 66.472 28.9611 66.856 29.3931 67.216C29.6331 67.456 29.7531 67.768 29.7531 68.176C29.7531 68.584 29.5131 68.92 29.0571 69.184C28.5771 69.448 27.9291 69.568 27.0651 69.568C25.7211 69.568 24.8091 69.136 24.3291 68.248C24.0651 67.96 23.7771 67.792 23.4651 67.792H20.2731C20.1291 67.792 19.9851 67.84 19.8891 67.936C19.7931 68.032 19.7451 68.176 19.7451 68.32C19.7691 69.184 20.0571 70 20.6331 70.744C21.1851 71.512 22.0011 72.112 23.1051 72.568C24.2091 73.024 25.4811 73.24 26.9691 73.24C28.4571 73.24 29.7531 73.024 30.8571 72.592C31.9611 72.16 32.8251 71.536 33.4491 70.72C34.0731 69.904 34.3851 68.968 34.3851 67.912C34.3851 66.856 34.1691 66.016 33.7371 65.344C33.3051 64.696 32.6571 64.168 31.7691 63.736C30.8811 63.328 29.6811 62.992 28.1931 62.704C26.8731 62.416 25.9851 62.152 25.5051 61.888C25.0251 61.624 24.7851 61.24 24.7851 60.76C24.7851 59.824 25.4811 59.344 26.8971 59.344ZM37.7375 72.808C37.8575 72.952 38.0015 73 38.1455 73H41.3615C41.5535 73 41.6975 72.952 41.8175 72.832C41.9135 72.712 41.9855 72.568 41.9855 72.376V66.472L46.5455 72.496C46.5935 72.64 46.7135 72.76 46.8575 72.856C47.0015 72.952 47.2175 73 47.5055 73H51.2495C51.3935 73 51.5375 72.952 51.6335 72.856C51.7295 72.76 51.7775 72.64 51.7775 72.496C51.7775 72.352 51.7295 72.256 51.6815 72.184L45.6335 63.976L51.2495 56.488C51.2975 56.44 51.3455 56.344 51.3455 56.2C51.3455 56.08 51.2735 55.96 51.1775 55.84C51.0815 55.744 50.9615 55.672 50.8175 55.672H47.1695C46.6895 55.672 46.3775 55.84 46.2095 56.176L41.9855 61.72V56.32C41.9855 56.152 41.9135 56.008 41.7935 55.864C41.6735 55.744 41.5295 55.672 41.3615 55.672H38.1455C37.9535 55.672 37.8095 55.744 37.7135 55.864C37.6175 56.008 37.5695 56.152 37.5695 56.32V72.376C37.5695 72.544 37.6175 72.688 37.7375 72.808Z" fill="#3B9FBE"/>
<path d="M115.232 55.036C115.232 54.58 115.004 54.124 114.7 53.744C114.32 53.44 113.864 53.212 113.408 53.212H108.088V23.116C108.088 22.66 107.86 22.204 107.48 21.824C107.1 21.444 106.644 21.216 106.188 21.216H94.636C93.876 21.216 93.344 21.52 93.04 22.128L72.9 53.592C72.748 53.972 72.672 54.352 72.672 54.656V61.8C72.672 62.408 72.824 62.864 73.204 63.168C73.508 63.548 73.964 63.7 74.496 63.7H95.32V75.1C95.32 75.632 95.472 76.088 95.852 76.468C96.156 76.848 96.612 77 97.144 77H106.188C106.644 77 107.1 76.848 107.48 76.468C107.86 76.088 108.088 75.632 108.088 75.1V63.7H113.408C113.712 63.7 114.016 63.624 114.32 63.472C114.624 63.32 114.852 63.092 115.004 62.788C115.156 62.484 115.232 62.18 115.232 61.8V55.036ZM84.756 53.212C84.756 53.212 85.136 52.68 85.82 51.768C86.428 50.856 87.188 49.868 87.948 48.804C88.708 47.74 89.544 46.524 90.456 45.08C91.368 43.712 92.052 42.42 92.584 41.356C93.116 40.292 93.648 39.304 94.104 38.24C94.256 37.784 94.484 37.252 94.712 36.796C95.016 36.036 95.396 35.2 95.7 34.288C95.548 36.264 95.472 38.392 95.472 40.672C95.396 41.432 95.32 42.572 95.32 44.016V53.212H84.756Z" fill="#6ACFED"/>
<path d="M118.7 57.744L119.09 57.4316L119.056 57.3883L119.012 57.3536L118.7 57.744ZM112.088 57.212H111.588V57.712H112.088V57.212ZM97.04 26.128L97.4611 26.3976L97.4754 26.3753L97.4872 26.3516L97.04 26.128ZM76.9 57.592L76.4789 57.3224L76.4534 57.3623L76.4358 57.4063L76.9 57.592ZM77.204 67.168L77.5944 66.8557L77.5597 66.8123L77.5163 66.7776L77.204 67.168ZM99.32 67.7H99.82V67.2H99.32V67.7ZM99.852 80.468L100.242 80.1557L100.225 80.134L100.206 80.1144L99.852 80.468ZM111.48 80.468L111.126 80.1144L111.48 80.468ZM112.088 67.7V67.2H111.588V67.7H112.088ZM118.32 67.472L118.544 67.9192H118.544L118.32 67.472ZM119.004 66.788L119.451 67.0116V67.0116L119.004 66.788ZM88.756 57.212L88.3491 56.9214L87.7844 57.712H88.756V57.212ZM89.82 55.768L90.22 56.068L90.2283 56.0569L90.236 56.0453L89.82 55.768ZM91.948 52.804L91.5411 52.5134L91.948 52.804ZM94.456 49.08L94.0398 48.8026L94.0333 48.813L94.456 49.08ZM98.104 42.24L98.5636 42.437L98.5718 42.4178L98.5783 42.3981L98.104 42.24ZM98.712 40.796L99.1592 41.0196L99.1685 41.001L99.1762 40.9817L98.712 40.796ZM99.7 38.288L100.199 38.3263L99.2257 38.1299L99.7 38.288ZM99.472 44.672L99.9695 44.7218L99.972 44.6969V44.672H99.472ZM99.32 57.212V57.712H99.82V57.212H99.32ZM119.732 59.036C119.732 58.4204 119.43 57.856 119.09 57.4316L118.31 58.0563C118.578 58.3919 118.732 58.7396 118.732 59.036H119.732ZM119.012 57.3536C118.588 57.014 118.024 56.712 117.408 56.712V57.712C117.704 57.712 118.052 57.8659 118.388 58.1344L119.012 57.3536ZM117.408 56.712H112.088V57.712H117.408V56.712ZM112.588 57.212V27.116H111.588V57.212H112.588ZM112.588 27.116C112.588 26.4914 112.278 25.9152 111.834 25.4704L111.126 26.1776C111.442 26.4928 111.588 26.8286 111.588 27.116H112.588ZM111.834 25.4704C111.389 25.0257 110.813 24.716 110.188 24.716V25.716C110.475 25.716 110.811 25.8623 111.126 26.1776L111.834 25.4704ZM110.188 24.716H98.636V25.716H110.188V24.716ZM98.636 24.716C98.1897 24.716 97.7766 24.8055 97.4189 25.0099C97.058 25.2161 96.7839 25.5221 96.5928 25.9044L97.4872 26.3516C97.6001 26.1259 97.744 25.9759 97.9151 25.8781C98.0894 25.7785 98.3223 25.716 98.636 25.716V24.716ZM96.6189 25.8584L76.4789 57.3224L77.3211 57.8616L97.4611 26.3976L96.6189 25.8584ZM76.4358 57.4063C76.2647 57.834 76.172 58.2772 76.172 58.656H77.172C77.172 58.4268 77.2313 58.11 77.3642 57.7777L76.4358 57.4063ZM76.172 58.656V65.8H77.172V58.656H76.172ZM76.172 65.8C76.172 66.4878 76.3463 67.1222 76.8917 67.5584L77.5163 66.7776C77.3017 66.6058 77.172 66.3282 77.172 65.8H76.172ZM76.8136 67.4803C77.2444 68.0189 77.8719 68.2 78.496 68.2V67.2C78.0561 67.2 77.7716 67.0771 77.5944 66.8557L76.8136 67.4803ZM78.496 68.2H99.32V67.2H78.496V68.2ZM98.82 67.7V79.1H99.82V67.7H98.82ZM98.82 79.1C98.82 79.7391 99.0081 80.3312 99.4984 80.8216L100.206 80.1144C99.9359 79.8448 99.82 79.5249 99.82 79.1H98.82ZM99.4616 80.7803C99.8924 81.3189 100.52 81.5 101.144 81.5V80.5C100.704 80.5 100.42 80.3771 100.242 80.1557L99.4616 80.7803ZM101.144 81.5H110.188V80.5H101.144V81.5ZM110.188 81.5C110.762 81.5 111.35 81.3051 111.834 80.8216L111.126 80.1144C110.85 80.3909 110.526 80.5 110.188 80.5V81.5ZM111.834 80.8216C112.288 80.3675 112.588 79.7902 112.588 79.1H111.588C111.588 79.4738 111.432 79.8085 111.126 80.1144L111.834 80.8216ZM112.588 79.1V67.7H111.588V79.1H112.588ZM112.088 68.2H117.408V67.2H112.088V68.2ZM117.408 68.2C117.798 68.2 118.178 68.1018 118.544 67.9192L118.096 67.0248C117.854 67.1462 117.626 67.2 117.408 67.2V68.2ZM118.544 67.9192C118.944 67.7188 119.251 67.4124 119.451 67.0116L118.557 66.5644C118.453 66.7716 118.304 66.9212 118.096 67.0248L118.544 67.9192ZM119.451 67.0116C119.638 66.6377 119.732 66.2571 119.732 65.8H118.732C118.732 66.1029 118.674 66.3303 118.557 66.5644L119.451 67.0116ZM119.732 65.8V59.036H118.732V65.8H119.732ZM88.756 57.212C89.1629 57.5026 89.1629 57.5026 89.1629 57.5026C89.1629 57.5026 89.1629 57.5026 89.1629 57.5026C89.1629 57.5026 89.1629 57.5026 89.1629 57.5026C89.1629 57.5025 89.163 57.5025 89.1631 57.5024C89.1632 57.5021 89.1635 57.5018 89.1638 57.5013C89.1645 57.5004 89.1655 57.4989 89.1669 57.4969C89.1698 57.493 89.174 57.487 89.1798 57.479C89.1913 57.4631 89.2085 57.4391 89.2314 57.4074C89.2772 57.344 89.3455 57.2497 89.4352 57.127C89.6146 56.8816 89.8793 56.5222 90.22 56.068L89.42 55.468C89.0767 55.9258 88.8094 56.2884 88.6278 56.537C88.537 56.6613 88.4676 56.757 88.4207 56.8219C88.3973 56.8543 88.3795 56.879 88.3675 56.8957C88.3616 56.904 88.357 56.9104 88.3539 56.9147C88.3524 56.9168 88.3512 56.9184 88.3504 56.9196C88.35 56.9201 88.3497 56.9206 88.3495 56.9209C88.3494 56.921 88.3493 56.9211 88.3492 56.9212C88.3492 56.9213 88.3492 56.9213 88.3492 56.9213C88.3492 56.9213 88.3492 56.9213 88.3491 56.9214C88.3491 56.9214 88.3491 56.9214 88.756 57.212ZM90.236 56.0453C90.8394 55.1403 91.5788 54.1811 92.3549 53.0946L91.5411 52.5134C90.7972 53.5549 90.0166 54.5717 89.404 55.4907L90.236 56.0453ZM92.3549 53.0946C93.119 52.0248 93.9606 50.8008 94.8787 49.347L94.0333 48.813C93.1274 50.2472 92.297 51.4552 91.5411 52.5134L92.3549 53.0946ZM94.872 49.3573C95.8004 47.9648 96.4949 46.6522 97.0312 45.5796L96.1368 45.1324C95.6091 46.1878 94.9356 47.4592 94.04 48.8027L94.872 49.3573ZM97.0312 45.5796C97.5545 44.5331 98.0999 43.519 98.5636 42.437L97.6444 42.043C97.1961 43.089 96.6775 44.0509 96.1368 45.1324L97.0312 45.5796ZM98.5783 42.3981C98.7214 41.9691 98.9394 41.4592 99.1592 41.0196L98.2648 40.5724C98.0286 41.0448 97.7907 41.5989 97.6297 42.0819L98.5783 42.3981ZM99.1762 40.9817C99.4688 40.2502 99.8644 39.376 100.174 38.4461L99.2257 38.1299C98.9276 39.024 98.5632 39.8218 98.2478 40.6103L99.1762 40.9817ZM99.2015 38.2496C99.0484 40.2401 98.972 42.3811 98.972 44.672H99.972C99.972 42.4029 100.048 40.2879 100.199 38.3263L99.2015 38.2496ZM98.9745 44.6222C98.8969 45.3981 98.82 46.5547 98.82 48.016H99.82C99.82 46.5893 99.8951 45.4659 99.9695 44.7218L98.9745 44.6222ZM98.82 48.016V57.212H99.82V48.016H98.82ZM99.32 56.712H88.756V57.712H99.32V56.712Z" fill="#1B7892"/>
</svg>
