<svg width="260" height="94" viewBox="0 0 260 94" fill="none" xmlns="http://www.w3.org/2000/svg">
<path d="M1.824 72.832C1.92 72.952 2.064 73 2.256 73H5.544C5.712 73 5.856 72.952 5.976 72.832C6.096 72.712 6.168 72.568 6.168 72.376V66.304H11.832V72.376C11.832 72.568 11.88 72.712 12 72.832C12.12 72.952 12.264 73 12.456 73H15.72C15.888 73 16.032 72.952 16.152 72.832C16.272 72.712 16.344 72.568 16.344 72.376V56.32C16.344 56.128 16.272 55.984 16.152 55.864C16.032 55.744 15.888 55.672 15.72 55.672H12.456C12.264 55.672 12.12 55.744 12 55.864C11.88 55.984 11.832 56.128 11.832 56.32V62.176H6.168V56.32C6.168 56.128 6.096 55.984 5.976 55.864C5.856 55.744 5.712 55.672 5.544 55.672H2.256C2.064 55.672 1.92 55.744 1.824 55.864C1.704 55.984 1.656 56.128 1.656 56.32V72.376C1.656 72.568 1.704 72.712 1.824 72.832ZM26.8971 59.344C27.4731 59.344 27.9771 59.464 28.3851 59.704C28.7691 59.944 29.0331 60.208 29.1291 60.544C29.3211 60.856 29.5851 61 29.9451 61H33.3051C33.4491 61 33.5691 60.952 33.6651 60.832C33.7611 60.736 33.8091 60.592 33.8091 60.448C33.7611 59.752 33.4731 59.032 32.9211 58.288C32.3691 57.544 31.5771 56.92 30.5451 56.416C29.5131 55.936 28.3131 55.672 26.9451 55.672C25.5531 55.672 24.3531 55.912 23.3451 56.344C22.3371 56.776 21.5451 57.4 20.9931 58.192C20.4411 58.984 20.1771 59.872 20.1771 60.88C20.1771 62.368 20.6571 63.496 21.6171 64.288C22.5771 65.104 23.9931 65.704 25.9131 66.088C27.8091 66.472 28.9611 66.856 29.3931 67.216C29.6331 67.456 29.7531 67.768 29.7531 68.176C29.7531 68.584 29.5131 68.92 29.0571 69.184C28.5771 69.448 27.9291 69.568 27.0651 69.568C25.7211 69.568 24.8091 69.136 24.3291 68.248C24.0651 67.96 23.7771 67.792 23.4651 67.792H20.2731C20.1291 67.792 19.9851 67.84 19.8891 67.936C19.7931 68.032 19.7451 68.176 19.7451 68.32C19.7691 69.184 20.0571 70 20.6331 70.744C21.1851 71.512 22.0011 72.112 23.1051 72.568C24.2091 73.024 25.4811 73.24 26.9691 73.24C28.4571 73.24 29.7531 73.024 30.8571 72.592C31.9611 72.16 32.8251 71.536 33.4491 70.72C34.0731 69.904 34.3851 68.968 34.3851 67.912C34.3851 66.856 34.1691 66.016 33.7371 65.344C33.3051 64.696 32.6571 64.168 31.7691 63.736C30.8811 63.328 29.6811 62.992 28.1931 62.704C26.8731 62.416 25.9851 62.152 25.5051 61.888C25.0251 61.624 24.7851 61.24 24.7851 60.76C24.7851 59.824 25.4811 59.344 26.8971 59.344ZM37.7375 72.808C37.8575 72.952 38.0015 73 38.1455 73H41.3615C41.5535 73 41.6975 72.952 41.8175 72.832C41.9135 72.712 41.9855 72.568 41.9855 72.376V66.472L46.5455 72.496C46.5935 72.64 46.7135 72.76 46.8575 72.856C47.0015 72.952 47.2175 73 47.5055 73H51.2495C51.3935 73 51.5375 72.952 51.6335 72.856C51.7295 72.76 51.7775 72.64 51.7775 72.496C51.7775 72.352 51.7295 72.256 51.6815 72.184L45.6335 63.976L51.2495 56.488C51.2975 56.44 51.3455 56.344 51.3455 56.2C51.3455 56.08 51.2735 55.96 51.1775 55.84C51.0815 55.744 50.9615 55.672 50.8175 55.672H47.1695C46.6895 55.672 46.3775 55.84 46.2095 56.176L41.9855 61.72V56.32C41.9855 56.152 41.9135 56.008 41.7935 55.864C41.6735 55.744 41.5295 55.672 41.3615 55.672H38.1455C37.9535 55.672 37.8095 55.744 37.7135 55.864C37.6175 56.008 37.5695 56.152 37.5695 56.32V72.376C37.5695 72.544 37.6175 72.688 37.7375 72.808Z" fill="#3B9FBE"/>
<path d="M77.232 75.1C77.232 75.632 77.384 76.088 77.764 76.468C78.068 76.848 78.524 77 79.056 77H109.152C109.608 77 110.064 76.848 110.444 76.468C110.824 76.088 111.052 75.632 111.052 75.1V67.956C111.052 67.5 110.824 67.044 110.444 66.664C110.064 66.36 109.608 66.132 109.152 66.132H100.64V23.116C100.64 22.66 100.412 22.204 100.032 21.824C99.652 21.444 99.196 21.216 98.74 21.216H90.608C90.304 21.216 90 21.292 89.696 21.444C86.2 23.496 82.78 24.864 79.436 25.624C78.98 25.7 78.6 25.928 78.372 26.232C78.068 26.612 77.992 26.992 77.992 27.448V31.476C77.992 32.008 78.144 32.464 78.524 32.844C78.828 33.224 79.284 33.376 79.816 33.376H87.872V66.132H79.056C78.524 66.132 78.068 66.36 77.764 66.664C77.384 67.044 77.232 67.5 77.232 68.032V75.1ZM147.893 61.42C147.893 58.836 149.413 56.252 152.529 53.516C156.101 58.304 160.357 62.712 165.221 66.664C162.333 68.564 159.597 69.476 157.013 69.476C154.277 69.476 152.073 68.792 150.401 67.272C148.729 65.752 147.893 63.852 147.893 61.42ZM153.517 33.984C153.517 31.932 153.973 30.26 155.037 29.044C156.101 27.828 157.469 27.144 159.141 27.144C161.953 27.144 163.397 28.816 163.397 32.008C163.397 33.908 162.713 35.58 161.345 37.024C159.977 38.544 158.077 39.988 155.569 41.508C154.201 38.696 153.517 36.188 153.517 33.984ZM189.617 68.944C186.805 68.488 183.461 67.12 179.661 64.916C183.841 59.292 187.033 52.832 189.161 45.612H179.053C177.533 50.932 175.253 55.72 172.137 59.9C167.349 56.252 163.321 52.376 159.977 48.196C161.801 46.98 163.321 45.84 164.461 44.928C165.601 44.016 166.817 42.8 168.185 41.432C169.477 40.064 170.465 38.544 171.073 36.948C171.681 35.428 172.061 33.756 172.061 31.932C172.061 28.284 170.845 25.32 168.489 23.04C166.133 20.836 162.941 19.696 158.989 19.696C154.581 19.696 151.009 21.14 148.273 23.876C145.537 26.612 144.245 30.032 144.245 33.984C144.245 37.632 145.385 41.736 147.817 46.144C144.473 48.272 141.889 50.552 140.065 52.984C138.165 55.492 137.253 58.532 137.253 62.104C137.253 66.664 138.849 70.464 142.193 73.504C145.461 76.544 149.945 78.064 155.645 78.064C162.105 78.064 167.881 76.088 172.897 72.136C177.457 75.024 182.169 77 186.881 78.064L189.617 68.944ZM249.895 77C250.731 77.076 251.339 76.848 251.795 76.24C252.251 75.632 252.403 75.1 252.403 74.492V68.64C252.403 67.956 252.099 67.348 251.643 66.892C251.187 66.436 250.579 66.132 249.895 66.132H227.475C228.083 65.068 228.919 64.156 230.059 63.32C231.123 62.56 232.719 61.572 234.771 60.356C236.823 59.216 238.951 57.848 241.155 56.328C243.283 54.808 245.031 53.288 246.323 51.844C247.539 50.476 248.375 49.488 248.831 48.956C252.783 44.016 253.543 38.316 251.111 31.856C249.211 26.916 245.487 23.344 239.863 21.216C238.039 20.608 235.455 20.228 232.111 20.228C227.399 20.228 223.219 21.52 219.647 24.028C217.063 25.928 215.011 28.284 213.567 31.096C213.187 31.78 213.111 32.464 213.415 33.148C213.719 33.908 214.175 34.364 214.935 34.592L219.799 36.492C220.103 36.644 220.407 36.644 220.711 36.644C221.623 36.644 222.383 36.264 222.915 35.352C224.739 32.084 227.931 30.412 232.491 30.412C233.327 30.412 234.239 30.64 235.303 31.02C237.279 31.78 238.799 33.148 239.787 34.972C240.775 36.796 241.003 38.696 240.395 40.596C240.091 41.508 239.331 42.648 237.963 44.168C236.595 45.688 234.923 47.132 232.871 48.576C228.615 51.16 225.119 53.668 222.307 55.948C217.139 60.204 214.327 65.448 214.023 71.528L213.871 74.264C213.795 75.024 214.023 75.708 214.555 76.24C215.011 76.772 215.619 77 216.379 77H249.895Z" fill="#6ACFED"/>
<path d="M81.764 80.468L82.1544 80.1557L82.1371 80.134L82.1176 80.1144L81.764 80.468ZM114.444 80.468L114.798 80.8216H114.798L114.444 80.468ZM114.444 70.664L114.798 70.3104L114.778 70.2909L114.756 70.2736L114.444 70.664ZM104.64 70.132H104.14V70.632H104.64V70.132ZM104.032 25.824L104.386 25.4704L104.032 25.824ZM93.696 25.444L93.4724 24.9968L93.4574 25.0043L93.4429 25.0128L93.696 25.444ZM83.436 29.624L83.5182 30.1172L83.5326 30.1148L83.5468 30.1116L83.436 29.624ZM82.372 30.232L82.7624 30.5443L82.7673 30.5382L82.772 30.532L82.372 30.232ZM82.524 36.844L82.9144 36.5317L82.8971 36.51L82.8776 36.4904L82.524 36.844ZM91.872 37.376H92.372V36.876H91.872V37.376ZM91.872 70.132V70.632H92.372V70.132H91.872ZM81.764 70.664L81.4104 70.3104H81.4104L81.764 70.664ZM80.732 79.1C80.732 79.7391 80.9201 80.3312 81.4104 80.8216L82.1176 80.1144C81.8479 79.8448 81.732 79.5249 81.732 79.1H80.732ZM81.3736 80.7803C81.8044 81.3189 82.4319 81.5 83.056 81.5V80.5C82.6161 80.5 82.3316 80.3771 82.1544 80.1557L81.3736 80.7803ZM83.056 81.5H113.152V80.5H83.056V81.5ZM113.152 81.5C113.726 81.5 114.314 81.3051 114.798 80.8216L114.09 80.1144C113.814 80.3909 113.49 80.5 113.152 80.5V81.5ZM114.798 80.8216C115.252 80.3675 115.552 79.7901 115.552 79.1H114.552C114.552 79.4739 114.396 79.8085 114.09 80.1144L114.798 80.8216ZM115.552 79.1V71.956H114.552V79.1H115.552ZM115.552 71.956C115.552 71.3314 115.242 70.7552 114.798 70.3104L114.09 71.0176C114.406 71.3328 114.552 71.6686 114.552 71.956H115.552ZM114.756 70.2736C114.332 69.9341 113.768 69.632 113.152 69.632V70.632C113.448 70.632 113.796 70.7859 114.132 71.0544L114.756 70.2736ZM113.152 69.632H104.64V70.632H113.152V69.632ZM105.14 70.132V27.116H104.14V70.132H105.14ZM105.14 27.116C105.14 26.4914 104.83 25.9152 104.386 25.4704L103.678 26.1776C103.994 26.4928 104.14 26.8286 104.14 27.116H105.14ZM104.386 25.4704C103.941 25.0257 103.365 24.716 102.74 24.716V25.716C103.027 25.716 103.363 25.8623 103.678 26.1776L104.386 25.4704ZM102.74 24.716H94.608V25.716H102.74V24.716ZM94.608 24.716C94.2176 24.716 93.8375 24.8142 93.4724 24.9968L93.9196 25.8912C94.1625 25.7698 94.3904 25.716 94.608 25.716V24.716ZM93.4429 25.0128C89.9863 27.0417 86.6139 28.389 83.3252 29.1364L83.5468 30.1116C86.9461 29.339 90.4137 27.9503 93.9491 25.8752L93.4429 25.0128ZM83.3538 29.1308C82.7866 29.2253 82.2861 29.5131 81.972 29.932L82.772 30.532C82.9139 30.3428 83.1734 30.1747 83.5182 30.1172L83.3538 29.1308ZM81.9816 29.9196C81.5828 30.4181 81.492 30.9237 81.492 31.448H82.492C82.492 31.0603 82.5532 30.8059 82.7624 30.5443L81.9816 29.9196ZM81.492 31.448V35.476H82.492V31.448H81.492ZM81.492 35.476C81.492 36.1151 81.6801 36.7072 82.1704 37.1976L82.8776 36.4904C82.6079 36.2208 82.492 35.9009 82.492 35.476H81.492ZM82.1336 37.1563C82.5644 37.6949 83.1919 37.876 83.816 37.876V36.876C83.3761 36.876 83.0916 36.7531 82.9144 36.5317L82.1336 37.1563ZM83.816 37.876H91.872V36.876H83.816V37.876ZM91.372 37.376V70.132H92.372V37.376H91.372ZM91.872 69.632H83.056V70.632H91.872V69.632ZM83.056 69.632C82.3791 69.632 81.7991 69.9218 81.4104 70.3104L82.1176 71.0176C82.3369 70.7982 82.6689 70.632 83.056 70.632V69.632ZM81.4104 70.3104C80.9201 70.8008 80.732 71.3929 80.732 72.032H81.732C81.732 71.6071 81.8479 71.2872 82.1176 71.0176L81.4104 70.3104ZM80.732 72.032V79.1H81.732V72.032H80.732ZM156.529 57.516L156.929 57.217L156.606 56.783L156.199 57.1403L156.529 57.516ZM169.221 70.664L169.495 71.0817L170.066 70.7065L169.536 70.2759L169.221 70.664ZM154.401 71.272L154.737 70.902L154.401 71.272ZM159.037 33.044L158.66 32.7147L159.037 33.044ZM165.345 41.024L164.982 40.68L164.973 40.6895L165.345 41.024ZM159.569 45.508L159.119 45.7267L159.359 46.2198L159.828 45.9356L159.569 45.508ZM193.617 72.944L194.096 73.0877L194.259 72.5417L193.697 72.4504L193.617 72.944ZM183.661 68.916L183.259 68.6177L182.925 69.0674L183.41 69.3485L183.661 68.916ZM193.161 49.612L193.64 49.7534L193.829 49.112H193.161V49.612ZM183.053 49.612V49.112H182.676L182.572 49.4746L183.053 49.612ZM176.137 63.9L175.834 64.2977L176.236 64.6039L176.538 64.1988L176.137 63.9ZM163.977 52.196L163.699 51.78L163.246 52.0825L163.586 52.5083L163.977 52.196ZM168.461 48.928L168.148 48.5376L168.461 48.928ZM172.185 45.432L172.538 45.7856L172.543 45.7805L172.548 45.7753L172.185 45.432ZM175.073 40.948L174.608 40.7623L174.605 40.77L175.073 40.948ZM172.489 27.04L172.836 26.6806L172.83 26.6749L172.489 27.04ZM152.273 27.876L151.919 27.5224L152.273 27.876ZM151.817 50.144L152.085 50.5658L152.481 50.3137L152.254 49.9025L151.817 50.144ZM144.065 56.984L144.463 57.2859L144.465 57.284L144.065 56.984ZM146.193 77.504L146.533 77.1379L146.529 77.134L146.193 77.504ZM176.897 76.136L177.164 75.7136L176.865 75.5242L176.587 75.7433L176.897 76.136ZM190.881 82.064L190.771 82.5517L191.226 82.6545L191.36 82.2077L190.881 82.064ZM152.393 65.42C152.393 63.048 153.786 60.5897 156.859 57.8917L156.199 57.1403C153.039 59.9143 151.393 62.624 151.393 65.42H152.393ZM156.128 57.815C159.726 62.6377 164.011 67.0753 168.905 71.0521L169.536 70.2759C164.702 66.3487 160.476 61.9703 156.929 57.217L156.128 57.815ZM168.946 70.2463C166.117 72.1076 163.475 72.976 161.013 72.976V73.976C163.719 73.976 166.549 73.0204 169.495 71.0817L168.946 70.2463ZM161.013 72.976C158.361 72.976 156.291 72.3149 154.737 70.902L154.064 71.642C155.854 73.2691 158.192 73.976 161.013 73.976V72.976ZM154.737 70.902C153.174 69.4813 152.393 67.7179 152.393 65.42H151.393C151.393 67.9861 152.283 70.0227 154.064 71.642L154.737 70.902ZM158.017 37.984C158.017 35.9995 158.458 34.4645 159.413 33.3732L158.66 32.7147C157.487 34.0555 157.017 35.8645 157.017 37.984H158.017ZM159.413 33.3732C160.389 32.2572 161.624 31.644 163.141 31.644V30.644C161.314 30.644 159.812 31.3988 158.66 32.7147L159.413 33.3732ZM163.141 31.644C164.445 31.644 165.354 32.0283 165.946 32.7076C166.549 33.3992 166.897 34.4778 166.897 36.008H167.897C167.897 34.3462 167.522 32.9928 166.7 32.0504C165.867 31.0957 164.648 30.644 163.141 30.644V31.644ZM166.897 36.008C166.897 37.7736 166.266 39.3242 164.982 40.6801L165.708 41.3679C167.159 39.8358 167.897 38.0424 167.897 36.008H166.897ZM164.973 40.6895C163.651 42.1581 161.797 43.5726 159.31 45.0804L159.828 45.9356C162.356 44.4034 164.302 42.9299 165.716 41.3585L164.973 40.6895ZM160.018 45.2893C158.67 42.5188 158.017 40.0873 158.017 37.984H157.017C157.017 40.2887 157.731 42.8732 159.119 45.7267L160.018 45.2893ZM193.697 72.4504C190.97 72.0083 187.686 70.6729 183.912 68.4835L183.41 69.3485C187.235 71.5671 190.639 72.9677 193.537 73.4376L193.697 72.4504ZM184.062 69.2143C188.279 63.5402 191.497 57.0265 193.64 49.7534L192.681 49.4706C190.569 56.6375 187.402 63.0438 183.259 68.6177L184.062 69.2143ZM193.161 49.112H183.053V50.112H193.161V49.112ZM182.572 49.4746C181.067 54.7433 178.812 59.4751 175.736 63.6012L176.538 64.1988C179.694 59.9649 181.999 55.1207 183.533 49.7494L182.572 49.4746ZM176.44 63.5023C171.68 59.876 167.683 56.028 164.367 51.8837L163.586 52.5083C166.959 56.724 171.017 60.628 175.834 64.2977L176.44 63.5023ZM164.254 52.612C166.091 51.3873 167.623 50.2386 168.773 49.3184L168.148 48.5376C167.019 49.4414 165.51 50.5727 163.699 51.78L164.254 52.612ZM168.773 49.3184C169.939 48.3855 171.176 47.1473 172.538 45.7856L171.831 45.0784C170.457 46.4527 169.262 47.6465 168.148 48.5376L168.773 49.3184ZM172.548 45.7753C173.879 44.3661 174.906 42.7913 175.54 41.126L174.605 40.77C174.024 42.2967 173.074 43.7619 171.821 45.0887L172.548 45.7753ZM175.537 41.1337C176.166 39.5621 176.561 37.8272 176.561 35.932H175.561C175.561 37.6848 175.196 39.2939 174.608 40.7623L175.537 41.1337ZM176.561 35.932C176.561 32.1612 175.298 29.0633 172.836 26.6807L172.141 27.3993C174.391 29.5767 175.561 32.4068 175.561 35.932H176.561ZM172.83 26.6749C170.363 24.3672 167.04 23.196 162.989 23.196V24.196C166.841 24.196 169.902 25.3048 172.147 27.4051L172.83 26.6749ZM162.989 23.196C158.461 23.196 154.758 24.6838 151.919 27.5224L152.626 28.2295C155.26 25.5962 158.7 24.196 162.989 24.196V23.196ZM151.919 27.5224C149.08 30.3612 147.745 33.9127 147.745 37.984H148.745C148.745 34.1513 149.993 30.8628 152.626 28.2295L151.919 27.5224ZM147.745 37.984C147.745 41.7359 148.917 45.9226 151.379 50.3855L152.254 49.9025C149.853 45.5493 148.745 41.5281 148.745 37.984H147.745ZM151.548 49.7222C148.168 51.8732 145.534 54.1916 143.665 56.684L144.465 57.284C146.243 54.9124 148.777 52.6708 152.085 50.5658L151.548 49.7222ZM143.666 56.6821C141.689 59.2915 140.753 62.4427 140.753 66.104H141.753C141.753 62.6213 142.64 59.6925 144.463 57.2859L143.666 56.6821ZM140.753 66.104C140.753 70.7972 142.403 74.7342 145.856 77.874L146.529 77.134C143.295 74.1938 141.753 70.5308 141.753 66.104H140.753ZM145.852 77.8701C149.236 81.0181 153.855 82.564 159.645 82.564V81.564C154.035 81.564 149.685 80.0699 146.533 77.1379L145.852 77.8701ZM159.645 82.564C166.215 82.564 172.1 80.5515 177.206 76.5287L176.587 75.7433C171.661 79.6245 165.995 81.564 159.645 81.564V82.564ZM176.629 76.5584C181.234 79.4746 185.998 81.4741 190.771 82.5517L190.991 81.5763C186.339 80.5259 181.68 78.5734 177.164 75.7136L176.629 76.5584ZM191.36 82.2077L194.096 73.0877L193.138 72.8003L190.402 81.9203L191.36 82.2077ZM253.895 81L253.94 80.5021L253.918 80.5H253.895V81ZM255.795 80.24L255.395 79.94L255.795 80.24ZM255.643 70.892L255.997 70.5384L255.643 70.892ZM231.475 70.132L231.041 69.8839L230.613 70.632H231.475V70.132ZM234.059 67.32L233.768 66.9131L233.763 66.9168L234.059 67.32ZM238.771 64.356L238.528 63.9188L238.516 63.9259L238.771 64.356ZM245.155 60.328L245.439 60.7397L245.446 60.7349L245.155 60.328ZM250.323 55.844L250.696 56.1774L250.697 56.1762L250.323 55.844ZM252.831 52.956L253.211 53.2814L253.216 53.275L253.221 53.2683L252.831 52.956ZM255.111 35.856L255.579 35.6798L255.578 35.6765L255.111 35.856ZM243.863 25.216L244.04 24.7484L244.031 24.7448L244.021 24.7417L243.863 25.216ZM223.647 28.028L223.36 27.6187L223.351 27.6252L223.647 28.028ZM217.567 35.096L218.004 35.3388L218.008 35.3317L218.012 35.3244L217.567 35.096ZM217.415 37.148L217.879 36.9623L217.876 36.9535L217.872 36.9449L217.415 37.148ZM218.935 38.592L219.117 38.1263L219.098 38.1189L219.079 38.1131L218.935 38.592ZM223.799 40.492L224.023 40.0448L224.002 40.0346L223.981 40.0263L223.799 40.492ZM226.915 39.352L227.347 39.604L227.352 39.5957L226.915 39.352ZM239.303 35.02L239.483 34.5532L239.471 34.5491L239.303 35.02ZM243.787 38.972L244.227 38.7339L243.787 38.972ZM244.395 44.596L244.869 44.7541L244.871 44.7484L244.395 44.596ZM241.963 48.168L241.591 47.8335L241.963 48.168ZM236.871 52.576L237.13 53.0034L237.145 52.9946L237.159 52.9849L236.871 52.576ZM226.307 59.948L225.992 59.5596L225.989 59.562L226.307 59.948ZM218.023 75.528L218.522 75.5557L218.522 75.553L218.023 75.528ZM217.871 78.264L218.369 78.3138L218.37 78.3028L218.37 78.2917L217.871 78.264ZM218.555 80.24L218.935 79.9146L218.922 79.9L218.909 79.8864L218.555 80.24ZM253.85 81.4979C254.322 81.5409 254.766 81.5012 255.171 81.3417C255.58 81.1804 255.918 80.909 256.195 80.54L255.395 79.94C255.216 80.179 255.022 80.3256 254.804 80.4113C254.582 80.4988 254.304 80.5351 253.94 80.5021L253.85 81.4979ZM256.195 80.54C256.716 79.8455 256.903 79.2082 256.903 78.492H255.903C255.903 78.9918 255.786 79.4185 255.395 79.94L256.195 80.54ZM256.903 78.492V72.64H255.903V78.492H256.903ZM256.903 72.64C256.903 71.8015 256.53 71.0715 255.997 70.5384L255.289 71.2456C255.668 71.6245 255.903 72.1105 255.903 72.64H256.903ZM255.997 70.5384C255.463 70.0054 254.733 69.632 253.895 69.632V70.632C254.425 70.632 254.911 70.8666 255.289 71.2456L255.997 70.5384ZM253.895 69.632H231.475V70.632H253.895V69.632ZM231.909 70.3801C232.478 69.3851 233.263 68.5237 234.355 67.7232L233.763 66.9168C232.575 67.7883 231.688 68.7509 231.041 69.8839L231.909 70.3801ZM234.35 67.7269C235.394 66.9806 236.974 66.0023 239.026 64.7861L238.516 63.9259C236.464 65.1417 234.852 66.1394 233.768 66.9131L234.35 67.7269ZM239.014 64.7931C241.085 63.6425 243.227 62.2648 245.439 60.7396L244.871 59.9164C242.675 61.4312 240.561 62.7895 238.528 63.9189L239.014 64.7931ZM245.446 60.7349C247.594 59.2 249.373 57.6561 250.696 56.1774L249.95 55.5106C248.689 56.9199 246.972 58.416 244.864 59.9211L245.446 60.7349ZM250.697 56.1762C251.916 54.804 252.756 53.8118 253.211 53.2814L252.451 52.6306C251.994 53.1642 251.162 54.148 249.949 55.5118L250.697 56.1762ZM253.221 53.2683C257.295 48.1761 258.066 42.2868 255.579 35.6798L254.643 36.0322C257.02 42.3452 256.271 47.8559 252.441 52.6437L253.221 53.2683ZM255.578 35.6765C253.621 30.5881 249.781 26.9206 244.04 24.7484L243.686 25.6836C249.193 27.7674 252.801 31.2439 254.644 36.0355L255.578 35.6765ZM244.021 24.7417C242.129 24.111 239.487 23.728 236.111 23.728V24.728C239.423 24.728 241.949 25.105 243.705 25.6903L244.021 24.7417ZM236.111 23.728C231.303 23.728 227.021 25.0481 223.36 27.6188L223.934 28.4372C227.417 25.9919 231.495 24.728 236.111 24.728V23.728ZM223.351 27.6252C220.708 29.5684 218.604 31.9829 217.122 34.8676L218.012 35.3244C219.418 32.5851 221.418 30.2876 223.943 28.4308L223.351 27.6252ZM217.13 34.8532C216.688 35.6483 216.579 36.4982 216.958 37.3511L217.872 36.9449C217.643 36.4297 217.686 35.9117 218.004 35.3388L217.13 34.8532ZM216.951 37.3337C217.122 37.7618 217.347 38.1314 217.657 38.4299C217.97 38.7302 218.347 38.9375 218.791 39.0709L219.079 38.1131C218.763 38.0184 218.532 37.8837 218.351 37.7091C218.167 37.5326 218.012 37.2942 217.879 36.9623L216.951 37.3337ZM218.753 39.0577L223.617 40.9577L223.981 40.0263L219.117 38.1263L218.753 39.0577ZM223.575 40.9392C224 41.1513 224.42 41.144 224.711 41.144V40.144C224.394 40.144 224.206 40.1367 224.023 40.0448L223.575 40.9392ZM224.711 41.144C225.795 41.144 226.722 40.6747 227.347 39.6039L226.483 39.1001C226.044 39.8533 225.451 40.144 224.711 40.144V41.144ZM227.352 39.5957C229.068 36.5201 232.069 34.912 236.491 34.912V33.912C231.793 33.912 228.41 35.6479 226.478 39.1083L227.352 39.5957ZM236.491 34.912C237.241 34.912 238.089 35.1173 239.135 35.4909L239.471 34.5491C238.389 34.1627 237.413 33.912 236.491 33.912V34.912ZM239.124 35.4867C240.986 36.2028 242.415 37.4882 243.347 39.2101L244.227 38.7339C243.183 36.8078 241.572 35.3572 239.482 34.5533L239.124 35.4867ZM243.347 39.2101C244.277 40.9256 244.482 42.685 243.919 44.4436L244.871 44.7484C245.524 42.707 245.273 40.6664 244.227 38.7339L243.347 39.2101ZM243.921 44.4379C243.651 45.2479 242.949 46.3245 241.591 47.8335L242.335 48.5025C243.713 46.9715 244.531 45.7681 244.869 44.7541L243.921 44.4379ZM241.591 47.8335C240.254 49.3198 238.612 50.7396 236.583 52.1671L237.159 52.9849C239.234 51.5244 240.936 50.0562 242.335 48.5025L241.591 47.8335ZM236.612 52.1486C232.337 54.744 228.822 57.265 225.992 59.5596L226.622 60.3364C229.416 58.071 232.893 55.576 237.13 53.0034L236.612 52.1486ZM225.989 59.562C220.726 63.8962 217.835 69.2658 217.524 75.503L218.522 75.553C218.819 69.6302 221.552 64.5118 226.625 60.334L225.989 59.562ZM217.524 75.5003L217.372 78.2363L218.37 78.2917L218.522 75.5557L217.524 75.5003ZM217.373 78.2142C217.283 79.1141 217.557 79.949 218.201 80.5936L218.909 79.8864C218.489 79.467 218.307 78.9339 218.369 78.3138L217.373 78.2142ZM218.175 80.5654C218.747 81.2322 219.508 81.5 220.379 81.5V80.5C219.73 80.5 219.275 80.3118 218.935 79.9146L218.175 80.5654ZM220.379 81.5H253.895V80.5H220.379V81.5Z" fill="#1B7892"/>
</svg>
