<svg width="49" height="40" viewBox="0 0 49 40" fill="none" xmlns="http://www.w3.org/2000/svg">
<path d="M26.5564 33.2213L15.0136 35.6184C17.1189 31.9887 15.2267 27.7793 13.6109 25.7314C12.1086 23.4759 6.48417 16.4245 6.24429 16.1238C6.22983 16.1059 6.21538 16.0885 6.20007 16.0719C3.41634 13.0096 2.39046 10.2412 2.26414 9.87836C1.99406 8.58112 2.12208 7.58077 2.64523 6.9045C3.20963 6.17508 4.14235 5.92456 4.63104 5.84077C4.65316 5.83822 4.67571 5.83524 4.69825 5.83141L4.76332 5.82036C4.88581 5.80334 4.95727 5.79995 4.95216 5.79995C5.8262 5.79995 6.46376 6.0445 6.90184 6.54808C7.77163 7.54759 7.73164 9.41901 7.64317 10.0532C7.59383 10.3921 7.71123 10.7341 7.95792 10.9719C8.20461 11.2096 8.55038 11.313 8.88809 11.2517L22.6217 8.72744C23.6574 10.5057 26.6691 15.5628 29.8854 19.8964C30.0942 20.1775 30.4149 20.326 30.7403 20.326C30.9606 20.326 31.1826 20.2579 31.3731 20.1163C31.8444 19.7662 31.9431 19.1002 31.5935 18.6285C28.7702 14.8257 26.1043 10.4462 24.847 8.31785L29.3886 7.48336C29.7114 7.42382 29.9883 7.21924 30.1397 6.92789C30.2503 6.71566 31.2009 4.79661 30.574 2.84056C30.218 1.73047 29.4435 0.865367 28.273 0.270342C28.0535 0.158908 27.199 -0.182202 25.402 0.126156L4.34013 3.73501C4.32439 3.73756 4.30908 3.74054 4.29377 3.74394C3.45801 3.886 1.97535 4.31217 0.98052 5.58218C0.0346045 6.78966 -0.228678 8.40505 0.198345 10.3832C0.205575 10.416 0.214081 10.4479 0.223863 10.4798C0.267246 10.6159 1.31439 13.8474 4.60425 17.4763C4.99045 17.9607 10.4967 24.8748 11.8641 26.9431C11.8815 26.9695 11.9002 26.995 11.9198 27.0201C12.0976 27.243 16.2138 32.508 11.7743 36.1598C11.5876 36.2717 10.5566 36.8493 9.59242 36.6375C9.02972 36.5133 8.56358 36.1347 8.16675 35.4806C8.15824 35.467 7.4101 34.1617 7.86519 32.5178L12.4604 31.2818C13.0273 31.1295 13.3637 30.546 13.2111 29.9791C13.0588 29.4117 12.4757 29.0761 11.9083 29.2284L6.76957 30.6107C6.45015 30.6966 6.18858 30.9262 6.06269 31.2325C4.87859 34.1064 6.28895 36.4848 6.34935 36.5843C7.05325 37.745 7.99024 38.4612 9.13435 38.7139C9.44569 38.7828 9.75192 38.8117 10.0471 38.8117C10.7927 38.8117 11.4664 38.625 11.9832 38.4204L26.9911 35.3036C27.5661 35.1841 27.9353 34.6214 27.8158 34.046C27.6941 33.4714 27.1323 33.1047 26.5564 33.2213ZM25.7602 2.22172C26.7737 2.04819 27.2573 2.16047 27.3496 2.18726C29.0368 3.07406 28.7434 4.6686 28.4457 5.49372L9.80254 8.92052C9.75618 7.81852 9.49291 6.30226 8.52658 5.17473L25.7602 2.22172Z" fill="#969CA0"/>
<path d="M21.7954 12.6223C21.6878 12.0451 21.1328 11.6636 20.5556 11.7712L9.11827 13.8978C8.54111 14.005 8.16003 14.5605 8.26722 15.1376C8.36249 15.6493 8.80907 16.0066 9.31137 16.0066C9.37602 16.0066 9.44152 16.0006 9.50702 15.9887L20.9443 13.8621C21.5215 13.7549 21.9026 13.1995 21.7954 12.6223Z" fill="#969CA0"/>
<path d="M24.1425 15.767C24.0353 15.1898 23.4799 14.8087 22.9027 14.9159L11.4654 17.0425C10.8882 17.1497 10.5071 17.7051 10.6143 18.2823C10.7096 18.794 11.1562 19.1512 11.6585 19.1512C11.7231 19.1512 11.7886 19.1453 11.8541 19.1334L23.2914 17.0068C23.869 16.8996 24.2497 16.3441 24.1425 15.767Z" fill="#969CA0"/>
<path d="M21.752 18.6223L14.3051 20.0071C13.7279 20.1143 13.3468 20.6698 13.454 21.247C13.5493 21.7586 13.9959 22.1159 14.4982 22.1159C14.5628 22.1159 14.6283 22.1099 14.6938 22.098L22.1408 20.7132C22.7179 20.606 23.099 20.0505 22.9918 19.4734C22.8847 18.8962 22.3292 18.5147 21.752 18.6223Z" fill="#969CA0"/>
<path d="M37.7535 18.6042C31.8777 18.6042 27.0967 23.3849 27.0967 29.2615C27.0967 35.1382 31.8773 39.9188 37.7535 39.9188C43.6298 39.9188 48.4108 35.1382 48.4108 29.2615C48.4108 23.3849 43.6302 18.6042 37.7535 18.6042ZM37.7535 37.7922C33.0499 37.7922 29.2233 33.9656 29.2233 29.2615C29.2233 24.5575 33.0499 20.7309 37.7535 20.7309C42.4576 20.7309 46.2842 24.5575 46.2842 29.2615C46.2842 33.9656 42.4576 37.7922 37.7535 37.7922Z" fill="#969CA0"/>
<path d="M40.2065 34.0704L40.042 34.7433C39.5486 34.9377 39.1548 35.0847 38.8607 35.1844C38.5667 35.2891 38.2252 35.3414 37.8365 35.3414C37.2384 35.3414 36.7723 35.1968 36.4384 34.9078C36.1094 34.6137 35.945 34.2424 35.945 33.7938C35.945 33.6193 35.9574 33.4424 35.9823 33.263C36.0073 33.0785 36.0471 32.8717 36.102 32.6424L36.715 30.4593C36.7698 30.25 36.8147 30.0531 36.8496 29.8687C36.8895 29.6793 36.9094 29.5073 36.9094 29.3528C36.9094 29.0737 36.8521 28.8793 36.7374 28.7697C36.6228 28.66 36.4035 28.6052 36.0795 28.6052C35.92 28.6052 35.7556 28.6301 35.5861 28.68C35.4216 28.7298 35.2796 28.7771 35.1599 28.822L35.3244 28.1491C35.7281 27.9847 36.1144 27.8451 36.4833 27.7305C36.8521 27.6108 37.201 27.551 37.5299 27.551C38.1231 27.551 38.5791 27.6956 38.8981 27.9847C39.2221 28.2688 39.3841 28.6401 39.3841 29.0986C39.3841 29.1933 39.3716 29.3603 39.3467 29.5995C39.3268 29.8388 39.2869 30.0581 39.2271 30.2575L38.614 32.4331C38.5642 32.6075 38.5193 32.8069 38.4794 33.0312C38.4396 33.2555 38.4196 33.4249 38.4196 33.5396C38.4196 33.8287 38.4844 34.0255 38.614 34.1302C38.7436 34.2349 38.9679 34.2872 39.2869 34.2872C39.4364 34.2872 39.6059 34.2623 39.7953 34.2125C39.9847 34.1576 40.1217 34.1103 40.2065 34.0704ZM40.3635 24.9418C40.3635 25.3206 40.2189 25.6446 39.9299 25.9137C39.6458 26.1779 39.3018 26.3099 38.8981 26.3099C38.4944 26.3099 38.148 26.1779 37.8589 25.9137C37.5698 25.6446 37.4253 25.3206 37.4253 24.9418C37.4253 24.563 37.5698 24.239 37.8589 23.9698C38.148 23.7007 38.4944 23.5661 38.8981 23.5661C39.3018 23.5661 39.6458 23.7007 39.9299 23.9698C40.2189 24.239 40.3635 24.563 40.3635 24.9418Z" fill="#969CA0"/>
</svg>
