<svg width="45" height="48" viewBox="0 0 45 48" fill="none" xmlns="http://www.w3.org/2000/svg">
<mask id="path-1-inside-1" fill="white">
<path d="M42.417 10.8597C40.6281 8.55141 38.5385 7.30974 36.2048 7.16906C36.1239 7.1641 36.0455 7.16906 35.9654 7.16699C34.8948 1.92059 30.3607 0.499756 28.0034 0.499756C25.6149 0.499756 23.8527 1.06701 22.7647 2.18498C22.7589 2.19118 22.7539 2.19698 22.7481 2.20318C22.7423 2.19698 22.7377 2.19118 22.7315 2.18498C21.6435 1.0666 19.8812 0.499756 17.4928 0.499756C15.1354 0.499756 10.6009 1.921 9.53033 7.16699C9.45025 7.16906 9.37182 7.16451 9.29091 7.16906C6.95725 7.30974 4.86758 8.55141 3.06172 10.8825C2.91691 11.0807 -0.462011 15.8 1.74468 21.4986C1.79904 21.6331 2.90363 24.2902 5.2236 25.6618C4.2381 26.8782 3.43849 28.9019 3.90904 32.2124C3.93643 32.4201 4.63727 37.3156 9.0187 38.9868C9.13779 39.0331 9.83656 39.29 10.8138 39.3645C10.6304 41.7788 11.4756 45.4426 15.7794 47.062C15.8691 47.0951 16.9932 47.5002 18.428 47.4998C19.7949 47.4998 21.4443 47.1319 22.7476 45.7256C24.051 47.1319 25.6996 47.4998 27.0668 47.4998C28.5025 47.4998 29.6291 47.0943 29.7208 47.0603C34.0284 45.4397 34.8683 41.7651 34.6803 39.3513C35.6226 39.2636 36.2757 39.0149 36.3193 38.9971C40.6314 37.3528 41.3194 32.5463 41.3452 32.3514C41.7352 29.6032 41.0423 27.4178 40.0173 25.807C42.5124 24.4876 43.6946 21.6368 43.756 21.4854C45.9581 15.8 42.5788 11.0803 42.417 10.8597ZM21.2737 44.2671L21.2364 44.308C19.5148 46.1836 16.5276 45.1318 16.5073 45.1248C12.7341 43.7048 12.7769 40.384 12.9267 39.1841C12.9723 39.1721 13.0176 39.1638 13.0636 39.1506C13.6142 38.993 13.9329 38.4203 13.7748 37.8713C13.6171 37.3218 13.0424 37.0057 12.4918 37.1617C11.0997 37.5589 9.78968 37.0661 9.76893 37.0582C6.54521 35.8286 5.97092 31.9757 5.9647 31.9314C5.2402 26.8331 8.05935 25.9858 8.20583 25.9452C8.75563 25.8075 9.09339 25.2534 8.96144 24.7019C8.82824 24.1466 8.27055 23.8036 7.71162 23.936C7.7 23.9389 7.41742 24.0122 7.00994 24.2166C4.83147 23.4904 3.68082 20.7522 3.67502 20.7394C1.8895 16.1285 4.62317 12.2615 4.7211 12.1246C6.12403 10.314 7.69958 9.34168 9.4046 9.23493C11.8723 9.08309 14.0516 10.7406 14.8085 11.3931C13.8856 13.3245 14.2292 14.9721 14.2533 15.0796C14.3611 15.56 14.7869 15.8827 15.2612 15.8827C15.333 15.8827 15.4064 15.8753 15.4798 15.86C16.0359 15.7425 16.3923 15.1947 16.2807 14.639C16.2579 14.5256 15.7608 11.8341 19.1243 9.73103C19.6098 9.42733 19.7563 8.78932 19.4521 8.30523C19.1472 7.82114 18.5073 7.67467 18.0222 7.97836C17.1666 8.51335 16.4981 9.0864 15.9753 9.66607C15.1641 8.99455 13.5827 7.87699 11.6042 7.39331C12.691 2.66824 17.2911 2.57018 17.4932 2.56853C20.7833 2.56853 21.6924 3.8313 21.7107 4.58268V6.37217H20.7447C20.1717 6.37217 19.7073 6.83516 19.7073 7.40656C19.7073 7.97795 20.1717 8.44094 20.7447 8.44094H21.7103V10.82H19.3961C18.8231 10.82 18.3587 11.283 18.3587 11.8544C18.3587 12.4258 18.8231 12.8888 19.3961 12.8888H21.7103V15.6763H20.6721C20.099 15.6763 19.6347 16.1393 19.6347 16.7106C19.6347 17.282 20.099 17.745 20.6721 17.745H21.7103V25.0424H15.7126L13.6483 22.4122C14.0719 21.8317 14.3255 21.12 14.3255 20.3488C14.3255 18.4095 12.7433 16.8319 10.7984 16.8319C8.85355 16.8319 7.27136 18.4095 7.27136 20.3488C7.27136 22.2881 8.85355 23.8657 10.7984 23.8657C11.2167 23.8657 11.6167 23.7887 11.9893 23.6551L14.1699 26.4339V30.0873C12.8694 30.6058 11.947 31.8723 11.947 33.3523C11.947 35.2915 13.5292 36.8692 15.474 36.8692C17.4189 36.8692 19.0011 35.2915 19.0011 33.3523C19.0011 31.6774 17.8197 30.2747 16.2446 29.9226V27.1112H21.7103V42.4838C21.7103 43.6593 21.3489 44.1732 21.2737 44.2671ZM15.4736 31.9037C16.2745 31.9037 16.9259 32.5533 16.9259 33.3518C16.9259 34.1504 16.2745 34.8 15.4736 34.8C14.6728 34.8 14.0213 34.1504 14.0213 33.3518C14.0213 32.5533 14.6732 31.9037 15.4736 31.9037ZM10.7984 21.7969C9.99756 21.7969 9.3461 21.1473 9.3461 20.3488C9.3461 19.5502 9.99756 18.9007 10.7984 18.9007C11.5993 18.9007 12.2507 19.5502 12.2507 20.3488C12.2507 21.1473 11.5988 21.7969 10.7984 21.7969ZM41.8277 20.7228C41.8165 20.7505 40.7335 23.3361 38.6787 24.1524C38.021 23.5078 37.3534 23.0461 36.8077 22.7721C36.2961 22.5156 35.6786 22.7204 35.4189 23.2273C35.1595 23.7345 35.362 24.3564 35.8695 24.6175C36.0401 24.7052 40.0348 26.8253 39.2899 32.0696C39.2849 32.1073 38.7505 35.8551 35.5703 37.0678C35.5542 37.0744 33.9222 37.6851 32.3848 36.9627C31.3503 36.4765 30.5515 35.4752 30.0017 33.9961C31.1105 32.4379 31.3196 30.8097 31.3329 30.6964C31.3993 30.1291 30.9918 29.6152 30.4229 29.549C29.8532 29.4882 29.3391 29.8887 29.2723 30.4564C29.2685 30.4891 28.8507 33.7503 25.6784 34.5935C25.1249 34.7408 24.7958 35.3081 24.9435 35.86C25.0676 36.3226 25.4871 36.628 25.9452 36.628C26.034 36.628 26.1241 36.6164 26.2133 36.5928C27.0901 36.3598 27.8175 36.0007 28.4221 35.5745C29.1661 37.1311 30.2047 38.235 31.5308 38.8482C31.8827 39.0108 32.2329 39.1274 32.5765 39.2106C32.7321 40.4266 32.7686 43.7019 28.9972 45.1211C28.9677 45.1314 25.9805 46.1836 24.2593 44.3076L24.2688 44.3035L24.2203 44.2646C24.1423 44.1661 23.7854 43.6514 23.7854 42.4834V24.008H30.7939L33.2956 20.8205C33.7255 21.0071 34.1994 21.1118 34.6973 21.1118C36.6422 21.1118 38.2243 19.5341 38.2243 17.5948C38.2243 15.6556 36.6422 14.0779 34.6973 14.0779C32.7524 14.0779 31.1702 15.6556 31.1702 17.5948C31.1702 18.2854 31.3736 18.928 31.7196 19.4716L29.7831 21.9393H23.785V17.7446H24.7178C25.2909 17.7446 25.7552 17.2816 25.7552 16.7102C25.7552 16.1388 25.2909 15.6758 24.7178 15.6758H23.785V12.8884H26.139C26.712 12.8884 27.1764 12.4254 27.1764 11.854C27.1764 11.2826 26.712 10.8196 26.139 10.8196H23.785V8.44053H24.7904C25.3635 8.44053 25.8278 7.97754 25.8278 7.40614C25.8278 6.83475 25.3635 6.37176 24.7904 6.37176H23.785V4.58392C23.785 4.58103 23.785 4.57937 23.785 4.57565C23.8045 3.82965 24.7137 2.5677 28.003 2.5677C28.2088 2.5677 32.8035 2.62852 33.8919 7.39083C31.0491 8.08222 29.0328 10.0898 28.9275 10.1961C28.5254 10.602 28.5299 11.2549 28.9362 11.6562C29.3424 12.058 29.9993 12.0547 30.4022 11.6504C30.4279 11.6244 33.0392 9.04709 36.0907 9.23411C37.7953 9.34086 39.3713 10.3132 40.7572 12.101C40.7866 12.1407 43.6195 16.0954 41.8277 20.7228ZM33.245 17.5948C33.245 16.7963 33.8964 16.1467 34.6973 16.1467C35.4981 16.1467 36.1496 16.7963 36.1496 17.5948C36.1496 18.3934 35.4981 19.043 34.6973 19.043C34.4205 19.043 34.1641 18.9611 33.9437 18.8266C33.8848 18.7401 33.8159 18.6586 33.7288 18.5903C33.6749 18.5485 33.618 18.5134 33.5595 18.484C33.3657 18.2378 33.245 17.9312 33.245 17.5948Z"/>
</mask>
<path d="M42.417 10.8597C40.6281 8.55141 38.5385 7.30974 36.2048 7.16906C36.1239 7.1641 36.0455 7.16906 35.9654 7.16699C34.8948 1.92059 30.3607 0.499756 28.0034 0.499756C25.6149 0.499756 23.8527 1.06701 22.7647 2.18498C22.7589 2.19118 22.7539 2.19698 22.7481 2.20318C22.7423 2.19698 22.7377 2.19118 22.7315 2.18498C21.6435 1.0666 19.8812 0.499756 17.4928 0.499756C15.1354 0.499756 10.6009 1.921 9.53033 7.16699C9.45025 7.16906 9.37182 7.16451 9.29091 7.16906C6.95725 7.30974 4.86758 8.55141 3.06172 10.8825C2.91691 11.0807 -0.462011 15.8 1.74468 21.4986C1.79904 21.6331 2.90363 24.2902 5.2236 25.6618C4.2381 26.8782 3.43849 28.9019 3.90904 32.2124C3.93643 32.4201 4.63727 37.3156 9.0187 38.9868C9.13779 39.0331 9.83656 39.29 10.8138 39.3645C10.6304 41.7788 11.4756 45.4426 15.7794 47.062C15.8691 47.0951 16.9932 47.5002 18.428 47.4998C19.7949 47.4998 21.4443 47.1319 22.7476 45.7256C24.051 47.1319 25.6996 47.4998 27.0668 47.4998C28.5025 47.4998 29.6291 47.0943 29.7208 47.0603C34.0284 45.4397 34.8683 41.7651 34.6803 39.3513C35.6226 39.2636 36.2757 39.0149 36.3193 38.9971C40.6314 37.3528 41.3194 32.5463 41.3452 32.3514C41.7352 29.6032 41.0423 27.4178 40.0173 25.807C42.5124 24.4876 43.6946 21.6368 43.756 21.4854C45.9581 15.8 42.5788 11.0803 42.417 10.8597ZM21.2737 44.2671L21.2364 44.308C19.5148 46.1836 16.5276 45.1318 16.5073 45.1248C12.7341 43.7048 12.7769 40.384 12.9267 39.1841C12.9723 39.1721 13.0176 39.1638 13.0636 39.1506C13.6142 38.993 13.9329 38.4203 13.7748 37.8713C13.6171 37.3218 13.0424 37.0057 12.4918 37.1617C11.0997 37.5589 9.78968 37.0661 9.76893 37.0582C6.54521 35.8286 5.97092 31.9757 5.9647 31.9314C5.2402 26.8331 8.05935 25.9858 8.20583 25.9452C8.75563 25.8075 9.09339 25.2534 8.96144 24.7019C8.82824 24.1466 8.27055 23.8036 7.71162 23.936C7.7 23.9389 7.41742 24.0122 7.00994 24.2166C4.83147 23.4904 3.68082 20.7522 3.67502 20.7394C1.8895 16.1285 4.62317 12.2615 4.7211 12.1246C6.12403 10.314 7.69958 9.34168 9.4046 9.23493C11.8723 9.08309 14.0516 10.7406 14.8085 11.3931C13.8856 13.3245 14.2292 14.9721 14.2533 15.0796C14.3611 15.56 14.7869 15.8827 15.2612 15.8827C15.333 15.8827 15.4064 15.8753 15.4798 15.86C16.0359 15.7425 16.3923 15.1947 16.2807 14.639C16.2579 14.5256 15.7608 11.8341 19.1243 9.73103C19.6098 9.42733 19.7563 8.78932 19.4521 8.30523C19.1472 7.82114 18.5073 7.67467 18.0222 7.97836C17.1666 8.51335 16.4981 9.0864 15.9753 9.66607C15.1641 8.99455 13.5827 7.87699 11.6042 7.39331C12.691 2.66824 17.2911 2.57018 17.4932 2.56853C20.7833 2.56853 21.6924 3.8313 21.7107 4.58268V6.37217H20.7447C20.1717 6.37217 19.7073 6.83516 19.7073 7.40656C19.7073 7.97795 20.1717 8.44094 20.7447 8.44094H21.7103V10.82H19.3961C18.8231 10.82 18.3587 11.283 18.3587 11.8544C18.3587 12.4258 18.8231 12.8888 19.3961 12.8888H21.7103V15.6763H20.6721C20.099 15.6763 19.6347 16.1393 19.6347 16.7106C19.6347 17.282 20.099 17.745 20.6721 17.745H21.7103V25.0424H15.7126L13.6483 22.4122C14.0719 21.8317 14.3255 21.12 14.3255 20.3488C14.3255 18.4095 12.7433 16.8319 10.7984 16.8319C8.85355 16.8319 7.27136 18.4095 7.27136 20.3488C7.27136 22.2881 8.85355 23.8657 10.7984 23.8657C11.2167 23.8657 11.6167 23.7887 11.9893 23.6551L14.1699 26.4339V30.0873C12.8694 30.6058 11.947 31.8723 11.947 33.3523C11.947 35.2915 13.5292 36.8692 15.474 36.8692C17.4189 36.8692 19.0011 35.2915 19.0011 33.3523C19.0011 31.6774 17.8197 30.2747 16.2446 29.9226V27.1112H21.7103V42.4838C21.7103 43.6593 21.3489 44.1732 21.2737 44.2671ZM15.4736 31.9037C16.2745 31.9037 16.9259 32.5533 16.9259 33.3518C16.9259 34.1504 16.2745 34.8 15.4736 34.8C14.6728 34.8 14.0213 34.1504 14.0213 33.3518C14.0213 32.5533 14.6732 31.9037 15.4736 31.9037ZM10.7984 21.7969C9.99756 21.7969 9.3461 21.1473 9.3461 20.3488C9.3461 19.5502 9.99756 18.9007 10.7984 18.9007C11.5993 18.9007 12.2507 19.5502 12.2507 20.3488C12.2507 21.1473 11.5988 21.7969 10.7984 21.7969ZM41.8277 20.7228C41.8165 20.7505 40.7335 23.3361 38.6787 24.1524C38.021 23.5078 37.3534 23.0461 36.8077 22.7721C36.2961 22.5156 35.6786 22.7204 35.4189 23.2273C35.1595 23.7345 35.362 24.3564 35.8695 24.6175C36.0401 24.7052 40.0348 26.8253 39.2899 32.0696C39.2849 32.1073 38.7505 35.8551 35.5703 37.0678C35.5542 37.0744 33.9222 37.6851 32.3848 36.9627C31.3503 36.4765 30.5515 35.4752 30.0017 33.9961C31.1105 32.4379 31.3196 30.8097 31.3329 30.6964C31.3993 30.1291 30.9918 29.6152 30.4229 29.549C29.8532 29.4882 29.3391 29.8887 29.2723 30.4564C29.2685 30.4891 28.8507 33.7503 25.6784 34.5935C25.1249 34.7408 24.7958 35.3081 24.9435 35.86C25.0676 36.3226 25.4871 36.628 25.9452 36.628C26.034 36.628 26.1241 36.6164 26.2133 36.5928C27.0901 36.3598 27.8175 36.0007 28.4221 35.5745C29.1661 37.1311 30.2047 38.235 31.5308 38.8482C31.8827 39.0108 32.2329 39.1274 32.5765 39.2106C32.7321 40.4266 32.7686 43.7019 28.9972 45.1211C28.9677 45.1314 25.9805 46.1836 24.2593 44.3076L24.2688 44.3035L24.2203 44.2646C24.1423 44.1661 23.7854 43.6514 23.7854 42.4834V24.008H30.7939L33.2956 20.8205C33.7255 21.0071 34.1994 21.1118 34.6973 21.1118C36.6422 21.1118 38.2243 19.5341 38.2243 17.5948C38.2243 15.6556 36.6422 14.0779 34.6973 14.0779C32.7524 14.0779 31.1702 15.6556 31.1702 17.5948C31.1702 18.2854 31.3736 18.928 31.7196 19.4716L29.7831 21.9393H23.785V17.7446H24.7178C25.2909 17.7446 25.7552 17.2816 25.7552 16.7102C25.7552 16.1388 25.2909 15.6758 24.7178 15.6758H23.785V12.8884H26.139C26.712 12.8884 27.1764 12.4254 27.1764 11.854C27.1764 11.2826 26.712 10.8196 26.139 10.8196H23.785V8.44053H24.7904C25.3635 8.44053 25.8278 7.97754 25.8278 7.40614C25.8278 6.83475 25.3635 6.37176 24.7904 6.37176H23.785V4.58392C23.785 4.58103 23.785 4.57937 23.785 4.57565C23.8045 3.82965 24.7137 2.5677 28.003 2.5677C28.2088 2.5677 32.8035 2.62852 33.8919 7.39083C31.0491 8.08222 29.0328 10.0898 28.9275 10.1961C28.5254 10.602 28.5299 11.2549 28.9362 11.6562C29.3424 12.058 29.9993 12.0547 30.4022 11.6504C30.4279 11.6244 33.0392 9.04709 36.0907 9.23411C37.7953 9.34086 39.3713 10.3132 40.7572 12.101C40.7866 12.1407 43.6195 16.0954 41.8277 20.7228ZM33.245 17.5948C33.245 16.7963 33.8964 16.1467 34.6973 16.1467C35.4981 16.1467 36.1496 16.7963 36.1496 17.5948C36.1496 18.3934 35.4981 19.043 34.6973 19.043C34.4205 19.043 34.1641 18.9611 33.9437 18.8266C33.8848 18.7401 33.8159 18.6586 33.7288 18.5903C33.6749 18.5485 33.618 18.5134 33.5595 18.484C33.3657 18.2378 33.245 17.9312 33.245 17.5948Z" fill="#969CA0" stroke="#969CA0" stroke-width="2" mask="url(#path-1-inside-1)"/>
</svg>
