<svg width="60" height="60" viewBox="0 0 60 60" fill="none" xmlns="http://www.w3.org/2000/svg">
<path d="M50.1651 27.3637H41.1513V22.6978C41.1513 21.1601 39.9317 19.9406 38.3941 19.9406H31.077V17.2895H42.7419C43.1661 17.2895 43.5373 17.0774 43.6963 16.7062C43.8554 16.335 43.8554 15.9109 43.5903 15.5927L40.8861 11.9872L43.5903 8.38166C43.8554 8.06352 43.8554 7.63934 43.6963 7.26819C43.5373 6.89703 43.1661 6.68494 42.7419 6.68494H30.0165C29.4333 6.68494 28.9561 7.16214 28.9561 7.74539V19.9406H21.1087C19.5711 19.9406 18.3515 21.1601 18.3515 22.6978V27.3637H9.3377C8.1712 27.3637 7.2168 28.3182 7.2168 29.4846V50.6937C7.2168 51.8602 8.1712 52.8146 9.3377 52.8146H18.3515C18.8287 52.8146 19.3059 52.6555 19.6241 52.3904C20.0483 52.6555 20.5785 52.8146 21.1087 52.8146H38.3941C38.9243 52.8146 39.4545 52.6555 39.8787 52.3904C40.2499 52.6555 40.674 52.8146 41.1513 52.8146H50.1651C51.3316 52.8146 52.286 51.8602 52.286 50.6937V29.4846C52.286 28.3182 51.3316 27.3637 50.1651 27.3637ZM31.077 8.80584H40.621L38.7122 11.3509C38.4471 11.7221 38.4471 12.2523 38.7122 12.6235L40.621 15.1686H31.077V8.80584ZM18.3515 50.6937H9.3377V29.4846H18.3515V50.0574V50.6937ZM38.3941 50.6937H36.1141V44.0659H33.463V50.6937H25.5096V44.0659H22.8585V50.6937H21.1087C20.7376 50.6937 20.4724 50.4286 20.4724 50.0574V29.4846V22.6978C20.4724 22.3266 20.7376 22.0615 21.1087 22.0615H38.3941C38.7652 22.0615 39.0303 22.3266 39.0303 22.6978V29.4846V50.0574C39.0303 50.4286 38.7652 50.6937 38.3941 50.6937ZM50.1651 50.6937H41.1513V29.4846H50.1651V50.6937Z" fill="#3B9FBE"/>
<path d="M14.9021 32.4012H12.251V35.0523H14.9021V32.4012Z" fill="#3B9FBE"/>
<path d="M14.9021 38.2339H12.251V40.885H14.9021V38.2339Z" fill="#3B9FBE"/>
<path d="M14.9021 44.0659H12.251V46.717H14.9021V44.0659Z" fill="#3B9FBE"/>
<path d="M25.5086 32.4012H22.8574V35.0523H25.5086V32.4012Z" fill="#3B9FBE"/>
<path d="M25.5086 38.2339H22.8574V40.885H25.5086V38.2339Z" fill="#3B9FBE"/>
<path d="M30.8093 32.4012H28.1582V35.0523H30.8093V32.4012Z" fill="#3B9FBE"/>
<path d="M30.8093 38.2339H28.1582V40.885H30.8093V38.2339Z" fill="#3B9FBE"/>
<path d="M30.8093 44.0659H28.1582V46.717H30.8093V44.0659Z" fill="#3B9FBE"/>
<path d="M36.114 32.4012H33.4629V35.0523H36.114V32.4012Z" fill="#3B9FBE"/>
<path d="M25.5086 26.5684H22.8574V29.2195H25.5086V26.5684Z" fill="#3B9FBE"/>
<path d="M30.8093 26.5684H28.1582V29.2195H30.8093V26.5684Z" fill="#3B9FBE"/>
<path d="M36.114 26.5684H33.4629V29.2195H36.114V26.5684Z" fill="#3B9FBE"/>
<path d="M36.114 38.2339H33.4629V40.885H36.114V38.2339Z" fill="#3B9FBE"/>
<path d="M47.2488 32.4012H44.5977V35.0523H47.2488V32.4012Z" fill="#3B9FBE"/>
<path d="M47.2488 38.2339H44.5977V40.885H47.2488V38.2339Z" fill="#3B9FBE"/>
<path d="M47.2488 44.0659H44.5977V46.717H47.2488V44.0659Z" fill="#3B9FBE"/>
</svg>
