<svg width="60" height="60" viewBox="0 0 60 60" fill="none" xmlns="http://www.w3.org/2000/svg">
<path d="M32.5564 43.2213L21.0136 45.6184C23.1189 41.9888 21.2267 37.7794 19.6109 35.7314C18.1086 33.476 12.4842 26.4245 12.2443 26.1238C12.2298 26.106 12.2154 26.0885 12.2001 26.072C9.41634 23.0096 8.39046 20.2412 8.26414 19.8784C7.99406 18.5812 8.12208 17.5808 8.64523 16.9046C9.20963 16.1751 10.1424 15.9246 10.631 15.8408C10.6532 15.8383 10.6757 15.8353 10.6983 15.8315L10.7633 15.8204C10.8858 15.8034 10.9573 15.8 10.9522 15.8C11.8262 15.8 12.4638 16.0446 12.9018 16.5481C13.7716 17.5476 13.7316 19.4191 13.6432 20.0532C13.5938 20.3922 13.7112 20.7342 13.9579 20.9719C14.2046 21.2097 14.5504 21.313 14.8881 21.2518L28.6217 18.7275C29.6574 20.5058 32.6691 25.5628 35.8854 29.8964C36.0942 30.1776 36.4149 30.326 36.7403 30.326C36.9606 30.326 37.1826 30.258 37.3731 30.1163C37.8444 29.7663 37.9431 29.1002 37.5935 28.6286C34.7702 24.8258 32.1043 20.4462 30.847 18.3179L35.3886 17.4834C35.7114 17.4239 35.9883 17.2193 36.1397 16.928C36.2503 16.7157 37.2009 14.7967 36.574 12.8406C36.218 11.7305 35.4435 10.8654 34.273 10.2704C34.0535 10.159 33.199 9.81786 31.402 10.1262L10.3401 13.7351C10.3244 13.7376 10.3091 13.7406 10.2938 13.744C9.45801 13.8861 7.97535 14.3122 6.98052 15.5822C6.0346 16.7897 5.77132 18.4051 6.19834 20.3833C6.20558 20.416 6.21408 20.4479 6.22386 20.4798C6.26725 20.6159 7.31439 23.8475 10.6043 27.4764C10.9904 27.9608 16.4967 34.8748 17.8641 36.9432C17.8815 36.9695 17.9002 36.9951 17.9198 37.0202C18.0976 37.243 22.2138 42.5081 17.7743 46.1599C17.5876 46.2717 16.5566 46.8493 15.5924 46.6375C15.0297 46.5133 14.5636 46.1348 14.1668 45.4807C14.1582 45.467 13.4101 44.1617 13.8652 42.5179L18.4604 41.2819C19.0273 41.1296 19.3637 40.5461 19.2111 39.9791C19.0588 39.4117 18.4757 39.0762 17.9083 39.2284L12.7696 40.6107C12.4502 40.6966 12.1886 40.9263 12.0627 41.2325C10.8786 44.1064 12.289 46.4848 12.3493 46.5844C13.0533 47.7451 13.9902 48.4613 15.1344 48.7139C15.4457 48.7828 15.7519 48.8118 16.0471 48.8118C16.7927 48.8118 17.4664 48.625 17.9832 48.4205L32.9911 45.3037C33.5661 45.1842 33.9353 44.6215 33.8158 44.046C33.6941 43.4714 33.1323 43.1048 32.5564 43.2213ZM31.7602 12.2218C32.7737 12.0482 33.2573 12.1605 33.3496 12.1873C35.0368 13.0741 34.7434 14.6687 34.4457 15.4938L15.8025 18.9206C15.7562 17.8186 15.4929 16.3023 14.5266 15.1748L31.7602 12.2218Z" fill="#3B9FBE"/>
<path d="M27.7953 22.6224C27.6877 22.0452 27.1326 21.6637 26.5555 21.7713L15.1181 23.8979C14.541 24.0051 14.1599 24.5605 14.2671 25.1377C14.3623 25.6494 14.8089 26.0066 15.3112 26.0066C15.3759 26.0066 15.4414 26.0007 15.5069 25.9888L26.9442 23.8622C27.5214 23.755 27.9024 23.1995 27.7953 22.6224Z" fill="#3B9FBE"/>
<path d="M30.1429 25.767C30.0357 25.1899 29.4803 24.8088 28.9031 24.9159L17.4658 27.0425C16.8886 27.1497 16.5076 27.7052 16.6147 28.2824C16.71 28.794 17.1566 29.1513 17.6589 29.1513C17.7235 29.1513 17.789 29.1453 17.8545 29.1334L29.2919 27.0068C29.8695 26.8996 30.2501 26.3442 30.1429 25.767Z" fill="#3B9FBE"/>
<path d="M27.7516 28.6224L20.3047 30.0072C19.7275 30.1144 19.3464 30.6699 19.4536 31.247C19.5489 31.7587 19.9955 32.116 20.4978 32.116C20.5624 32.116 20.6279 32.11 20.6934 32.0981L28.1404 30.7132C28.7175 30.6061 29.0986 30.0506 28.9914 29.4734C28.8842 28.8963 28.3288 28.5147 27.7516 28.6224Z" fill="#3B9FBE"/>
<path d="M43.7535 28.6042C37.8777 28.6042 33.0967 33.3849 33.0967 39.2615C33.0967 45.1382 37.8773 49.9188 43.7535 49.9188C49.6298 49.9188 54.4108 45.1382 54.4108 39.2615C54.4108 33.3849 49.6302 28.6042 43.7535 28.6042ZM43.7535 47.7922C39.0499 47.7922 35.2233 43.9656 35.2233 39.2615C35.2233 34.5575 39.0499 30.7309 43.7535 30.7309C48.4576 30.7309 52.2842 34.5575 52.2842 39.2615C52.2842 43.9656 48.4576 47.7922 43.7535 47.7922Z" fill="#3B9FBE"/>
<path d="M46.2066 44.0705L46.0421 44.7433C45.5487 44.9377 45.1549 45.0848 44.8609 45.1844C44.5668 45.2891 44.2254 45.3414 43.8366 45.3414C43.2385 45.3414 42.7725 45.1969 42.4385 44.9078C42.1096 44.6138 41.9451 44.2424 41.9451 43.7938C41.9451 43.6194 41.9576 43.4425 41.9825 43.263C42.0074 43.0786 42.0473 42.8718 42.1021 42.6425L42.7152 40.4594C42.77 40.2501 42.8148 40.0532 42.8497 39.8688C42.8896 39.6794 42.9095 39.5074 42.9095 39.3529C42.9095 39.0738 42.8522 38.8794 42.7376 38.7697C42.623 38.6601 42.4036 38.6053 42.0797 38.6053C41.9202 38.6053 41.7557 38.6302 41.5862 38.68C41.4218 38.7299 41.2797 38.7772 41.1601 38.8221L41.3246 38.1492C41.7283 37.9847 42.1146 37.8452 42.4834 37.7305C42.8522 37.6109 43.2011 37.5511 43.5301 37.5511C44.1232 37.5511 44.5793 37.6956 44.8983 37.9847C45.2222 38.2688 45.3842 38.6401 45.3842 39.0987C45.3842 39.1934 45.3718 39.3604 45.3468 39.5996C45.3269 39.8389 45.287 40.0582 45.2272 40.2575L44.6142 42.4331C44.5643 42.6076 44.5195 42.807 44.4796 43.0313C44.4397 43.2555 44.4198 43.425 44.4198 43.5396C44.4198 43.8287 44.4846 44.0256 44.6142 44.1303C44.7437 44.2349 44.968 44.2873 45.287 44.2873C45.4366 44.2873 45.606 44.2624 45.7954 44.2125C45.9848 44.1577 46.1219 44.1103 46.2066 44.0705ZM46.3636 34.9418C46.3636 35.3206 46.2191 35.6446 45.93 35.9138C45.6459 36.1779 45.302 36.31 44.8983 36.31C44.4945 36.31 44.1481 36.1779 43.859 35.9138C43.57 35.6446 43.4254 35.3206 43.4254 34.9418C43.4254 34.563 43.57 34.2391 43.859 33.9699C44.1481 33.7008 44.4945 33.5662 44.8983 33.5662C45.302 33.5662 45.6459 33.7008 45.93 33.9699C46.2191 34.2391 46.3636 34.563 46.3636 34.9418Z" fill="#3B9FBE"/>
</svg>
