<svg width="48" height="48" viewBox="0 0 48 48" fill="none" xmlns="http://www.w3.org/2000/svg">
<path d="M15.8387 15.9999C15.4946 15.6988 14.9785 15.7418 14.6774 16.0859L12.4839 18.6235L11.7097 17.5483C11.4516 17.1612 10.9355 17.0752 10.5484 17.3762C10.1613 17.6343 10.0753 18.1504 10.3764 18.5375L11.7527 20.473C11.8817 20.6881 12.1398 20.8171 12.3979 20.8171H12.4409C12.6989 20.8171 12.914 20.7311 13.086 20.516L15.9678 17.1612C16.2258 16.8601 16.1828 16.301 15.8387 15.9999Z" fill="#3B9FBE"/>
<path d="M26.7199 20.0431C26.7199 19.5269 26.2898 19.0968 25.7737 19.0968H18.4619C17.9457 19.0968 17.5156 19.5269 17.5156 20.0431C17.5156 20.5592 17.9457 20.9893 18.4619 20.9893H25.7737C26.2898 20.9893 26.7199 20.5592 26.7199 20.0431Z" fill="#3B9FBE"/>
<path d="M23.7092 24.1292H18.2468C17.8167 24.1292 17.5156 24.5593 17.5156 25.0754C17.5156 25.5915 17.8597 26.0217 18.2468 26.0217H23.7092C24.1393 26.0217 24.4404 25.5915 24.4404 25.0754C24.4404 24.5593 24.1393 24.1292 23.7092 24.1292Z" fill="#3B9FBE"/>
<path d="M23.5371 29.0753H18.2898C17.8597 29.0753 17.5156 29.5054 17.5156 30.0216C17.5156 30.5377 17.8597 30.9678 18.2898 30.9678H23.5371C23.9672 30.9678 24.3113 30.5377 24.3113 30.0216C24.3113 29.5054 23.9672 29.0753 23.5371 29.0753Z" fill="#3B9FBE"/>
<path d="M42.1618 39.1398L38.8499 35.0968L41.6456 32.7312C41.9037 32.5161 42.0327 32.172 41.9897 31.871C41.9467 31.5269 41.7317 31.2688 41.4306 31.1398L26.6779 24.3011C26.3338 24.129 25.9467 24.215 25.6456 24.4301C25.3446 24.6452 25.2155 25.0323 25.3016 25.4194L29.0435 41.1613C29.1295 41.5054 29.3446 41.7204 29.6456 41.8495C29.9467 41.9785 30.2908 41.8925 30.5489 41.7204L33.2585 39.6129L36.7424 43.6989C36.9145 43.914 37.2155 44.043 37.4736 44.043C37.6886 44.043 37.9037 43.957 38.1188 43.828L42.0327 40.5161C42.4628 40.129 42.5059 39.5269 42.1618 39.1398ZM36.7854 35.5699L40.0972 39.6129L37.6456 41.6774L34.1618 37.5914C33.9897 37.3763 33.6886 37.2473 33.4306 37.2473C33.2155 37.2473 33.0005 37.3333 32.8284 37.4624L30.5919 39.2258L27.6671 26.8817L39.237 32.215L36.8714 34.1935C36.4843 34.5376 36.4413 35.1398 36.7854 35.5699Z" fill="#3B9FBE"/>
<path d="M13.1711 24C12.483 24 11.9238 24.5591 11.9238 25.2473C11.9238 25.9355 12.483 26.4946 13.1711 26.4946C13.8593 26.4946 14.4185 25.9355 14.4185 25.2473C14.4185 24.5591 13.8593 24 13.1711 24Z" fill="#3B9FBE"/>
<path d="M13.1711 28.9032C12.483 28.9032 11.9238 29.4623 11.9238 30.1505C11.9238 30.8387 12.483 31.3978 13.1711 31.3978C13.8593 31.3978 14.4185 30.8387 14.4185 30.1505C14.4185 29.4623 13.8593 28.9032 13.1711 28.9032Z" fill="#3B9FBE"/>
<path d="M24.914 38.0215L6.93548 37.9785V12.6882H12.1828C12.6989 12.6882 13.129 12.2581 13.129 11.7419V5.93548H31.7097V24.6452C31.7097 25.1613 32.1398 25.5914 32.6559 25.5914C33.172 25.5914 33.6022 25.1613 33.6022 24.6452V4.94624C33.6022 4.43011 33.172 4 32.6559 4H11.7527C11.4946 4 11.2366 4.12903 11.0645 4.30108L5.25806 10.4086C5.08602 10.5806 5 10.8387 5 11.0538V38.9247C5 39.4409 5.43011 39.871 5.94624 39.871H24.7849H24.871C25.3441 39.828 25.7312 39.3979 25.7312 38.9247C25.7312 38.4516 25.4301 38.0645 24.914 38.0215ZM7.62366 10.7527L11.2366 6.96774V10.7527H7.62366Z" fill="#3B9FBE"/>
</svg>
