<svg width="48" height="48" viewBox="0 0 48 48" fill="none" xmlns="http://www.w3.org/2000/svg">
<mask id="path-1-inside-1" fill="white">
<path d="M39.5339 13.4878C38.1028 11.6412 36.4311 10.6478 34.5641 10.5353C34.4994 10.5313 34.4367 10.5353 34.3726 10.5336C33.5162 6.33649 29.8889 5.19983 28.003 5.19983C26.0923 5.19983 24.6824 5.65363 23.812 6.54801C23.8074 6.55297 23.8034 6.55761 23.7988 6.56257C23.7941 6.55761 23.7905 6.55297 23.7855 6.54801C22.9151 5.6533 21.5053 5.19983 19.5945 5.19983C17.7087 5.19983 14.081 6.33683 13.2246 10.5336C13.1605 10.5353 13.0978 10.5316 13.033 10.5353C11.1661 10.6478 9.49437 11.6412 8.04969 13.506C7.93383 13.6646 5.2307 17.44 6.99605 21.9989C7.03953 22.1065 7.92321 24.2322 9.77918 25.3295C8.99078 26.3026 8.3511 27.9216 8.72754 30.5699C8.74945 30.7361 9.31012 34.6525 12.8153 35.9894C12.9105 36.0265 13.4696 36.2321 14.2513 36.2916C14.1046 38.223 14.7808 41.1541 18.2239 42.4496C18.2956 42.4761 19.1948 42.8002 20.3427 42.7998C21.4362 42.7998 22.7557 42.5056 23.7984 41.3805C24.8411 42.5056 26.16 42.7998 27.2538 42.7998C28.4023 42.7998 29.3036 42.4754 29.377 42.4483C32.823 41.1518 33.4949 38.2121 33.3445 36.281C34.0984 36.2109 34.6209 36.0119 34.6558 35.9977C38.1055 34.6823 38.6559 30.837 38.6764 30.6811C38.9885 28.4826 38.4341 26.7342 37.6142 25.4457C39.6102 24.3901 40.556 22.1095 40.6051 21.9883C42.3668 17.44 39.6633 13.6642 39.5339 13.4878ZM22.6193 40.2137L22.5894 40.2465C21.2121 41.7469 18.8224 40.9055 18.8061 40.8999C15.7876 39.7639 15.8218 37.1072 15.9416 36.1473C15.9782 36.1377 16.0143 36.1311 16.0512 36.1205C16.4917 35.9944 16.7466 35.5363 16.6202 35.0971C16.494 34.6575 16.0343 34.4046 15.5938 34.5294C14.48 34.8471 13.432 34.4529 13.4155 34.4466C10.8365 33.4629 10.377 30.3806 10.3721 30.3452C9.79246 26.2665 12.0478 25.5886 12.165 25.5562C12.6048 25.446 12.875 25.0028 12.7695 24.5615C12.6629 24.1173 12.2167 23.8429 11.7696 23.9489C11.7603 23.9512 11.5342 24.0098 11.2083 24.1733C9.46548 23.5924 8.54496 21.4018 8.54032 21.3915C7.1119 17.7028 9.29884 14.6093 9.37718 14.4997C10.4995 13.0512 11.76 12.2734 13.124 12.188C15.0981 12.0665 16.8416 13.3925 17.4471 13.9145C16.7088 15.4596 16.9837 16.7777 17.0029 16.8637C17.0892 17.248 17.4298 17.5062 17.8092 17.5062C17.8667 17.5062 17.9254 17.5002 17.9842 17.488C18.429 17.394 18.7142 16.9557 18.6249 16.5112C18.6066 16.4205 18.2089 14.2673 20.8998 12.5848C21.2882 12.3419 21.4053 11.8315 21.162 11.4442C20.918 11.0569 20.4061 10.9398 20.0181 11.1827C19.3336 11.6107 18.7988 12.0691 18.3805 12.5329C17.7316 11.9957 16.4665 11.1016 14.8837 10.7147C15.7531 6.93462 19.4332 6.85617 19.5948 6.85485C22.2269 6.85485 22.9543 7.86507 22.9689 8.46617V9.89776H22.1961C21.7376 9.89776 21.3662 10.2682 21.3662 10.7253C21.3662 11.1824 21.7376 11.5528 22.1961 11.5528H22.9685V13.456H21.1172C20.6588 13.456 20.2873 13.8264 20.2873 14.2836C20.2873 14.7407 20.6588 15.1111 21.1172 15.1111H22.9685V17.341H22.138C21.6795 17.341 21.3081 17.7114 21.3081 18.1685C21.3081 18.6257 21.6795 18.9961 22.138 18.9961H22.9685V24.834H18.1704L16.5189 22.7298C16.8579 22.2654 17.0607 21.696 17.0607 21.0791C17.0607 19.5276 15.7949 18.2655 14.239 18.2655C12.6831 18.2655 11.4174 19.5276 11.4174 21.0791C11.4174 22.6305 12.6831 23.8926 14.239 23.8926C14.5736 23.8926 14.8937 23.831 15.1918 23.7241L16.9362 25.9471V28.8699C15.8958 29.2846 15.1579 30.2978 15.1579 31.4818C15.1579 33.0332 16.4236 34.2954 17.9795 34.2954C19.5354 34.2954 20.8012 33.0332 20.8012 31.4818C20.8012 30.1419 19.8561 29.0198 18.596 28.7381V26.489H22.9685V38.7871C22.9685 39.7274 22.6794 40.1386 22.6193 40.2137ZM17.9792 30.323C18.6199 30.323 19.1411 30.8427 19.1411 31.4815C19.1411 32.1203 18.6199 32.64 17.9792 32.64C17.3385 32.64 16.8173 32.1203 16.8173 31.4815C16.8173 30.8427 17.3389 30.323 17.9792 30.323ZM14.239 22.2376C13.5984 22.2376 13.0772 21.7179 13.0772 21.0791C13.0772 20.4402 13.5984 19.9205 14.239 19.9205C14.8797 19.9205 15.4009 20.4402 15.4009 21.0791C15.4009 21.7179 14.8794 22.2376 14.239 22.2376ZM39.0625 21.3783C39.0535 21.4005 38.1871 23.4689 36.5433 24.122C36.0171 23.6063 35.483 23.2369 35.0465 23.0177C34.6372 22.8125 34.1432 22.9764 33.9354 23.3818C33.7279 23.7877 33.8899 24.2852 34.2959 24.494C34.4324 24.5642 37.6281 26.2603 37.0322 30.4557C37.0283 30.4858 36.6007 33.4841 34.0566 34.4542C34.0436 34.4595 32.738 34.9481 31.5081 34.3702C30.6806 33.9812 30.0415 33.1802 29.6017 31.9969C30.4887 30.7503 30.656 29.4478 30.6666 29.3571C30.7197 28.9033 30.3938 28.4922 29.9386 28.4392C29.4829 28.3906 29.0716 28.711 29.0181 29.1651C29.0151 29.1913 28.6809 31.8003 26.143 32.4748C25.7002 32.5927 25.437 33.0465 25.5551 33.488C25.6544 33.8581 25.99 34.1024 26.3565 34.1024C26.4275 34.1024 26.4996 34.0931 26.5709 34.0742C27.2724 33.8879 27.8543 33.6006 28.3379 33.2596C28.9331 34.5049 29.764 35.388 30.825 35.8785C31.1065 36.0086 31.3866 36.102 31.6615 36.1685C31.786 37.1413 31.8152 39.7615 28.798 40.8969C28.7745 40.9052 26.3847 41.7469 25.0077 40.2461L25.0154 40.2428L24.9765 40.2117C24.9141 40.1329 24.6286 39.7212 24.6286 38.7867V24.0064H30.2354L32.2368 21.4564C32.5807 21.6057 32.9598 21.6894 33.3581 21.6894C34.914 21.6894 36.1798 20.4273 36.1798 18.8759C36.1798 17.3245 34.914 16.0624 33.3581 16.0624C31.8023 16.0624 30.5365 17.3245 30.5365 18.8759C30.5365 19.4283 30.6992 19.9424 30.976 20.3773L29.4268 22.3514H24.6283V18.9957H25.3746C25.833 18.9957 26.2045 18.6253 26.2045 18.1682C26.2045 17.7111 25.833 17.3407 25.3746 17.3407H24.6283V15.1107H26.5115C26.9699 15.1107 27.3414 14.7403 27.3414 14.2832C27.3414 13.8261 26.9699 13.4557 26.5115 13.4557H24.6283V11.5524H25.4326C25.8911 11.5524 26.2625 11.1821 26.2625 10.7249C26.2625 10.2678 25.8911 9.89743 25.4326 9.89743H24.6283V8.46716C24.6283 8.46485 24.6283 8.46352 24.6283 8.46054C24.6439 7.86374 25.3712 6.85418 28.0027 6.85418C28.1673 6.85418 31.8431 6.90284 32.7138 10.7127C30.4396 11.2658 28.8266 12.8718 28.7423 12.9569C28.4206 13.2816 28.4243 13.8039 28.7492 14.125C29.0742 14.4464 29.5997 14.4438 29.922 14.1204C29.9426 14.0995 32.0316 12.0377 34.4729 12.1873C35.8365 12.2727 37.0973 13.0506 38.2061 14.4808C38.2296 14.5126 40.4959 17.6763 39.0625 21.3783ZM32.1963 18.8759C32.1963 18.2371 32.7175 17.7174 33.3581 17.7174C33.9988 17.7174 34.52 18.2371 34.52 18.8759C34.52 19.5147 33.9988 20.0344 33.3581 20.0344C33.1367 20.0344 32.9316 19.9689 32.7553 19.8613C32.7082 19.7921 32.6531 19.7269 32.5833 19.6723C32.5402 19.6389 32.4947 19.6107 32.4479 19.5872C32.2929 19.3903 32.1963 19.145 32.1963 18.8759Z"/>
</mask>
<path d="M39.5339 13.4878C38.1028 11.6412 36.4311 10.6478 34.5641 10.5353C34.4994 10.5313 34.4367 10.5353 34.3726 10.5336C33.5162 6.33649 29.8889 5.19983 28.003 5.19983C26.0923 5.19983 24.6824 5.65363 23.812 6.54801C23.8074 6.55297 23.8034 6.55761 23.7988 6.56257C23.7941 6.55761 23.7905 6.55297 23.7855 6.54801C22.9151 5.6533 21.5053 5.19983 19.5945 5.19983C17.7087 5.19983 14.081 6.33683 13.2246 10.5336C13.1605 10.5353 13.0978 10.5316 13.033 10.5353C11.1661 10.6478 9.49437 11.6412 8.04969 13.506C7.93383 13.6646 5.2307 17.44 6.99605 21.9989C7.03953 22.1065 7.92321 24.2322 9.77918 25.3295C8.99078 26.3026 8.3511 27.9216 8.72754 30.5699C8.74945 30.7361 9.31012 34.6525 12.8153 35.9894C12.9105 36.0265 13.4696 36.2321 14.2513 36.2916C14.1046 38.223 14.7808 41.1541 18.2239 42.4496C18.2956 42.4761 19.1948 42.8002 20.3427 42.7998C21.4362 42.7998 22.7557 42.5056 23.7984 41.3805C24.8411 42.5056 26.16 42.7998 27.2538 42.7998C28.4023 42.7998 29.3036 42.4754 29.377 42.4483C32.823 41.1518 33.4949 38.2121 33.3445 36.281C34.0984 36.2109 34.6209 36.0119 34.6558 35.9977C38.1055 34.6823 38.6559 30.837 38.6764 30.6811C38.9885 28.4826 38.4341 26.7342 37.6142 25.4457C39.6102 24.3901 40.556 22.1095 40.6051 21.9883C42.3668 17.44 39.6633 13.6642 39.5339 13.4878ZM22.6193 40.2137L22.5894 40.2465C21.2121 41.7469 18.8224 40.9055 18.8061 40.8999C15.7876 39.7639 15.8218 37.1072 15.9416 36.1473C15.9782 36.1377 16.0143 36.1311 16.0512 36.1205C16.4917 35.9944 16.7466 35.5363 16.6202 35.0971C16.494 34.6575 16.0343 34.4046 15.5938 34.5294C14.48 34.8471 13.432 34.4529 13.4155 34.4466C10.8365 33.4629 10.377 30.3806 10.3721 30.3452C9.79246 26.2665 12.0478 25.5886 12.165 25.5562C12.6048 25.446 12.875 25.0028 12.7695 24.5615C12.6629 24.1173 12.2167 23.8429 11.7696 23.9489C11.7603 23.9512 11.5342 24.0098 11.2083 24.1733C9.46548 23.5924 8.54496 21.4018 8.54032 21.3915C7.1119 17.7028 9.29884 14.6093 9.37718 14.4997C10.4995 13.0512 11.76 12.2734 13.124 12.188C15.0981 12.0665 16.8416 13.3925 17.4471 13.9145C16.7088 15.4596 16.9837 16.7777 17.0029 16.8637C17.0892 17.248 17.4298 17.5062 17.8092 17.5062C17.8667 17.5062 17.9254 17.5002 17.9842 17.488C18.429 17.394 18.7142 16.9557 18.6249 16.5112C18.6066 16.4205 18.2089 14.2673 20.8998 12.5848C21.2882 12.3419 21.4053 11.8315 21.162 11.4442C20.918 11.0569 20.4061 10.9398 20.0181 11.1827C19.3336 11.6107 18.7988 12.0691 18.3805 12.5329C17.7316 11.9957 16.4665 11.1016 14.8837 10.7147C15.7531 6.93462 19.4332 6.85617 19.5948 6.85485C22.2269 6.85485 22.9543 7.86507 22.9689 8.46617V9.89776H22.1961C21.7376 9.89776 21.3662 10.2682 21.3662 10.7253C21.3662 11.1824 21.7376 11.5528 22.1961 11.5528H22.9685V13.456H21.1172C20.6588 13.456 20.2873 13.8264 20.2873 14.2836C20.2873 14.7407 20.6588 15.1111 21.1172 15.1111H22.9685V17.341H22.138C21.6795 17.341 21.3081 17.7114 21.3081 18.1685C21.3081 18.6257 21.6795 18.9961 22.138 18.9961H22.9685V24.834H18.1704L16.5189 22.7298C16.8579 22.2654 17.0607 21.696 17.0607 21.0791C17.0607 19.5276 15.7949 18.2655 14.239 18.2655C12.6831 18.2655 11.4174 19.5276 11.4174 21.0791C11.4174 22.6305 12.6831 23.8926 14.239 23.8926C14.5736 23.8926 14.8937 23.831 15.1918 23.7241L16.9362 25.9471V28.8699C15.8958 29.2846 15.1579 30.2978 15.1579 31.4818C15.1579 33.0332 16.4236 34.2954 17.9795 34.2954C19.5354 34.2954 20.8012 33.0332 20.8012 31.4818C20.8012 30.1419 19.8561 29.0198 18.596 28.7381V26.489H22.9685V38.7871C22.9685 39.7274 22.6794 40.1386 22.6193 40.2137ZM17.9792 30.323C18.6199 30.323 19.1411 30.8427 19.1411 31.4815C19.1411 32.1203 18.6199 32.64 17.9792 32.64C17.3385 32.64 16.8173 32.1203 16.8173 31.4815C16.8173 30.8427 17.3389 30.323 17.9792 30.323ZM14.239 22.2376C13.5984 22.2376 13.0772 21.7179 13.0772 21.0791C13.0772 20.4402 13.5984 19.9205 14.239 19.9205C14.8797 19.9205 15.4009 20.4402 15.4009 21.0791C15.4009 21.7179 14.8794 22.2376 14.239 22.2376ZM39.0625 21.3783C39.0535 21.4005 38.1871 23.4689 36.5433 24.122C36.0171 23.6063 35.483 23.2369 35.0465 23.0177C34.6372 22.8125 34.1432 22.9764 33.9354 23.3818C33.7279 23.7877 33.8899 24.2852 34.2959 24.494C34.4324 24.5642 37.6281 26.2603 37.0322 30.4557C37.0283 30.4858 36.6007 33.4841 34.0566 34.4542C34.0436 34.4595 32.738 34.9481 31.5081 34.3702C30.6806 33.9812 30.0415 33.1802 29.6017 31.9969C30.4887 30.7503 30.656 29.4478 30.6666 29.3571C30.7197 28.9033 30.3938 28.4922 29.9386 28.4392C29.4829 28.3906 29.0716 28.711 29.0181 29.1651C29.0151 29.1913 28.6809 31.8003 26.143 32.4748C25.7002 32.5927 25.437 33.0465 25.5551 33.488C25.6544 33.8581 25.99 34.1024 26.3565 34.1024C26.4275 34.1024 26.4996 34.0931 26.5709 34.0742C27.2724 33.8879 27.8543 33.6006 28.3379 33.2596C28.9331 34.5049 29.764 35.388 30.825 35.8785C31.1065 36.0086 31.3866 36.102 31.6615 36.1685C31.786 37.1413 31.8152 39.7615 28.798 40.8969C28.7745 40.9052 26.3847 41.7469 25.0077 40.2461L25.0154 40.2428L24.9765 40.2117C24.9141 40.1329 24.6286 39.7212 24.6286 38.7867V24.0064H30.2354L32.2368 21.4564C32.5807 21.6057 32.9598 21.6894 33.3581 21.6894C34.914 21.6894 36.1798 20.4273 36.1798 18.8759C36.1798 17.3245 34.914 16.0624 33.3581 16.0624C31.8023 16.0624 30.5365 17.3245 30.5365 18.8759C30.5365 19.4283 30.6992 19.9424 30.976 20.3773L29.4268 22.3514H24.6283V18.9957H25.3746C25.833 18.9957 26.2045 18.6253 26.2045 18.1682C26.2045 17.7111 25.833 17.3407 25.3746 17.3407H24.6283V15.1107H26.5115C26.9699 15.1107 27.3414 14.7403 27.3414 14.2832C27.3414 13.8261 26.9699 13.4557 26.5115 13.4557H24.6283V11.5524H25.4326C25.8911 11.5524 26.2625 11.1821 26.2625 10.7249C26.2625 10.2678 25.8911 9.89743 25.4326 9.89743H24.6283V8.46716C24.6283 8.46485 24.6283 8.46352 24.6283 8.46054C24.6439 7.86374 25.3712 6.85418 28.0027 6.85418C28.1673 6.85418 31.8431 6.90284 32.7138 10.7127C30.4396 11.2658 28.8266 12.8718 28.7423 12.9569C28.4206 13.2816 28.4243 13.8039 28.7492 14.125C29.0742 14.4464 29.5997 14.4438 29.922 14.1204C29.9426 14.0995 32.0316 12.0377 34.4729 12.1873C35.8365 12.2727 37.0973 13.0506 38.2061 14.4808C38.2296 14.5126 40.4959 17.6763 39.0625 21.3783ZM32.1963 18.8759C32.1963 18.2371 32.7175 17.7174 33.3581 17.7174C33.9988 17.7174 34.52 18.2371 34.52 18.8759C34.52 19.5147 33.9988 20.0344 33.3581 20.0344C33.1367 20.0344 32.9316 19.9689 32.7553 19.8613C32.7082 19.7921 32.6531 19.7269 32.5833 19.6723C32.5402 19.6389 32.4947 19.6107 32.4479 19.5872C32.2929 19.3903 32.1963 19.145 32.1963 18.8759Z" fill="#969CA0" stroke="#969CA0" stroke-width="2" mask="url(#path-1-inside-1)"/>
</svg>
