<svg width="48" height="48" viewBox="0 0 48 48" fill="none" xmlns="http://www.w3.org/2000/svg">
<path d="M27.25 23.8386H25.5176V22.3142H22.3994V23.8386H20.667V21.448C20.667 20.9629 21.0481 20.5818 21.5332 20.5818H26.3838C26.8689 20.5818 27.25 20.9629 27.25 21.448V23.8386Z" fill="#969CA0"/>
<path d="M24.2364 40.4001C23.9939 40.4001 23.7513 40.2961 23.5781 40.1229L17.9306 33.7824C17.6881 33.5399 17.6534 33.1588 17.792 32.847C17.9306 32.5351 18.2424 32.3272 18.5889 32.3272H20.7024V25.9868C20.7024 25.5017 21.0835 25.1206 21.5686 25.1206H26.4192C26.9042 25.1206 27.2854 25.5017 27.2854 25.9868V32.3272H29.8839C30.2304 32.3272 30.5422 32.5351 30.6808 32.847C30.8194 33.1588 30.7501 33.5399 30.5422 33.7824L24.86 40.1229C24.6868 40.2961 24.4789 40.4001 24.2364 40.4001ZM20.5291 34.0943L24.2364 38.2519L27.9437 34.0943H26.4192C25.9341 34.0943 25.553 33.7131 25.553 33.2281V26.853H22.4347V32.743V33.1934C22.4347 33.6785 22.0536 34.0596 21.5686 34.0596H20.5291V34.0943Z" fill="#969CA0"/>
<path d="M27.25 19.5076H25.5176V18.4335H22.3994V19.5076H20.667V17.5674C20.667 17.0823 21.0481 16.7012 21.5332 16.7012H26.3838C26.8689 16.7012 27.25 17.0823 27.25 17.5674V19.5076Z" fill="#969CA0"/>
<path d="M18.6577 15.9044H14.5V14.172H17.7915V11.0884H19.5239V15.0382C19.5239 15.4886 19.1427 15.9044 18.6577 15.9044Z" fill="#969CA0"/>
<path d="M33.8672 38.3558H29.9174C29.4324 38.3558 29.0512 37.9747 29.0512 37.4896C29.0512 37.0046 29.4324 36.6234 29.9174 36.6234H33.8672C34.4909 36.6234 35.0106 36.1037 35.0106 35.4801V9.87573C35.0106 9.25207 34.4909 8.73237 33.8672 8.73237H18.9689L12.7324 14.9689V35.4801C12.7324 36.1037 13.2521 36.6234 13.8757 36.6234H18.8996C19.3846 36.6234 19.7658 37.0046 19.7658 37.4896C19.7658 37.9747 19.3846 38.3558 18.8996 38.3558H13.8757C12.282 38.3558 11 37.0739 11 35.4801V14.6224C11 14.3799 11.1039 14.172 11.2425 13.9988L17.9988 7.24253C18.172 7.10394 18.3799 7 18.6224 7H33.8672C35.461 7 36.7429 8.28195 36.7429 9.87573V35.4801C36.7429 37.0739 35.461 38.3558 33.8672 38.3558Z" fill="#969CA0"/>
</svg>
