<svg width="48" height="48" viewBox="0 0 48 48" fill="none" xmlns="http://www.w3.org/2000/svg">
<path d="M26.0449 34.5769L16.8107 36.4946C18.4949 33.5909 16.9811 30.2234 15.6885 28.585C14.4867 26.7806 9.98714 21.1395 9.79524 20.8989C9.78367 20.8847 9.77211 20.8707 9.75986 20.8574C7.53287 18.4076 6.71217 16.1929 6.61112 15.9026C6.39506 14.8648 6.49747 14.0645 6.91599 13.5235C7.36751 12.94 8.11368 12.7396 8.50464 12.6725C8.52233 12.6705 8.54037 12.6681 8.55841 12.6651L8.61046 12.6562C8.70846 12.6426 8.76562 12.6399 8.76154 12.6399C9.46076 12.6399 9.97082 12.8355 10.3213 13.2384C11.0171 14.038 10.9851 15.5351 10.9143 16.0425C10.8749 16.3136 10.9688 16.5872 11.1661 16.7774C11.3635 16.9676 11.6401 17.0503 11.9103 17.0013L22.8972 14.9819C23.7257 16.4045 26.1351 20.4501 28.7081 23.917C28.8752 24.1419 29.1317 24.2607 29.392 24.2607C29.5683 24.2607 29.7459 24.2062 29.8983 24.0929C30.2753 23.8129 30.3543 23.2801 30.0746 22.9027C27.8159 19.8605 25.6832 16.3569 24.6774 14.6542L28.3107 13.9866C28.5689 13.939 28.7904 13.7753 28.9116 13.5422C29 13.3725 29.7605 11.8372 29.259 10.2724C28.9742 9.3843 28.3546 8.69222 27.4182 8.2162C27.2426 8.12705 26.559 7.85417 25.1214 8.10085L8.27191 10.9879C8.25932 10.99 8.24707 10.9924 8.23482 10.9951C7.56621 11.1087 6.38008 11.4497 5.58422 12.4657C4.82749 13.4317 4.61686 14.724 4.95848 16.3065C4.96426 16.3327 4.97107 16.3582 4.9789 16.3837C5.0136 16.4926 5.85132 19.0779 8.48321 21.981C8.79216 22.3685 13.1971 27.8997 14.2911 29.5544C14.305 29.5755 14.32 29.5959 14.3356 29.616C14.4779 29.7943 17.7709 34.0063 14.2193 36.9278C14.0699 37.0173 13.2451 37.4793 12.4737 37.3099C12.0236 37.2105 11.6507 36.9077 11.3332 36.3844C11.3264 36.3735 10.7279 35.3293 11.092 34.0142L14.7681 33.0254C15.2217 32.9036 15.4908 32.4367 15.3687 31.9832C15.2468 31.5293 14.7804 31.2608 14.3264 31.3826L10.2155 32.4885C9.95993 32.5572 9.75067 32.7409 9.64996 32.9859C8.70268 35.285 9.83097 37.1877 9.87928 37.2674C10.4424 38.1959 11.192 38.7689 12.1073 38.971C12.3564 39.0262 12.6013 39.0493 12.8375 39.0493C13.4339 39.0493 13.9729 38.8999 14.3863 38.7363L26.3927 36.2428C26.8527 36.1472 27.148 35.6971 27.0524 35.2367C26.9551 34.777 26.5056 34.4837 26.0449 34.5769ZM25.4079 9.7773C26.2188 9.63848 26.6056 9.7283 26.6795 9.74974C28.0293 10.4592 27.7945 11.7348 27.5563 12.3949L12.6418 15.1363C12.6047 14.2547 12.3941 13.0417 11.6211 12.1397L25.4079 9.7773Z" fill="#3B9FBE"/>
<path d="M22.2354 18.0979C22.1493 17.6361 21.7053 17.3309 21.2436 17.417L12.0937 19.1183C11.632 19.204 11.3271 19.6484 11.4129 20.1101C11.4891 20.5195 11.8464 20.8053 12.2482 20.8053C12.2999 20.8053 12.3523 20.8005 12.4047 20.791L21.5546 19.0897C22.0163 19.004 22.3212 18.5596 22.2354 18.0979Z" fill="#3B9FBE"/>
<path d="M24.1134 20.6136C24.0276 20.1518 23.5832 19.847 23.1215 19.9327L13.9717 21.634C13.5099 21.7197 13.2051 22.1641 13.2908 22.6259C13.367 23.0352 13.7243 23.321 14.1261 23.321C14.1779 23.321 14.2303 23.3162 14.2827 23.3067L23.4325 21.6054C23.8946 21.5197 24.1991 21.0753 24.1134 20.6136Z" fill="#3B9FBE"/>
<path d="M22.2017 22.8979L16.2441 24.0058C15.7824 24.0915 15.4775 24.5359 15.5633 24.9976C15.6395 25.407 15.9968 25.6928 16.3986 25.6928C16.4503 25.6928 16.5027 25.688 16.5551 25.6785L22.5127 24.5706C22.9744 24.4849 23.2793 24.0405 23.1935 23.5788C23.1078 23.117 22.6634 22.8118 22.2017 22.8979Z" fill="#3B9FBE"/>
<path d="M35.002 22.8834C30.3014 22.8834 26.4766 26.7079 26.4766 31.4092C26.4766 36.1105 30.3011 39.935 35.002 39.935C39.703 39.935 43.5279 36.1105 43.5279 31.4092C43.5279 26.7079 39.7034 22.8834 35.002 22.8834ZM35.002 38.2337C31.2391 38.2337 28.1778 35.1724 28.1778 31.4092C28.1778 27.6459 31.2391 24.5846 35.002 24.5846C38.7653 24.5846 41.8266 27.6459 41.8266 31.4092C41.8266 35.1724 38.7653 38.2337 35.002 38.2337Z" fill="#3B9FBE"/>
<path d="M36.8779 35.4738L36.749 36.0011C36.3623 36.1534 36.0537 36.2687 35.8232 36.3468C35.5928 36.4288 35.3252 36.4698 35.0205 36.4698C34.5518 36.4698 34.1865 36.3566 33.9248 36.13C33.667 35.8995 33.5381 35.6085 33.5381 35.257C33.5381 35.1202 33.5479 34.9816 33.5674 34.8409C33.5869 34.6964 33.6182 34.5343 33.6611 34.3546L34.1416 32.6437C34.1846 32.4796 34.2197 32.3253 34.2471 32.1808C34.2783 32.0323 34.2939 31.8976 34.2939 31.7765C34.2939 31.5577 34.249 31.4054 34.1592 31.3195C34.0693 31.2335 33.8975 31.1906 33.6436 31.1906C33.5186 31.1906 33.3896 31.2101 33.2568 31.2491C33.1279 31.2882 33.0166 31.3253 32.9229 31.3605L33.0518 30.8331C33.3682 30.7042 33.6709 30.5948 33.96 30.505C34.249 30.4113 34.5225 30.3644 34.7803 30.3644C35.2451 30.3644 35.6025 30.4777 35.8525 30.7042C36.1064 30.9269 36.2334 31.2179 36.2334 31.5773C36.2334 31.6515 36.2236 31.7823 36.2041 31.9698C36.1885 32.1573 36.1572 32.3292 36.1104 32.4855L35.6299 34.1906C35.5908 34.3273 35.5557 34.4835 35.5244 34.6593C35.4932 34.8351 35.4775 34.9679 35.4775 35.0577C35.4775 35.2843 35.5283 35.4386 35.6299 35.5206C35.7314 35.6027 35.9072 35.6437 36.1572 35.6437C36.2744 35.6437 36.4072 35.6241 36.5557 35.5851C36.7041 35.5421 36.8115 35.505 36.8779 35.4738ZM37.001 28.3195C37.001 28.6163 36.8877 28.8702 36.6611 29.0812C36.4385 29.2882 36.1689 29.3917 35.8525 29.3917C35.5361 29.3917 35.2646 29.2882 35.0381 29.0812C34.8115 28.8702 34.6982 28.6163 34.6982 28.3195C34.6982 28.0226 34.8115 27.7687 35.0381 27.5577C35.2646 27.3468 35.5361 27.2413 35.8525 27.2413C36.1689 27.2413 36.4385 27.3468 36.6611 27.5577C36.8877 27.7687 37.001 28.0226 37.001 28.3195Z" fill="#3B9FBE"/>
</svg>
