<svg width="22" height="22" fill="none" xmlns="http://www.w3.org/2000/svg"><path d="M10.125 16.203a.873.873 0 01-.266-.64c0-.25.089-.464.266-.641a.873.873 0 01.64-.266c.25 0 .464.089.641.266.177.177.266.39.266.64s-.089.464-.266.641a.873.873 0 01-.64.266.873.873 0 01-.641-.266zm.313-2.422a.394.394 0 01-.266-.094c-.063-.062-.094-.15-.094-.265v-.656c0-.542.14-1.026.422-1.454.23-.343.62-.807 1.172-1.39.437-.469.724-.787.86-.953.124-.167.234-.459.327-.875a.932.932 0 00.016-.203c0-.51-.208-.912-.625-1.204-.417-.291-.922-.437-1.516-.437-.604 0-1.109.156-1.515.469-.396.302-.662.812-.797 1.531-.042.23-.182.344-.422.344h-.656a.373.373 0 01-.25-.094A.338.338 0 017 8.25c.02-.583.188-1.125.5-1.625.313-.5.755-.896 1.328-1.188C9.401 5.146 10.052 5 10.781 5c.781 0 1.438.135 1.969.406.542.26.938.61 1.188 1.047.26.427.39.88.39 1.36 0 .541-.125 1.01-.375 1.406-.24.396-.604.854-1.094 1.375a10.4 10.4 0 00-.921 1.11 2.077 2.077 0 00-.344 1.015c-.01.302-.021.526-.031.672-.032.26-.167.39-.407.39h-.719z" fill="#576168"/><circle cx="11" cy="11" r="10" stroke="#576168" stroke-width="1.5"/></svg>