<svg width="72" height="72" viewBox="0 0 72 72" fill="none" xmlns="http://www.w3.org/2000/svg">
<path d="M39.0679 51.8652L25.2165 54.7418C27.7429 50.3861 25.4722 45.3349 23.5332 42.8774C21.7305 40.1708 14.9812 31.7091 14.6933 31.3482C14.676 31.3268 14.6586 31.3059 14.6403 31.286C11.2998 27.6112 10.0688 24.2891 9.91717 23.8537C9.59307 22.2971 9.7467 21.0966 10.3745 20.2851C11.0518 19.4098 12.171 19.1092 12.7574 19.0086C12.784 19.0056 12.811 19.002 12.8381 18.9974L12.9162 18.9841C13.0632 18.9637 13.1489 18.9596 13.1428 18.9596C14.1916 18.9596 14.9567 19.2531 15.4824 19.8574C16.5261 21.0568 16.4782 23.3025 16.372 24.0635C16.3128 24.4703 16.4537 24.8806 16.7497 25.1659C17.0457 25.4512 17.4607 25.5753 17.8659 25.5018L34.3463 22.4726C35.5891 24.6066 39.2031 30.675 43.0626 35.8754C43.3132 36.2127 43.6981 36.3909 44.0885 36.3909C44.3529 36.3909 44.6193 36.3092 44.848 36.1392C45.4135 35.7192 45.5319 34.9199 45.1123 34.3539C41.7244 29.7905 38.5253 24.5351 37.0166 21.9811L42.4665 20.9797C42.8539 20.9083 43.1861 20.6628 43.3678 20.3132C43.5005 20.0585 44.6413 17.7556 43.8889 15.4084C43.4618 14.0763 42.5323 13.0381 41.1278 12.3241C40.8644 12.1904 39.839 11.7811 37.6827 12.1511L12.4083 16.4817C12.3895 16.4848 12.3711 16.4884 12.3527 16.4924C11.3498 16.6629 9.57061 17.1743 8.37682 18.6983C7.24172 20.1473 6.92578 22.0858 7.43821 24.4596C7.44689 24.4989 7.45709 24.5371 7.46883 24.5754C7.52089 24.7387 8.77747 28.6166 12.7253 32.9713C13.1887 33.5526 19.7962 41.8494 21.4371 44.3314C21.458 44.3631 21.4805 44.3937 21.5039 44.4238C21.7173 44.6913 26.6568 51.0093 21.3294 55.3915C21.1053 55.5257 19.8681 56.2188 18.7111 55.9647C18.0359 55.8156 17.4765 55.3614 17.0003 54.5764C16.9901 54.5601 16.0923 52.9937 16.6384 51.0211L22.1526 49.5379C22.833 49.3552 23.2367 48.6549 23.0535 47.9746C22.8707 47.2937 22.171 46.891 21.4902 47.0737L15.3237 48.7325C14.9404 48.8356 14.6265 49.1112 14.4754 49.4787C13.0545 52.9274 14.7469 55.7814 14.8194 55.9009C15.6641 57.2937 16.7885 58.1532 18.1614 58.4564C18.535 58.5391 18.9025 58.5738 19.2567 58.5738C20.1514 58.5738 20.9599 58.3497 21.58 58.1042L39.5895 54.3641C40.2795 54.2207 40.7225 53.5454 40.5791 52.8549C40.4331 52.1653 39.7589 51.7254 39.0679 51.8652ZM38.1124 14.6658C39.3287 14.4575 39.909 14.5923 40.0197 14.6244C42.0444 15.6886 41.6922 17.602 41.335 18.5922L18.9632 22.7043C18.9076 21.3819 18.5917 19.5624 17.4321 18.2094L38.1124 14.6658Z" fill="#26B586"/>
<path d="M33.3532 27.1466C33.224 26.454 32.558 25.9962 31.8654 26.1253L18.1406 28.6772C17.448 28.8059 16.9907 29.4724 17.1193 30.165C17.2336 30.779 17.7695 31.2077 18.3723 31.2077C18.4499 31.2077 18.5285 31.2006 18.6071 31.1863L32.3319 28.6344C33.0245 28.5058 33.4818 27.8392 33.3532 27.1466Z" fill="#26B586"/>
<path d="M36.1715 30.9211C36.0429 30.2285 35.3763 29.7712 34.6837 29.8998L20.9589 32.4518C20.2664 32.5804 19.8091 33.247 19.9377 33.9395C20.052 34.5535 20.5879 34.9823 21.1907 34.9823C21.2682 34.9823 21.3468 34.9751 21.4254 34.9608L35.1502 32.4089C35.8433 32.2803 36.3001 31.6137 36.1715 30.9211Z" fill="#26B586"/>
<path d="M33.3021 34.346L24.3657 36.0078C23.6731 36.1365 23.2158 36.803 23.3444 37.4956C23.4587 38.1096 23.9946 38.5383 24.5974 38.5383C24.675 38.5383 24.7536 38.5312 24.8322 38.5169L33.7685 36.8551C34.4611 36.7265 34.9184 36.0599 34.7898 35.3673C34.6612 34.6747 33.9946 34.2169 33.3021 34.346Z" fill="#26B586"/>
<path d="M52.504 34.3254C45.4531 34.3254 39.7158 40.0622 39.7158 47.1142C39.7158 54.1662 45.4526 59.9029 52.504 59.9029C59.5555 59.9029 65.2928 54.1662 65.2928 47.1142C65.2928 40.0622 59.556 34.3254 52.504 34.3254ZM52.504 57.351C46.8597 57.351 42.2677 52.759 42.2677 47.1142C42.2677 41.4693 46.8597 36.8774 52.504 36.8774C58.1489 36.8774 62.7409 41.4693 62.7409 47.1142C62.7409 52.759 58.1489 57.351 52.504 57.351Z" fill="#26B586"/>
<path d="M54.6211 51.8506L54.4492 52.5537C53.9336 52.7568 53.5221 52.9105 53.2148 53.0146C52.9076 53.124 52.5508 53.1787 52.1445 53.1787C51.5195 53.1787 51.0326 53.0277 50.6836 52.7256C50.3398 52.4183 50.168 52.0303 50.168 51.5615C50.168 51.3792 50.181 51.1943 50.207 51.0068C50.2331 50.8141 50.2747 50.598 50.332 50.3584L50.9727 48.0771C51.0299 47.8584 51.0768 47.6527 51.1133 47.46C51.1549 47.262 51.1758 47.0824 51.1758 46.9209C51.1758 46.6292 51.1159 46.4261 50.9961 46.3115C50.8763 46.1969 50.6471 46.1396 50.3086 46.1396C50.1419 46.1396 49.9701 46.1657 49.793 46.2178C49.6211 46.2699 49.4727 46.3193 49.3477 46.3662L49.5195 45.6631C49.9414 45.4912 50.3451 45.3454 50.7305 45.2256C51.1159 45.1006 51.4805 45.0381 51.8242 45.0381C52.444 45.0381 52.9206 45.1891 53.2539 45.4912C53.5924 45.7881 53.7617 46.1761 53.7617 46.6553C53.7617 46.7542 53.7487 46.9287 53.7227 47.1787C53.7018 47.4287 53.6602 47.6579 53.5977 47.8662L52.957 50.1396C52.9049 50.3219 52.8581 50.5303 52.8164 50.7646C52.7747 50.999 52.7539 51.1761 52.7539 51.2959C52.7539 51.598 52.8216 51.8037 52.957 51.9131C53.0924 52.0225 53.3268 52.0771 53.6602 52.0771C53.8164 52.0771 53.9935 52.0511 54.1914 51.999C54.3893 51.9417 54.5326 51.8923 54.6211 51.8506ZM54.7852 42.3115C54.7852 42.7074 54.6341 43.0459 54.332 43.3271C54.0352 43.6032 53.6758 43.7412 53.2539 43.7412C52.832 43.7412 52.4701 43.6032 52.168 43.3271C51.8659 43.0459 51.7148 42.7074 51.7148 42.3115C51.7148 41.9157 51.8659 41.5771 52.168 41.2959C52.4701 41.0146 52.832 40.874 53.2539 40.874C53.6758 40.874 54.0352 41.0146 54.332 41.2959C54.6341 41.5771 54.7852 41.9157 54.7852 42.3115Z" fill="#26B586"/>
</svg>
