<svg width="72" height="73" viewBox="0 0 72 73" fill="none" xmlns="http://www.w3.org/2000/svg">
<path d="M52.1467 17.8919C51.6202 17.8919 51.1152 18.1013 50.7429 18.4742C50.3706 18.847 50.1614 19.3526 50.1614 19.8799V25.8438C50.1614 26.3711 50.3706 26.8767 50.7429 27.2496C51.1152 27.6224 51.6202 27.8318 52.1467 27.8318C52.6733 27.8318 53.1783 27.6224 53.5506 27.2496C53.9229 26.8767 54.132 26.3711 54.132 25.8438V19.8799C54.132 19.3526 53.9229 18.847 53.5506 18.4742C53.1783 18.1013 52.6733 17.8919 52.1467 17.8919ZM52.1467 11.9279C51.7541 11.9279 51.3703 12.0445 51.0438 12.263C50.7173 12.4814 50.4628 12.7919 50.3126 13.1551C50.1623 13.5184 50.123 13.9181 50.1996 14.3038C50.2762 14.6894 50.4653 15.0436 50.7429 15.3216C51.0206 15.5997 51.3743 15.789 51.7594 15.8657C52.1445 15.9424 52.5437 15.903 52.9065 15.7526C53.2693 15.6021 53.5793 15.3473 53.7975 15.0204C54.0156 14.6935 54.132 14.3091 54.132 13.9159C54.132 13.3887 53.9229 12.883 53.5506 12.5102C53.1783 12.1374 52.6733 11.9279 52.1467 11.9279ZM52.1467 0C49.5396 0 46.958 0.514208 44.5493 1.51327C42.1407 2.51232 39.9521 3.97666 38.1086 5.82268C34.3854 9.55088 32.2938 14.6074 32.2938 19.8799C32.2764 24.4704 33.8637 28.9223 36.7805 32.4638L32.8099 36.4398C32.5345 36.7194 32.3478 37.0744 32.2736 37.46C32.1994 37.8457 32.241 38.2447 32.393 38.6067C32.5579 38.9644 32.8252 39.265 33.161 39.4703C33.4968 39.6756 33.886 39.7763 34.2791 39.7598H52.1467C57.4121 39.7598 62.4618 37.6653 66.1849 33.9371C69.9081 30.2089 71.9997 25.1524 71.9997 19.8799C71.9997 14.6074 69.9081 9.55088 66.1849 5.82268C62.4618 2.09448 57.4121 0 52.1467 0ZM52.1467 35.7838H39.0636L40.91 33.935C41.0975 33.7508 41.2468 33.5313 41.349 33.289C41.4512 33.0467 41.5045 32.7865 41.5055 32.5235C41.4981 31.9991 41.284 31.4989 40.91 31.1319C38.3104 28.5317 36.6915 25.1094 36.3293 21.448C35.967 17.7866 36.8836 14.1127 38.9231 11.0523C40.9626 7.99179 43.9987 5.73407 47.5141 4.66377C51.0295 3.59346 54.8068 3.77679 58.2023 5.18251C61.5979 6.58824 64.4017 9.12939 66.136 12.373C67.8704 15.6167 68.4279 19.3621 67.7137 22.9712C66.9995 26.5803 65.0578 29.8298 62.2192 32.1661C59.3807 34.5024 55.8211 35.7809 52.1467 35.7838Z" fill="#6ACFED"/>
<path d="M4.08008 40.0015C1.84284 40.0015 0 41.8081 0 44.0015V68.0017C0 70.195 1.84284 72.0017 4.08008 72.0017H27.2005V40.0015H4.08008ZM4.08008 42.6682H24.4805V64.0017H4.08008C3.61535 64.0074 3.15516 64.0922 2.72005 64.2523V44.0015C2.72005 43.2468 3.3103 42.6682 4.08008 42.6682ZM12.2402 48.0015V52.0016H8.16016V54.6683H12.2402V58.6683H14.9603V54.6683H19.0404V52.0016H14.9603V48.0015H12.2402ZM4.08008 66.6683H24.4805V69.335H4.08008C3.3103 69.335 2.72005 68.7564 2.72005 68.0017C2.72005 67.247 3.3103 66.6683 4.08008 66.6683Z" fill="#3B9FBE"/>
</svg>
