<svg width="24" height="24" viewBox="0 0 24 24" fill="none" xmlns="http://www.w3.org/2000/svg">
<path d="M8.47656 3.53273C8.47656 3.42697 8.47656 3.37409 8.4888 3.33085C8.51942 3.22264 8.60399 3.13807 8.7122 3.10745C8.75544 3.09521 8.80832 3.09521 8.91408 3.09521H12.6861C18.2747 3.09521 22.8051 7.62567 22.8051 13.2143V13.2143C22.8051 18.8029 18.2747 23.3333 12.6861 23.3333H10.0798C9.79359 23.3333 9.65051 23.3333 9.53133 23.3108C9.00765 23.2118 8.59803 22.8022 8.49908 22.2785C8.47656 22.1594 8.47656 22.0163 8.47656 21.7301V3.53273Z" fill="url(#paint0_linear)"/>
<path d="M2 1.05532C2 0.995155 2 0.965073 2.00399 0.939903C2.02593 0.801347 2.1346 0.69268 2.27315 0.670735C2.29833 0.666748 2.32841 0.666748 2.38857 0.666748V0.666748C2.62923 0.666748 2.74956 0.666748 2.85024 0.682695C3.40446 0.770475 3.83913 1.20514 3.92691 1.75937C3.94286 1.86005 3.94286 1.98038 3.94286 2.22103V20.5163C3.94286 20.5764 3.94286 20.6065 3.93887 20.6317C3.91693 20.7702 3.80826 20.8789 3.6697 20.9009C3.64453 20.9048 3.61445 20.9048 3.55429 20.9048V20.9048C3.31363 20.9048 3.1933 20.9048 3.09262 20.8889C2.5384 20.8011 2.10373 20.3664 2.01595 19.8122C2 19.7115 2 19.5912 2 19.3506V1.05532Z" fill="url(#paint1_linear)"/>
<path d="M5.23828 2.26967C5.23828 2.20951 5.23828 2.17943 5.24227 2.15426C5.26421 2.0157 5.37288 1.90704 5.51144 1.88509C5.53661 1.8811 5.56669 1.8811 5.62685 1.8811V1.8811C5.86751 1.8811 5.98784 1.8811 6.08852 1.89705C6.64274 1.98483 7.07741 2.4195 7.16519 2.97372C7.18114 3.0744 7.18114 3.19473 7.18114 3.43539V21.7306C7.18114 21.7908 7.18114 21.8209 7.17715 21.846C7.15521 21.9846 7.04654 22.0933 6.90798 22.1152C6.88281 22.1192 6.85273 22.1192 6.79257 22.1192V22.1192C6.55191 22.1192 6.43158 22.1192 6.3309 22.1033C5.77668 22.0155 5.34201 21.5808 5.25423 21.0266C5.23828 20.9259 5.23828 20.8056 5.23828 20.5649V2.26967Z" fill="url(#paint2_linear)"/>
<defs>
<linearGradient id="paint0_linear" x1="15.6408" y1="3.09521" x2="15.6408" y2="23.3333" gradientUnits="userSpaceOnUse">
<stop stop-color="#08A9DA"/>
<stop offset="1" stop-color="#93E2FA"/>
</linearGradient>
<linearGradient id="paint1_linear" x1="2.97143" y1="0.666748" x2="2.97143" y2="20.9048" gradientUnits="userSpaceOnUse">
<stop stop-color="#08A9DA"/>
<stop offset="1" stop-color="#93E2FA"/>
</linearGradient>
<linearGradient id="paint2_linear" x1="6.20971" y1="1.8811" x2="6.20971" y2="22.1192" gradientUnits="userSpaceOnUse">
<stop stop-color="#08A9DA"/>
<stop offset="1" stop-color="#93E2FA"/>
</linearGradient>
</defs>
</svg>
