<svg width="379" height="180" viewBox="0 0 379 180" fill="none" xmlns="http://www.w3.org/2000/svg">
<g filter="url(#filter0_d)">
<rect x="8" y="6" width="363" height="164" rx="12" fill="white"/>
<rect x="8.5" y="6.5" width="362" height="163" rx="11.5" stroke="#EAEBEC"/>
</g>
<line x1="189.5" y1="100" x2="189.5" y2="162" stroke="#D5D7D9"/>
<line x1="189.5" y1="68" x2="189.5" y2="84" stroke="#D5D7D9"/>
<line x1="8" y1="91.5" x2="371" y2="91.5" stroke="#D5D7D9" stroke-dasharray="3 3"/>
<line x1="8" y1="60.5" x2="371" y2="60.5" stroke="#D5D7D9"/>
<path d="M8 18C8 11.3726 13.3726 6 20 6H359C365.627 6 371 11.3726 371 18V60H8V18Z" fill="#6ACFED"/>
<path d="M159.879 40.86C159.959 40.96 160.079 41 160.239 41H162.979C163.119 41 163.239 40.96 163.339 40.86C163.439 40.76 163.499 40.64 163.499 40.48V35.42H168.219V40.48C168.219 40.64 168.259 40.76 168.359 40.86C168.459 40.96 168.579 41 168.739 41H171.459C171.599 41 171.719 40.96 171.819 40.86C171.919 40.76 171.979 40.64 171.979 40.48V27.1C171.979 26.94 171.919 26.82 171.819 26.72C171.719 26.62 171.599 26.56 171.459 26.56H168.739C168.579 26.56 168.459 26.62 168.359 26.72C168.259 26.82 168.219 26.94 168.219 27.1V31.98H163.499V27.1C163.499 26.94 163.439 26.82 163.339 26.72C163.239 26.62 163.119 26.56 162.979 26.56H160.239C160.079 26.56 159.959 26.62 159.879 26.72C159.779 26.82 159.739 26.94 159.739 27.1V40.48C159.739 40.64 159.779 40.76 159.879 40.86ZM180.94 29.62C181.42 29.62 181.84 29.72 182.18 29.92C182.5 30.12 182.72 30.34 182.8 30.62C182.96 30.88 183.18 31 183.48 31H186.28C186.4 31 186.5 30.96 186.58 30.86C186.66 30.78 186.7 30.66 186.7 30.54C186.66 29.96 186.42 29.36 185.96 28.74C185.5 28.12 184.84 27.6 183.98 27.18C183.12 26.78 182.12 26.56 180.98 26.56C179.82 26.56 178.82 26.76 177.98 27.12C177.14 27.48 176.48 28 176.02 28.66C175.56 29.32 175.34 30.06 175.34 30.9C175.34 32.14 175.74 33.08 176.54 33.74C177.34 34.42 178.52 34.92 180.12 35.24C181.7 35.56 182.66 35.88 183.02 36.18C183.22 36.38 183.32 36.64 183.32 36.98C183.32 37.32 183.12 37.6 182.74 37.82C182.34 38.04 181.8 38.14 181.08 38.14C179.96 38.14 179.2 37.78 178.8 37.04C178.58 36.8 178.34 36.66 178.08 36.66H175.42C175.3 36.66 175.18 36.7 175.1 36.78C175.02 36.86 174.98 36.98 174.98 37.1C175 37.82 175.24 38.5 175.72 39.12C176.18 39.76 176.86 40.26 177.78 40.64C178.7 41.02 179.76 41.2 181 41.2C182.24 41.2 183.32 41.02 184.24 40.66C185.16 40.3 185.88 39.78 186.4 39.1C186.92 38.42 187.18 37.64 187.18 36.76C187.18 35.88 187 35.18 186.64 34.62C186.28 34.08 185.74 33.64 185 33.28C184.26 32.94 183.26 32.66 182.02 32.42C180.92 32.18 180.18 31.96 179.78 31.74C179.38 31.52 179.18 31.2 179.18 30.8C179.18 30.02 179.76 29.62 180.94 29.62ZM190.141 40.84C190.241 40.96 190.361 41 190.481 41H193.161C193.321 41 193.441 40.96 193.541 40.86C193.621 40.76 193.681 40.64 193.681 40.48V35.56L197.481 40.58C197.521 40.7 197.621 40.8 197.741 40.88C197.861 40.96 198.041 41 198.281 41H201.401C201.521 41 201.641 40.96 201.721 40.88C201.801 40.8 201.841 40.7 201.841 40.58C201.841 40.46 201.801 40.38 201.761 40.32L196.721 33.48L201.401 27.24C201.441 27.2 201.481 27.12 201.481 27C201.481 26.9 201.421 26.8 201.341 26.7C201.261 26.62 201.161 26.56 201.041 26.56H198.001C197.601 26.56 197.341 26.7 197.201 26.98L193.681 31.6V27.1C193.681 26.96 193.621 26.84 193.521 26.72C193.421 26.62 193.301 26.56 193.161 26.56H190.481C190.321 26.56 190.201 26.62 190.121 26.72C190.041 26.84 190.001 26.96 190.001 27.1V40.48C190.001 40.62 190.041 40.74 190.141 40.84ZM220.171 35.22C220.171 35.1 220.111 34.98 220.031 34.88C219.931 34.8 219.811 34.74 219.691 34.74H218.291V26.82C218.291 26.7 218.231 26.58 218.131 26.48C218.031 26.38 217.911 26.32 217.791 26.32H214.751C214.551 26.32 214.411 26.4 214.331 26.56L209.031 34.84C208.991 34.94 208.971 35.04 208.971 35.12V37C208.971 37.16 209.011 37.28 209.111 37.36C209.191 37.46 209.311 37.5 209.451 37.5H214.931V40.5C214.931 40.64 214.971 40.76 215.071 40.86C215.151 40.96 215.271 41 215.411 41H217.791C217.911 41 218.031 40.96 218.131 40.86C218.231 40.76 218.291 40.64 218.291 40.5V37.5H219.691C219.771 37.5 219.851 37.48 219.931 37.44C220.011 37.4 220.071 37.34 220.111 37.26C220.151 37.18 220.171 37.1 220.171 37V35.22ZM212.151 34.74C212.151 34.74 212.251 34.6 212.431 34.36C212.591 34.12 212.791 33.86 212.991 33.58C213.191 33.3 213.411 32.98 213.651 32.6C213.891 32.24 214.071 31.9 214.211 31.62C214.351 31.34 214.491 31.08 214.611 30.8C214.651 30.68 214.711 30.54 214.771 30.42C214.851 30.22 214.951 30 215.031 29.76C214.991 30.28 214.971 30.84 214.971 31.44C214.951 31.64 214.931 31.94 214.931 32.32V34.74H212.151Z" fill="white"/>
<path d="M78.294 81.916C78.35 81.972 78.42 82 78.504 82H79.75C79.946 82 80.072 81.916 80.156 81.734L80.8 79.998H84.944L85.588 81.734C85.658 81.916 85.798 82 85.994 82H87.24C87.31 82 87.38 81.972 87.436 81.916C87.492 81.86 87.534 81.79 87.534 81.706L87.506 81.58L84.146 72.34C84.048 72.102 83.88 71.976 83.642 71.976H82.102C81.85 71.976 81.682 72.102 81.598 72.34L78.238 81.58L78.21 81.706C78.21 81.79 78.238 81.86 78.294 81.916ZM81.29 78.346L82.872 73.936L84.454 78.346H81.29ZM90.1627 81.23C90.6667 81.846 91.3807 82.14 92.3327 82.14C93.2987 82.14 94.0407 81.804 94.5587 81.132V81.664C94.5587 81.762 94.5867 81.846 94.6567 81.902C94.7127 81.972 94.7967 82 94.8947 82H96.0287C96.1267 82 96.2107 81.972 96.2667 81.902C96.3227 81.846 96.3647 81.762 96.3647 81.664L96.3787 72.172C96.3787 72.074 96.3367 71.99 96.2807 71.934C96.2247 71.878 96.1407 71.836 96.0427 71.836H94.8247C94.7267 71.836 94.6427 71.878 94.5867 71.934C94.5167 71.99 94.4887 72.074 94.4887 72.172L94.4747 75.476C93.9987 74.944 93.2847 74.664 92.3047 74.664C91.3247 74.664 90.5967 74.944 90.1487 75.476C89.6447 76.092 89.3647 76.904 89.3367 77.884L89.3227 78.346L89.3367 78.808C89.3787 79.816 89.6587 80.628 90.1627 81.23ZM94.0407 80.11C93.7887 80.446 93.3967 80.614 92.8647 80.614C91.8567 80.614 91.3247 79.998 91.2687 78.766L91.2547 78.346L91.2687 77.926C91.2967 77.31 91.4367 76.876 91.6887 76.596C91.9407 76.316 92.3327 76.176 92.8367 76.176C93.4247 76.176 93.8167 76.316 94.0407 76.568C94.3067 76.904 94.4467 77.296 94.4747 77.758C94.4747 77.87 94.4887 78.052 94.4887 78.304C94.4887 78.556 94.4747 78.724 94.4747 78.836C94.4467 79.34 94.2927 79.774 94.0407 80.11ZM99.9163 81.314C100.406 81.874 101.092 82.154 101.96 82.154C102.982 82.154 103.752 81.804 104.284 81.104V81.678C104.284 81.776 104.312 81.86 104.382 81.916C104.438 81.986 104.522 82.014 104.62 82.014H105.768C105.88 82.014 105.964 81.986 106.02 81.916C106.076 81.846 106.104 81.762 106.104 81.678V75.07C106.104 74.972 106.076 74.888 106.02 74.832C105.964 74.776 105.88 74.734 105.768 74.734H104.536C104.438 74.734 104.354 74.776 104.298 74.832C104.228 74.888 104.2 74.972 104.2 75.07V78.92C104.2 79.452 104.046 79.872 103.766 80.18C103.486 80.488 103.094 80.642 102.604 80.642C101.61 80.642 101.12 80.068 101.12 78.92V75.07C101.12 74.986 101.078 74.902 101.022 74.832C100.952 74.776 100.868 74.734 100.784 74.734H99.5243C99.4263 74.734 99.3423 74.776 99.2863 74.832C99.2163 74.888 99.1883 74.972 99.1883 75.07V79.004C99.1883 79.984 99.4263 80.754 99.9163 81.314ZM109.065 81.902C109.121 81.972 109.205 82 109.303 82H110.479C110.577 82 110.661 81.972 110.717 81.902C110.773 81.846 110.815 81.762 110.815 81.664V71.752C110.815 71.654 110.773 71.57 110.717 71.514C110.661 71.458 110.577 71.416 110.479 71.416H109.303C109.205 71.416 109.121 71.458 109.065 71.514C108.995 71.57 108.967 71.654 108.967 71.752V81.664C108.967 81.762 108.995 81.846 109.065 81.902ZM115.058 81.342C115.478 81.79 116.122 82 116.976 82H118.124C118.222 82 118.306 81.972 118.362 81.902C118.418 81.846 118.46 81.762 118.46 81.664V80.782C118.46 80.684 118.418 80.6 118.362 80.544C118.306 80.488 118.222 80.446 118.124 80.446H117.144C116.822 80.446 116.598 80.348 116.458 80.138C116.318 79.942 116.248 79.634 116.248 79.228V76.218H117.998C118.082 76.218 118.166 76.19 118.236 76.12C118.292 76.064 118.334 75.98 118.334 75.882V75.056C118.334 74.972 118.292 74.888 118.236 74.818C118.166 74.762 118.082 74.72 117.998 74.72H116.248V72.396C116.248 72.298 116.206 72.214 116.15 72.158C116.094 72.102 116.01 72.06 115.912 72.06H114.75C114.652 72.06 114.568 72.102 114.512 72.158C114.442 72.214 114.414 72.298 114.414 72.396V74.72H113.308C113.21 74.72 113.126 74.762 113.07 74.818C113 74.888 112.972 74.972 112.972 75.056V75.882C112.972 75.98 113 76.064 113.07 76.12C113.126 76.19 113.21 76.218 113.308 76.218H114.414V79.382C114.414 80.25 114.624 80.894 115.058 81.342Z" fill="#2D3942"/>
<path d="M251.338 81.748C251.94 82 252.668 82.126 253.508 82.126C254.292 82.126 254.978 82.014 255.58 81.776C256.182 81.538 256.644 81.188 256.98 80.74C257.316 80.292 257.484 79.746 257.484 79.13C257.484 78.57 257.358 78.122 257.134 77.758C256.896 77.394 256.532 77.1 256.056 76.862C255.566 76.624 254.908 76.414 254.068 76.218C253.466 76.064 253.004 75.924 252.682 75.784C252.36 75.658 252.122 75.504 251.982 75.336C251.842 75.168 251.772 74.958 251.772 74.692C251.772 74.328 251.912 74.034 252.206 73.838C252.486 73.642 252.892 73.53 253.424 73.53C253.872 73.53 254.264 73.642 254.586 73.838C254.894 74.048 255.076 74.3 255.132 74.594C255.202 74.776 255.342 74.86 255.552 74.86H256.896C256.98 74.86 257.036 74.832 257.092 74.762C257.148 74.706 257.176 74.636 257.176 74.552C257.148 74.16 256.994 73.754 256.714 73.334C256.42 72.914 255.986 72.578 255.426 72.298C254.852 72.018 254.18 71.878 253.424 71.878C252.668 71.878 252.024 72.004 251.464 72.256C250.904 72.508 250.484 72.844 250.19 73.278C249.896 73.712 249.756 74.202 249.756 74.734C249.742 75.56 249.994 76.19 250.512 76.624C251.03 77.058 251.842 77.408 252.948 77.674C253.62 77.856 254.124 78.01 254.46 78.136C254.796 78.262 255.048 78.416 255.216 78.584C255.384 78.752 255.468 78.962 255.468 79.214C255.468 79.606 255.3 79.914 254.964 80.138C254.628 80.362 254.152 80.474 253.508 80.474C252.92 80.474 252.458 80.376 252.122 80.152C251.786 79.928 251.576 79.662 251.492 79.34C251.436 79.256 251.38 79.2 251.31 79.144C251.24 79.088 251.156 79.06 251.072 79.06H249.784C249.7 79.06 249.644 79.102 249.588 79.158C249.532 79.228 249.504 79.298 249.504 79.368C249.518 79.858 249.672 80.306 249.98 80.726C250.288 81.146 250.736 81.496 251.338 81.748ZM261.306 81.342C261.726 81.79 262.37 82 263.224 82H264.372C264.47 82 264.554 81.972 264.61 81.902C264.666 81.846 264.708 81.762 264.708 81.664V80.782C264.708 80.684 264.666 80.6 264.61 80.544C264.554 80.488 264.47 80.446 264.372 80.446H263.392C263.07 80.446 262.846 80.348 262.706 80.138C262.566 79.942 262.496 79.634 262.496 79.228V76.218H264.246C264.33 76.218 264.414 76.19 264.484 76.12C264.54 76.064 264.582 75.98 264.582 75.882V75.056C264.582 74.972 264.54 74.888 264.484 74.818C264.414 74.762 264.33 74.72 264.246 74.72H262.496V72.396C262.496 72.298 262.454 72.214 262.398 72.158C262.342 72.102 262.258 72.06 262.16 72.06H260.998C260.9 72.06 260.816 72.102 260.76 72.158C260.69 72.214 260.662 72.298 260.662 72.396V74.72H259.556C259.458 74.72 259.374 74.762 259.318 74.818C259.248 74.888 259.22 74.972 259.22 75.056V75.882C259.22 75.98 259.248 76.064 259.318 76.12C259.374 76.19 259.458 76.218 259.556 76.218H260.662V79.382C260.662 80.25 260.872 80.894 261.306 81.342ZM267.621 81.314C268.111 81.874 268.797 82.154 269.665 82.154C270.687 82.154 271.457 81.804 271.989 81.104V81.678C271.989 81.776 272.017 81.86 272.087 81.916C272.143 81.986 272.227 82.014 272.325 82.014H273.473C273.585 82.014 273.669 81.986 273.725 81.916C273.781 81.846 273.809 81.762 273.809 81.678V75.07C273.809 74.972 273.781 74.888 273.725 74.832C273.669 74.776 273.585 74.734 273.473 74.734H272.241C272.143 74.734 272.059 74.776 272.003 74.832C271.933 74.888 271.905 74.972 271.905 75.07V78.92C271.905 79.452 271.751 79.872 271.471 80.18C271.191 80.488 270.799 80.642 270.309 80.642C269.315 80.642 268.825 80.068 268.825 78.92V75.07C268.825 74.986 268.783 74.902 268.727 74.832C268.657 74.776 268.573 74.734 268.489 74.734H267.229C267.131 74.734 267.047 74.776 266.991 74.832C266.921 74.888 266.893 74.972 266.893 75.07V79.004C266.893 79.984 267.131 80.754 267.621 81.314ZM277.176 81.23C277.68 81.846 278.394 82.14 279.346 82.14C280.312 82.14 281.054 81.804 281.572 81.132V81.664C281.572 81.762 281.6 81.846 281.67 81.902C281.726 81.972 281.81 82 281.908 82H283.042C283.14 82 283.224 81.972 283.28 81.902C283.336 81.846 283.378 81.762 283.378 81.664L283.392 72.172C283.392 72.074 283.35 71.99 283.294 71.934C283.238 71.878 283.154 71.836 283.056 71.836H281.838C281.74 71.836 281.656 71.878 281.6 71.934C281.53 71.99 281.502 72.074 281.502 72.172L281.488 75.476C281.012 74.944 280.298 74.664 279.318 74.664C278.338 74.664 277.61 74.944 277.162 75.476C276.658 76.092 276.378 76.904 276.35 77.884L276.336 78.346L276.35 78.808C276.392 79.816 276.672 80.628 277.176 81.23ZM281.054 80.11C280.802 80.446 280.41 80.614 279.878 80.614C278.87 80.614 278.338 79.998 278.282 78.766L278.268 78.346L278.282 77.926C278.31 77.31 278.45 76.876 278.702 76.596C278.954 76.316 279.346 76.176 279.85 76.176C280.438 76.176 280.83 76.316 281.054 76.568C281.32 76.904 281.46 77.296 281.488 77.758C281.488 77.87 281.502 78.052 281.502 78.304C281.502 78.556 281.488 78.724 281.488 78.836C281.46 79.34 281.306 79.774 281.054 80.11ZM286.916 81.244C287.532 81.846 288.358 82.14 289.422 82.14C290.066 82.14 290.626 82.028 291.13 81.804C291.634 81.58 292.012 81.328 292.278 81.02C292.53 80.712 292.67 80.446 292.67 80.222C292.67 80.138 292.642 80.082 292.586 80.026C292.516 79.984 292.446 79.956 292.362 79.956H291.13C291.018 79.956 290.948 79.97 290.906 79.998C290.85 80.026 290.794 80.082 290.71 80.18C290.374 80.614 289.926 80.824 289.394 80.824C288.918 80.824 288.554 80.656 288.288 80.32C288.022 79.984 287.882 79.55 287.882 79.018V78.906H292.53C292.614 78.906 292.698 78.878 292.768 78.808C292.824 78.752 292.866 78.668 292.866 78.57V78.276C292.866 77.156 292.558 76.26 291.956 75.588C291.354 74.916 290.5 74.58 289.394 74.58C288.302 74.58 287.462 74.916 286.86 75.588C286.244 76.26 285.95 77.184 285.95 78.346V78.696C285.978 79.802 286.3 80.656 286.916 81.244ZM290.934 77.716H287.882V77.688C287.868 77.142 287.994 76.708 288.274 76.372C288.554 76.036 288.918 75.868 289.394 75.868C289.87 75.868 290.234 76.036 290.514 76.372C290.794 76.708 290.934 77.142 290.934 77.688V77.716ZM295.45 81.902C295.506 81.972 295.59 82 295.688 82H296.934C297.032 82 297.116 81.972 297.172 81.902C297.228 81.846 297.27 81.762 297.27 81.664V77.814C297.27 77.282 297.41 76.862 297.704 76.554C297.984 76.246 298.376 76.092 298.852 76.092C299.342 76.092 299.72 76.246 299.986 76.554C300.252 76.862 300.392 77.282 300.392 77.814V81.664C300.392 81.762 300.42 81.846 300.49 81.902C300.546 81.972 300.63 82 300.728 82H301.988C302.086 82 302.17 81.972 302.226 81.902C302.282 81.846 302.324 81.762 302.324 81.664V77.73C302.324 76.75 302.072 75.98 301.568 75.42C301.064 74.86 300.378 74.58 299.524 74.58C298.53 74.58 297.746 74.93 297.186 75.63V75.07C297.186 74.972 297.144 74.888 297.088 74.832C297.032 74.776 296.948 74.734 296.85 74.734H295.688C295.59 74.734 295.506 74.776 295.45 74.832C295.38 74.888 295.352 74.972 295.352 75.07V81.664C295.352 81.762 295.38 81.846 295.45 81.902ZM306.488 81.342C306.908 81.79 307.552 82 308.406 82H309.554C309.652 82 309.736 81.972 309.792 81.902C309.848 81.846 309.89 81.762 309.89 81.664V80.782C309.89 80.684 309.848 80.6 309.792 80.544C309.736 80.488 309.652 80.446 309.554 80.446H308.574C308.252 80.446 308.028 80.348 307.888 80.138C307.748 79.942 307.678 79.634 307.678 79.228V76.218H309.428C309.512 76.218 309.596 76.19 309.666 76.12C309.722 76.064 309.764 75.98 309.764 75.882V75.056C309.764 74.972 309.722 74.888 309.666 74.818C309.596 74.762 309.512 74.72 309.428 74.72H307.678V72.396C307.678 72.298 307.636 72.214 307.58 72.158C307.524 72.102 307.44 72.06 307.342 72.06H306.18C306.082 72.06 305.998 72.102 305.942 72.158C305.872 72.214 305.844 72.298 305.844 72.396V74.72H304.738C304.64 74.72 304.556 74.762 304.5 74.818C304.43 74.888 304.402 74.972 304.402 75.056V75.882C304.402 75.98 304.43 76.064 304.5 76.12C304.556 76.19 304.64 76.218 304.738 76.218H305.844V79.382C305.844 80.25 306.054 80.894 306.488 81.342Z" fill="#2D3942"/>
<path d="M47.78 126.18C46.82 125.18 45.74 124.6 44.56 124.44V122.2H42.96V124.46C41.94 124.64 41.14 125.08 40.54 125.76C39.94 126.46 39.64 127.32 39.64 128.34C39.64 129.02 39.78 129.6 40.1 130.12C40.4 130.64 40.78 131.04 41.24 131.32C41.68 131.62 42.18 131.92 42.72 132.22C43.26 132.52 43.76 132.78 44.22 133.02C44.66 133.26 45.04 133.56 45.36 133.96C45.66 134.36 45.82 134.8 45.82 135.3C45.82 135.98 45.62 136.48 45.22 136.84C44.82 137.2 44.26 137.38 43.5 137.38C42.4 137.38 41.28 136.9 40.12 135.94L39.08 137.52C39.58 137.98 40.18 138.36 40.88 138.68C41.56 139 42.26 139.18 42.96 139.24V141.46H44.56V139.18C45.64 139 46.5 138.56 47.12 137.84C47.72 137.12 48.04 136.22 48.04 135.14C48.04 134.28 47.82 133.54 47.4 132.94C46.96 132.34 46.46 131.86 45.86 131.52C45.26 131.2 44.64 130.9 44.04 130.62C43.44 130.34 42.92 130.02 42.5 129.62C42.06 129.24 41.86 128.78 41.86 128.24C41.86 127.64 42.04 127.16 42.42 126.82C42.78 126.48 43.3 126.3 43.94 126.3C44.46 126.3 44.92 126.4 45.32 126.6C45.7 126.8 46.12 127.1 46.58 127.52L47.78 126.18ZM55.6063 139.16C57.0063 139.16 58.2063 138.7 59.2063 137.78C60.2063 136.86 60.7263 135.6 60.7263 134.02C60.7263 132.06 59.9663 130.68 58.4663 129.84C57.8063 129.52 56.9863 129.34 55.9863 129.3C55.4663 129.3 54.8863 129.44 54.2463 129.72L54.5463 126.42H59.7263C59.9063 126.42 60.0063 126.34 60.0063 126.18V124.52C60.0063 124.34 59.9063 124.24 59.7263 124.24H52.5463C52.3463 124.24 52.2463 124.34 52.2463 124.5L51.8263 131.2C51.8063 131.26 51.8263 131.3 51.8863 131.32L53.0063 132.04C53.0063 132.06 53.0462 132.06 53.0863 132.06C53.1263 132.06 53.1663 132.06 53.1663 132.04C53.6063 131.64 54.1463 131.38 54.7463 131.26C55.3463 131.14 55.9463 131.2 56.5463 131.42C57.5663 131.86 58.0863 132.74 58.0863 134.1C58.0863 134.98 57.8463 135.68 57.3263 136.22C56.8063 136.76 56.1263 137.02 55.3263 137.02C54.1463 137.04 53.0263 136.54 51.9863 135.52C51.9063 135.46 51.8263 135.46 51.7663 135.54L50.6663 137.02C50.6063 137.08 50.6063 137.14 50.6863 137.18C52.1463 138.5 53.7863 139.16 55.6063 139.16ZM66.5325 138.84C66.5125 138.96 66.5525 139 66.6725 138.98H69.0325C69.1125 138.98 69.1725 138.94 69.1725 138.84C69.2525 137.22 69.3725 135.76 69.5325 134.46C69.6125 133.58 69.8325 132.64 70.1725 131.64C70.1725 131.58 70.2125 131.48 70.2525 131.36C70.2525 131.32 70.2725 131.3 70.2725 131.26C70.2725 131.24 70.3325 131.1 70.4125 130.86C70.4925 130.62 70.6125 130.32 70.7925 129.96C70.7925 129.92 70.8125 129.9 70.8325 129.86C70.8325 129.82 70.8525 129.8 70.8725 129.76C70.8725 129.74 70.9125 129.7 70.9525 129.62L70.9925 129.54C70.9925 129.52 71.0125 129.48 71.0525 129.42C71.0725 129.36 71.1125 129.28 71.1725 129.18C71.8325 128 72.4725 127.04 73.0725 126.32C73.2925 126.06 73.4125 125.92 73.4125 125.9V124.48C73.4125 124.38 73.3525 124.32 73.2725 124.32H63.7925C63.6925 124.32 63.6525 124.38 63.6525 124.48V126.38C63.6525 126.48 63.6925 126.52 63.7925 126.52H70.4125C68.9125 128.62 67.8925 130.72 67.3725 132.8C66.8925 134.64 66.6125 136.64 66.5325 138.84ZM85.6388 125.78C85.6788 125.72 85.6788 125.66 85.6188 125.58C84.5788 124.52 83.2788 123.98 81.7188 123.98C80.1588 123.98 78.8388 124.64 77.7588 125.96C76.6788 127.28 76.1388 129.18 76.1388 131.68C76.1388 134.18 76.6188 136.06 77.5988 137.3C78.5588 138.54 79.8188 139.16 81.3588 139.16C82.6188 139.16 83.6988 138.72 84.5788 137.82C85.4588 136.94 85.8988 135.76 85.8988 134.32C85.8988 133.3 85.7188 132.44 85.3988 131.76C84.8788 130.72 84.0188 130.06 82.8588 129.78C82.4588 129.7 82.0188 129.64 81.5188 129.64C81.0188 129.64 80.5188 129.78 80.0388 130.02C79.5588 130.26 79.1788 130.52 78.8988 130.78C78.7788 130.88 78.6788 130.96 78.5788 131.04C78.6788 129.34 79.0188 128.12 79.5788 127.36C79.9788 126.8 80.4788 126.42 81.0388 126.24C81.3188 126.16 81.6388 126.12 81.9988 126.12C82.3588 126.12 82.7588 126.22 83.1588 126.4C83.5588 126.6 83.8788 126.84 84.1388 127.12C84.2188 127.22 84.2988 127.22 84.3788 127.14L85.6388 125.78ZM83.4588 134.32C83.4588 135.2 83.2588 135.9 82.8588 136.42C82.4388 136.94 81.9388 137.18 81.3388 137.18C79.7588 137.18 78.8588 135.84 78.6188 133.16C79.3788 132.12 80.2388 131.6 81.1988 131.6C82.6988 131.6 83.4588 132.52 83.4588 134.32Z" fill="#576168"/>
<path d="M99.401 132.231C98.969 131.781 98.483 131.52 97.952 131.448V130.44H97.232V131.457C96.773 131.538 96.413 131.736 96.143 132.042C95.873 132.357 95.738 132.744 95.738 133.203C95.738 133.509 95.801 133.77 95.945 134.004C96.08 134.238 96.251 134.418 96.458 134.544C96.656 134.679 96.881 134.814 97.124 134.949C97.367 135.084 97.592 135.201 97.799 135.309C97.997 135.417 98.168 135.552 98.312 135.732C98.447 135.912 98.519 136.11 98.519 136.335C98.519 136.641 98.429 136.866 98.249 137.028C98.069 137.19 97.817 137.271 97.475 137.271C96.98 137.271 96.476 137.055 95.954 136.623L95.486 137.334C95.711 137.541 95.981 137.712 96.296 137.856C96.602 138 96.917 138.081 97.232 138.108V139.107H97.952V138.081C98.438 138 98.825 137.802 99.104 137.478C99.374 137.154 99.518 136.749 99.518 136.263C99.518 135.876 99.419 135.543 99.23 135.273C99.032 135.003 98.807 134.787 98.537 134.634C98.267 134.49 97.988 134.355 97.718 134.229C97.448 134.103 97.214 133.959 97.025 133.779C96.827 133.608 96.737 133.401 96.737 133.158C96.737 132.888 96.818 132.672 96.989 132.519C97.151 132.366 97.385 132.285 97.673 132.285C97.907 132.285 98.114 132.33 98.294 132.42C98.465 132.51 98.654 132.645 98.861 132.834L99.401 132.231ZM101.835 137.928C101.835 138.018 101.88 138.063 101.97 138.063H105.633C105.714 138.063 105.759 138.027 105.759 137.937V137.208C105.759 137.136 105.714 137.091 105.633 137.091H104.463V131.592C104.463 131.511 104.409 131.466 104.319 131.466H103.608C103.59 131.466 103.59 131.475 103.59 131.475C103.59 131.475 103.581 131.484 103.572 131.484C103.176 131.601 102.735 131.745 102.24 131.925C102.15 131.961 102.105 132.015 102.105 132.087V132.6C102.105 132.69 102.141 132.726 102.231 132.726H103.293V137.091H101.97C101.88 137.091 101.835 137.136 101.835 137.217V137.928ZM111.865 137.118L108.931 137.109C108.931 137.082 108.949 137.037 108.967 136.983C108.985 136.929 109.003 136.884 109.012 136.848C109.012 136.839 109.021 136.83 109.021 136.821C109.021 136.812 109.03 136.803 109.03 136.794L109.048 136.767C109.048 136.758 109.057 136.749 109.066 136.731C109.075 136.722 109.084 136.713 109.093 136.695C109.093 136.677 109.102 136.659 109.12 136.641C109.138 136.623 109.165 136.587 109.201 136.533C109.237 136.479 109.291 136.416 109.363 136.344C109.39 136.317 109.417 136.281 109.453 136.245C109.489 136.209 109.57 136.146 109.705 136.038C109.795 135.966 109.867 135.912 109.903 135.876C109.939 135.849 109.966 135.831 109.984 135.813C109.984 135.813 110.002 135.804 110.02 135.786C110.038 135.768 110.047 135.759 110.056 135.759L110.074 135.75L110.083 135.741L110.11 135.714C110.164 135.678 110.236 135.624 110.326 135.561C110.371 135.525 110.497 135.426 110.695 135.282C110.893 135.138 111.073 134.985 111.235 134.823C111.622 134.436 111.856 134.049 111.937 133.653C111.937 133.635 111.937 133.59 111.955 133.527C111.973 133.473 111.982 133.365 111.982 133.221C111.946 132.591 111.721 132.114 111.298 131.772C111.154 131.664 110.965 131.547 110.713 131.439C110.461 131.331 110.119 131.277 109.687 131.268C108.913 131.268 108.256 131.556 107.707 132.141H107.698C107.635 132.231 107.608 132.303 107.608 132.357C107.608 132.411 107.635 132.465 107.698 132.51L108.013 132.816C108.139 132.942 108.256 132.942 108.382 132.816C108.796 132.42 109.21 132.213 109.624 132.213C109.984 132.213 110.29 132.312 110.551 132.501C110.776 132.699 110.893 132.942 110.893 133.23C110.884 133.536 110.794 133.797 110.632 134.013C110.461 134.256 110.038 134.607 109.372 135.075C109.156 135.219 108.913 135.408 108.661 135.624C108.409 135.849 108.193 136.092 108.031 136.344C107.977 136.416 107.941 136.479 107.914 136.524C107.725 136.875 107.617 137.271 107.59 137.703C107.572 137.892 107.671 137.991 107.869 138H111.874C112.018 138 112.099 137.928 112.099 137.784V137.325C112.099 137.19 112.018 137.118 111.865 137.118ZM116.51 139.62H117.23L119.732 130.818H119.012L116.51 139.62ZM122.133 137.883C122.439 138.027 122.817 138.09 123.276 138.09C123.933 138.09 124.446 137.964 124.815 137.694C125.184 137.433 125.373 137.091 125.373 136.659C125.373 135.93 124.833 135.462 123.753 135.246C123.402 135.183 123.141 135.12 122.97 135.057C122.79 134.994 122.673 134.922 122.619 134.85C122.565 134.778 122.538 134.688 122.538 134.58C122.538 134.427 122.592 134.301 122.718 134.202C122.835 134.112 123.006 134.058 123.231 134.058C123.393 134.058 123.528 134.085 123.645 134.13C123.753 134.184 123.861 134.247 123.951 134.328C124.041 134.409 124.113 134.463 124.158 134.49C124.194 134.544 124.239 134.562 124.311 134.562H124.986C125.04 134.562 125.085 134.544 125.121 134.508C125.157 134.472 125.184 134.418 125.184 134.364C125.184 134.229 125.103 134.067 124.95 133.887C124.797 133.707 124.572 133.554 124.284 133.428C123.987 133.302 123.636 133.23 123.231 133.23C122.835 133.23 122.493 133.302 122.205 133.437C121.917 133.572 121.71 133.743 121.566 133.959C121.422 134.175 121.35 134.4 121.35 134.634C121.35 135.003 121.467 135.3 121.71 135.516C121.953 135.741 122.331 135.903 122.844 136.011C123.195 136.092 123.456 136.164 123.636 136.227C123.816 136.29 123.933 136.362 124.005 136.434C124.077 136.506 124.113 136.605 124.113 136.722C124.113 136.902 124.032 137.037 123.888 137.127C123.735 137.217 123.537 137.262 123.303 137.262C123.141 137.262 122.988 137.244 122.853 137.19C122.718 137.136 122.601 137.064 122.493 136.974C122.394 136.893 122.331 136.839 122.295 136.803C122.259 136.758 122.214 136.731 122.169 136.731H121.431C121.377 136.731 121.323 136.749 121.287 136.785C121.251 136.821 121.233 136.875 121.233 136.929C121.233 137.064 121.305 137.226 121.449 137.406C121.593 137.586 121.827 137.748 122.133 137.883ZM127.725 137.514C128.121 137.901 128.652 138.09 129.336 138.09C129.75 138.09 130.11 138.018 130.434 137.874C130.758 137.73 131.001 137.568 131.172 137.37C131.334 137.172 131.424 137.001 131.424 136.857C131.424 136.803 131.406 136.767 131.37 136.731C131.325 136.704 131.28 136.686 131.226 136.686H130.434C130.362 136.686 130.317 136.695 130.29 136.713C130.254 136.731 130.218 136.767 130.164 136.83C129.948 137.109 129.66 137.244 129.318 137.244C129.012 137.244 128.778 137.136 128.607 136.92C128.436 136.704 128.346 136.425 128.346 136.083V136.011H131.334C131.388 136.011 131.442 135.993 131.487 135.948C131.523 135.912 131.55 135.858 131.55 135.795V135.606C131.55 134.886 131.352 134.31 130.965 133.878C130.578 133.446 130.029 133.23 129.318 133.23C128.616 133.23 128.076 133.446 127.689 133.878C127.293 134.31 127.104 134.904 127.104 135.651V135.876C127.122 136.587 127.329 137.136 127.725 137.514ZM130.308 135.246H128.346V135.228C128.337 134.877 128.418 134.598 128.598 134.382C128.778 134.166 129.012 134.058 129.318 134.058C129.624 134.058 129.858 134.166 130.038 134.382C130.218 134.598 130.308 134.877 130.308 135.228V135.246ZM134.135 137.883C134.441 138.027 134.819 138.09 135.278 138.09C135.935 138.09 136.448 137.964 136.817 137.694C137.186 137.433 137.375 137.091 137.375 136.659C137.375 135.93 136.835 135.462 135.755 135.246C135.404 135.183 135.143 135.12 134.972 135.057C134.792 134.994 134.675 134.922 134.621 134.85C134.567 134.778 134.54 134.688 134.54 134.58C134.54 134.427 134.594 134.301 134.72 134.202C134.837 134.112 135.008 134.058 135.233 134.058C135.395 134.058 135.53 134.085 135.647 134.13C135.755 134.184 135.863 134.247 135.953 134.328C136.043 134.409 136.115 134.463 136.16 134.49C136.196 134.544 136.241 134.562 136.313 134.562H136.988C137.042 134.562 137.087 134.544 137.123 134.508C137.159 134.472 137.186 134.418 137.186 134.364C137.186 134.229 137.105 134.067 136.952 133.887C136.799 133.707 136.574 133.554 136.286 133.428C135.989 133.302 135.638 133.23 135.233 133.23C134.837 133.23 134.495 133.302 134.207 133.437C133.919 133.572 133.712 133.743 133.568 133.959C133.424 134.175 133.352 134.4 133.352 134.634C133.352 135.003 133.469 135.3 133.712 135.516C133.955 135.741 134.333 135.903 134.846 136.011C135.197 136.092 135.458 136.164 135.638 136.227C135.818 136.29 135.935 136.362 136.007 136.434C136.079 136.506 136.115 136.605 136.115 136.722C136.115 136.902 136.034 137.037 135.89 137.127C135.737 137.217 135.539 137.262 135.305 137.262C135.143 137.262 134.99 137.244 134.855 137.19C134.72 137.136 134.603 137.064 134.495 136.974C134.396 136.893 134.333 136.839 134.297 136.803C134.261 136.758 134.216 136.731 134.171 136.731H133.433C133.379 136.731 133.325 136.749 133.289 136.785C133.253 136.821 133.235 136.875 133.235 136.929C133.235 137.064 133.307 137.226 133.451 137.406C133.595 137.586 133.829 137.748 134.135 137.883ZM139.934 137.883C140.24 138.027 140.618 138.09 141.077 138.09C141.734 138.09 142.247 137.964 142.616 137.694C142.985 137.433 143.174 137.091 143.174 136.659C143.174 135.93 142.634 135.462 141.554 135.246C141.203 135.183 140.942 135.12 140.771 135.057C140.591 134.994 140.474 134.922 140.42 134.85C140.366 134.778 140.339 134.688 140.339 134.58C140.339 134.427 140.393 134.301 140.519 134.202C140.636 134.112 140.807 134.058 141.032 134.058C141.194 134.058 141.329 134.085 141.446 134.13C141.554 134.184 141.662 134.247 141.752 134.328C141.842 134.409 141.914 134.463 141.959 134.49C141.995 134.544 142.04 134.562 142.112 134.562H142.787C142.841 134.562 142.886 134.544 142.922 134.508C142.958 134.472 142.985 134.418 142.985 134.364C142.985 134.229 142.904 134.067 142.751 133.887C142.598 133.707 142.373 133.554 142.085 133.428C141.788 133.302 141.437 133.23 141.032 133.23C140.636 133.23 140.294 133.302 140.006 133.437C139.718 133.572 139.511 133.743 139.367 133.959C139.223 134.175 139.151 134.4 139.151 134.634C139.151 135.003 139.268 135.3 139.511 135.516C139.754 135.741 140.132 135.903 140.645 136.011C140.996 136.092 141.257 136.164 141.437 136.227C141.617 136.29 141.734 136.362 141.806 136.434C141.878 136.506 141.914 136.605 141.914 136.722C141.914 136.902 141.833 137.037 141.689 137.127C141.536 137.217 141.338 137.262 141.104 137.262C140.942 137.262 140.789 137.244 140.654 137.19C140.519 137.136 140.402 137.064 140.294 136.974C140.195 136.893 140.132 136.839 140.096 136.803C140.06 136.758 140.015 136.731 139.97 136.731H139.232C139.178 136.731 139.124 136.749 139.088 136.785C139.052 136.821 139.034 136.875 139.034 136.929C139.034 137.064 139.106 137.226 139.25 137.406C139.394 137.586 139.628 137.748 139.934 137.883ZM145.13 132.393C145.166 132.438 145.22 132.456 145.283 132.456H146.111C146.174 132.456 146.228 132.438 146.273 132.393C146.318 132.357 146.345 132.303 146.345 132.24V131.583C146.345 131.52 146.318 131.466 146.282 131.421C146.237 131.385 146.183 131.358 146.111 131.358H145.283C145.22 131.358 145.166 131.385 145.13 131.421C145.085 131.466 145.067 131.52 145.067 131.583V132.24C145.067 132.303 145.085 132.357 145.13 132.393ZM145.166 137.937C145.202 137.982 145.256 138 145.319 138H146.093C146.147 138 146.201 137.982 146.246 137.937C146.282 137.901 146.309 137.847 146.309 137.784V133.536C146.309 133.482 146.282 133.428 146.246 133.383C146.201 133.347 146.147 133.32 146.093 133.32H145.319C145.265 133.32 145.211 133.347 145.166 133.383C145.121 133.419 145.103 133.473 145.103 133.536V137.784C145.103 137.847 145.121 137.901 145.166 137.937ZM148.917 137.568C149.304 137.928 149.853 138.108 150.555 138.108C151.257 138.108 151.797 137.928 152.184 137.568C152.571 137.208 152.778 136.713 152.805 136.074C152.814 136.011 152.823 135.876 152.823 135.678C152.823 135.48 152.814 135.354 152.805 135.282C152.778 134.652 152.571 134.157 152.175 133.797C151.779 133.437 151.239 133.248 150.555 133.248C149.862 133.248 149.322 133.437 148.926 133.797C148.53 134.157 148.323 134.652 148.305 135.282L148.287 135.678L148.305 136.074C148.323 136.713 148.53 137.208 148.917 137.568ZM150.555 137.199C150.231 137.199 149.988 137.1 149.817 136.902C149.637 136.704 149.547 136.416 149.547 136.029L149.529 135.678L149.547 135.327C149.547 134.949 149.637 134.652 149.817 134.454C149.988 134.256 150.231 134.148 150.555 134.148C150.87 134.148 151.113 134.256 151.293 134.454C151.464 134.652 151.554 134.949 151.563 135.327C151.572 135.39 151.581 135.507 151.581 135.678C151.581 135.858 151.572 135.975 151.563 136.029C151.554 136.416 151.464 136.704 151.293 136.902C151.122 137.1 150.879 137.199 150.555 137.199ZM154.883 137.937C154.919 137.982 154.973 138 155.036 138H155.837C155.9 138 155.954 137.982 155.99 137.937C156.026 137.901 156.053 137.847 156.053 137.784V135.309C156.053 134.967 156.143 134.697 156.332 134.499C156.512 134.301 156.764 134.202 157.07 134.202C157.385 134.202 157.628 134.301 157.799 134.499C157.97 134.697 158.06 134.967 158.06 135.309V137.784C158.06 137.847 158.078 137.901 158.123 137.937C158.159 137.982 158.213 138 158.276 138H159.086C159.149 138 159.203 137.982 159.239 137.937C159.275 137.901 159.302 137.847 159.302 137.784V135.255C159.302 134.625 159.14 134.13 158.816 133.77C158.492 133.41 158.051 133.23 157.502 133.23C156.863 133.23 156.359 133.455 155.999 133.905V133.545C155.999 133.482 155.972 133.428 155.936 133.392C155.9 133.356 155.846 133.329 155.783 133.329H155.036C154.973 133.329 154.919 133.356 154.883 133.392C154.838 133.428 154.82 133.482 154.82 133.545V137.784C154.82 137.847 154.838 137.901 154.883 137.937Z" fill="#2D3942"/>
<path d="M227.78 126.18C226.82 125.18 225.74 124.6 224.56 124.44V122.2H222.96V124.46C221.94 124.64 221.14 125.08 220.54 125.76C219.94 126.46 219.64 127.32 219.64 128.34C219.64 129.02 219.78 129.6 220.1 130.12C220.4 130.64 220.78 131.04 221.24 131.32C221.68 131.62 222.18 131.92 222.72 132.22C223.26 132.52 223.76 132.78 224.22 133.02C224.66 133.26 225.04 133.56 225.36 133.96C225.66 134.36 225.82 134.8 225.82 135.3C225.82 135.98 225.62 136.48 225.22 136.84C224.82 137.2 224.26 137.38 223.5 137.38C222.4 137.38 221.28 136.9 220.12 135.94L219.08 137.52C219.58 137.98 220.18 138.36 220.88 138.68C221.56 139 222.26 139.18 222.96 139.24V141.46H224.56V139.18C225.64 139 226.5 138.56 227.12 137.84C227.72 137.12 228.04 136.22 228.04 135.14C228.04 134.28 227.82 133.54 227.4 132.94C226.96 132.34 226.46 131.86 225.86 131.52C225.26 131.2 224.64 130.9 224.04 130.62C223.44 130.34 222.92 130.02 222.5 129.62C222.06 129.24 221.86 128.78 221.86 128.24C221.86 127.64 222.04 127.16 222.42 126.82C222.78 126.48 223.3 126.3 223.94 126.3C224.46 126.3 224.92 126.4 225.32 126.6C225.7 126.8 226.12 127.1 226.58 127.52L227.78 126.18ZM231.966 138.84C231.966 139.04 232.066 139.14 232.266 139.14H240.406C240.586 139.14 240.686 139.06 240.686 138.86V137.24C240.686 137.08 240.586 136.98 240.406 136.98H237.806V124.76C237.806 124.58 237.686 124.48 237.486 124.48H235.906C235.866 124.48 235.866 124.5 235.866 124.5C235.866 124.5 235.846 124.52 235.826 124.52C234.946 124.78 233.966 125.1 232.866 125.5C232.666 125.58 232.566 125.7 232.566 125.86V127C232.566 127.2 232.646 127.28 232.846 127.28H235.206V136.98H232.266C232.066 136.98 231.966 137.08 231.966 137.26V138.84ZM244.373 138.84C244.373 139.04 244.473 139.14 244.673 139.14H252.812C252.993 139.14 253.092 139.06 253.092 138.86V137.24C253.092 137.08 252.993 136.98 252.812 136.98H250.213V124.76C250.213 124.58 250.093 124.48 249.893 124.48H248.313C248.273 124.48 248.273 124.5 248.273 124.5C248.273 124.5 248.253 124.52 248.233 124.52C247.353 124.78 246.373 125.1 245.273 125.5C245.073 125.58 244.973 125.7 244.973 125.86V127C244.973 127.2 245.053 127.28 245.253 127.28H247.613V136.98H244.673C244.473 136.98 244.373 137.08 244.373 137.26V138.84ZM260.419 139.16C261.819 139.16 263.019 138.7 264.019 137.78C265.019 136.86 265.539 135.6 265.539 134.02C265.539 132.06 264.779 130.68 263.279 129.84C262.619 129.52 261.799 129.34 260.799 129.3C260.279 129.3 259.699 129.44 259.059 129.72L259.359 126.42H264.539C264.719 126.42 264.819 126.34 264.819 126.18V124.52C264.819 124.34 264.719 124.24 264.539 124.24H257.359C257.159 124.24 257.059 124.34 257.059 124.5L256.639 131.2C256.619 131.26 256.639 131.3 256.699 131.32L257.819 132.04C257.819 132.06 257.859 132.06 257.899 132.06C257.939 132.06 257.979 132.06 257.979 132.04C258.419 131.64 258.959 131.38 259.559 131.26C260.159 131.14 260.759 131.2 261.359 131.42C262.379 131.86 262.899 132.74 262.899 134.1C262.899 134.98 262.659 135.68 262.139 136.22C261.619 136.76 260.939 137.02 260.139 137.02C258.959 137.04 257.839 136.54 256.799 135.52C256.719 135.46 256.639 135.46 256.579 135.54L255.479 137.02C255.419 137.08 255.419 137.14 255.499 137.18C256.959 138.5 258.599 139.16 260.419 139.16ZM277.845 137.04L271.325 137.02C271.325 136.96 271.365 136.86 271.405 136.74C271.445 136.62 271.485 136.52 271.505 136.44C271.505 136.42 271.525 136.4 271.525 136.38C271.525 136.36 271.545 136.34 271.545 136.32L271.585 136.26C271.585 136.24 271.605 136.22 271.625 136.18C271.645 136.16 271.665 136.14 271.685 136.1C271.685 136.06 271.705 136.02 271.745 135.98C271.785 135.94 271.845 135.86 271.925 135.74C272.005 135.62 272.125 135.48 272.285 135.32C272.345 135.26 272.405 135.18 272.485 135.1C272.565 135.02 272.745 134.88 273.045 134.64C273.245 134.48 273.405 134.36 273.485 134.28C273.565 134.22 273.625 134.18 273.665 134.14C273.665 134.14 273.705 134.12 273.745 134.08C273.785 134.04 273.805 134.02 273.825 134.02L273.865 134L273.885 133.98L273.945 133.92C274.065 133.84 274.225 133.72 274.425 133.58C274.525 133.5 274.805 133.28 275.245 132.96C275.685 132.64 276.085 132.3 276.445 131.94C277.305 131.08 277.825 130.22 278.005 129.34C278.005 129.3 278.005 129.2 278.045 129.06C278.085 128.94 278.105 128.7 278.105 128.38C278.025 126.98 277.525 125.92 276.585 125.16C276.265 124.92 275.845 124.66 275.285 124.42C274.725 124.18 273.965 124.06 273.005 124.04C271.285 124.04 269.825 124.68 268.605 125.98H268.585C268.445 126.18 268.385 126.34 268.385 126.46C268.385 126.58 268.445 126.7 268.585 126.8L269.285 127.48C269.565 127.76 269.825 127.76 270.105 127.48C271.025 126.6 271.945 126.14 272.865 126.14C273.665 126.14 274.345 126.36 274.925 126.78C275.425 127.22 275.685 127.76 275.685 128.4C275.665 129.08 275.465 129.66 275.105 130.14C274.725 130.68 273.785 131.46 272.305 132.5C271.825 132.82 271.285 133.24 270.725 133.72C270.165 134.22 269.685 134.76 269.325 135.32C269.205 135.48 269.125 135.62 269.065 135.72C268.645 136.5 268.405 137.38 268.345 138.34C268.305 138.76 268.525 138.98 268.965 139H277.865C278.185 139 278.365 138.84 278.365 138.52V137.5C278.365 137.2 278.185 137.04 277.845 137.04Z" fill="#576168"/>
<path d="M291.401 132.231C290.969 131.781 290.483 131.52 289.952 131.448V130.44H289.232V131.457C288.773 131.538 288.413 131.736 288.143 132.042C287.873 132.357 287.738 132.744 287.738 133.203C287.738 133.509 287.801 133.77 287.945 134.004C288.08 134.238 288.251 134.418 288.458 134.544C288.656 134.679 288.881 134.814 289.124 134.949C289.367 135.084 289.592 135.201 289.799 135.309C289.997 135.417 290.168 135.552 290.312 135.732C290.447 135.912 290.519 136.11 290.519 136.335C290.519 136.641 290.429 136.866 290.249 137.028C290.069 137.19 289.817 137.271 289.475 137.271C288.98 137.271 288.476 137.055 287.954 136.623L287.486 137.334C287.711 137.541 287.981 137.712 288.296 137.856C288.602 138 288.917 138.081 289.232 138.108V139.107H289.952V138.081C290.438 138 290.825 137.802 291.104 137.478C291.374 137.154 291.518 136.749 291.518 136.263C291.518 135.876 291.419 135.543 291.23 135.273C291.032 135.003 290.807 134.787 290.537 134.634C290.267 134.49 289.988 134.355 289.718 134.229C289.448 134.103 289.214 133.959 289.025 133.779C288.827 133.608 288.737 133.401 288.737 133.158C288.737 132.888 288.818 132.672 288.989 132.519C289.151 132.366 289.385 132.285 289.673 132.285C289.907 132.285 290.114 132.33 290.294 132.42C290.465 132.51 290.654 132.645 290.861 132.834L291.401 132.231ZM293.835 137.928C293.835 138.018 293.88 138.063 293.97 138.063H297.633C297.714 138.063 297.759 138.027 297.759 137.937V137.208C297.759 137.136 297.714 137.091 297.633 137.091H296.463V131.592C296.463 131.511 296.409 131.466 296.319 131.466H295.608C295.59 131.466 295.59 131.475 295.59 131.475C295.59 131.475 295.581 131.484 295.572 131.484C295.176 131.601 294.735 131.745 294.24 131.925C294.15 131.961 294.105 132.015 294.105 132.087V132.6C294.105 132.69 294.141 132.726 294.231 132.726H295.293V137.091H293.97C293.88 137.091 293.835 137.136 293.835 137.217V137.928ZM303.865 137.118L300.931 137.109C300.931 137.082 300.949 137.037 300.967 136.983C300.985 136.929 301.003 136.884 301.012 136.848C301.012 136.839 301.021 136.83 301.021 136.821C301.021 136.812 301.03 136.803 301.03 136.794L301.048 136.767C301.048 136.758 301.057 136.749 301.066 136.731C301.075 136.722 301.084 136.713 301.093 136.695C301.093 136.677 301.102 136.659 301.12 136.641C301.138 136.623 301.165 136.587 301.201 136.533C301.237 136.479 301.291 136.416 301.363 136.344C301.39 136.317 301.417 136.281 301.453 136.245C301.489 136.209 301.57 136.146 301.705 136.038C301.795 135.966 301.867 135.912 301.903 135.876C301.939 135.849 301.966 135.831 301.984 135.813C301.984 135.813 302.002 135.804 302.02 135.786C302.038 135.768 302.047 135.759 302.056 135.759L302.074 135.75L302.083 135.741L302.11 135.714C302.164 135.678 302.236 135.624 302.326 135.561C302.371 135.525 302.497 135.426 302.695 135.282C302.893 135.138 303.073 134.985 303.235 134.823C303.622 134.436 303.856 134.049 303.937 133.653C303.937 133.635 303.937 133.59 303.955 133.527C303.973 133.473 303.982 133.365 303.982 133.221C303.946 132.591 303.721 132.114 303.298 131.772C303.154 131.664 302.965 131.547 302.713 131.439C302.461 131.331 302.119 131.277 301.687 131.268C300.913 131.268 300.256 131.556 299.707 132.141H299.698C299.635 132.231 299.608 132.303 299.608 132.357C299.608 132.411 299.635 132.465 299.698 132.51L300.013 132.816C300.139 132.942 300.256 132.942 300.382 132.816C300.796 132.42 301.21 132.213 301.624 132.213C301.984 132.213 302.29 132.312 302.551 132.501C302.776 132.699 302.893 132.942 302.893 133.23C302.884 133.536 302.794 133.797 302.632 134.013C302.461 134.256 302.038 134.607 301.372 135.075C301.156 135.219 300.913 135.408 300.661 135.624C300.409 135.849 300.193 136.092 300.031 136.344C299.977 136.416 299.941 136.479 299.914 136.524C299.725 136.875 299.617 137.271 299.59 137.703C299.572 137.892 299.671 137.991 299.869 138H303.874C304.018 138 304.099 137.928 304.099 137.784V137.325C304.099 137.19 304.018 137.118 303.865 137.118ZM308.51 139.62H309.23L311.732 130.818H311.012L308.51 139.62ZM314.133 137.883C314.439 138.027 314.817 138.09 315.276 138.09C315.933 138.09 316.446 137.964 316.815 137.694C317.184 137.433 317.373 137.091 317.373 136.659C317.373 135.93 316.833 135.462 315.753 135.246C315.402 135.183 315.141 135.12 314.97 135.057C314.79 134.994 314.673 134.922 314.619 134.85C314.565 134.778 314.538 134.688 314.538 134.58C314.538 134.427 314.592 134.301 314.718 134.202C314.835 134.112 315.006 134.058 315.231 134.058C315.393 134.058 315.528 134.085 315.645 134.13C315.753 134.184 315.861 134.247 315.951 134.328C316.041 134.409 316.113 134.463 316.158 134.49C316.194 134.544 316.239 134.562 316.311 134.562H316.986C317.04 134.562 317.085 134.544 317.121 134.508C317.157 134.472 317.184 134.418 317.184 134.364C317.184 134.229 317.103 134.067 316.95 133.887C316.797 133.707 316.572 133.554 316.284 133.428C315.987 133.302 315.636 133.23 315.231 133.23C314.835 133.23 314.493 133.302 314.205 133.437C313.917 133.572 313.71 133.743 313.566 133.959C313.422 134.175 313.35 134.4 313.35 134.634C313.35 135.003 313.467 135.3 313.71 135.516C313.953 135.741 314.331 135.903 314.844 136.011C315.195 136.092 315.456 136.164 315.636 136.227C315.816 136.29 315.933 136.362 316.005 136.434C316.077 136.506 316.113 136.605 316.113 136.722C316.113 136.902 316.032 137.037 315.888 137.127C315.735 137.217 315.537 137.262 315.303 137.262C315.141 137.262 314.988 137.244 314.853 137.19C314.718 137.136 314.601 137.064 314.493 136.974C314.394 136.893 314.331 136.839 314.295 136.803C314.259 136.758 314.214 136.731 314.169 136.731H313.431C313.377 136.731 313.323 136.749 313.287 136.785C313.251 136.821 313.233 136.875 313.233 136.929C313.233 137.064 313.305 137.226 313.449 137.406C313.593 137.586 313.827 137.748 314.133 137.883ZM319.725 137.514C320.121 137.901 320.652 138.09 321.336 138.09C321.75 138.09 322.11 138.018 322.434 137.874C322.758 137.73 323.001 137.568 323.172 137.37C323.334 137.172 323.424 137.001 323.424 136.857C323.424 136.803 323.406 136.767 323.37 136.731C323.325 136.704 323.28 136.686 323.226 136.686H322.434C322.362 136.686 322.317 136.695 322.29 136.713C322.254 136.731 322.218 136.767 322.164 136.83C321.948 137.109 321.66 137.244 321.318 137.244C321.012 137.244 320.778 137.136 320.607 136.92C320.436 136.704 320.346 136.425 320.346 136.083V136.011H323.334C323.388 136.011 323.442 135.993 323.487 135.948C323.523 135.912 323.55 135.858 323.55 135.795V135.606C323.55 134.886 323.352 134.31 322.965 133.878C322.578 133.446 322.029 133.23 321.318 133.23C320.616 133.23 320.076 133.446 319.689 133.878C319.293 134.31 319.104 134.904 319.104 135.651V135.876C319.122 136.587 319.329 137.136 319.725 137.514ZM322.308 135.246H320.346V135.228C320.337 134.877 320.418 134.598 320.598 134.382C320.778 134.166 321.012 134.058 321.318 134.058C321.624 134.058 321.858 134.166 322.038 134.382C322.218 134.598 322.308 134.877 322.308 135.228V135.246ZM326.135 137.883C326.441 138.027 326.819 138.09 327.278 138.09C327.935 138.09 328.448 137.964 328.817 137.694C329.186 137.433 329.375 137.091 329.375 136.659C329.375 135.93 328.835 135.462 327.755 135.246C327.404 135.183 327.143 135.12 326.972 135.057C326.792 134.994 326.675 134.922 326.621 134.85C326.567 134.778 326.54 134.688 326.54 134.58C326.54 134.427 326.594 134.301 326.72 134.202C326.837 134.112 327.008 134.058 327.233 134.058C327.395 134.058 327.53 134.085 327.647 134.13C327.755 134.184 327.863 134.247 327.953 134.328C328.043 134.409 328.115 134.463 328.16 134.49C328.196 134.544 328.241 134.562 328.313 134.562H328.988C329.042 134.562 329.087 134.544 329.123 134.508C329.159 134.472 329.186 134.418 329.186 134.364C329.186 134.229 329.105 134.067 328.952 133.887C328.799 133.707 328.574 133.554 328.286 133.428C327.989 133.302 327.638 133.23 327.233 133.23C326.837 133.23 326.495 133.302 326.207 133.437C325.919 133.572 325.712 133.743 325.568 133.959C325.424 134.175 325.352 134.4 325.352 134.634C325.352 135.003 325.469 135.3 325.712 135.516C325.955 135.741 326.333 135.903 326.846 136.011C327.197 136.092 327.458 136.164 327.638 136.227C327.818 136.29 327.935 136.362 328.007 136.434C328.079 136.506 328.115 136.605 328.115 136.722C328.115 136.902 328.034 137.037 327.89 137.127C327.737 137.217 327.539 137.262 327.305 137.262C327.143 137.262 326.99 137.244 326.855 137.19C326.72 137.136 326.603 137.064 326.495 136.974C326.396 136.893 326.333 136.839 326.297 136.803C326.261 136.758 326.216 136.731 326.171 136.731H325.433C325.379 136.731 325.325 136.749 325.289 136.785C325.253 136.821 325.235 136.875 325.235 136.929C325.235 137.064 325.307 137.226 325.451 137.406C325.595 137.586 325.829 137.748 326.135 137.883ZM331.934 137.883C332.24 138.027 332.618 138.09 333.077 138.09C333.734 138.09 334.247 137.964 334.616 137.694C334.985 137.433 335.174 137.091 335.174 136.659C335.174 135.93 334.634 135.462 333.554 135.246C333.203 135.183 332.942 135.12 332.771 135.057C332.591 134.994 332.474 134.922 332.42 134.85C332.366 134.778 332.339 134.688 332.339 134.58C332.339 134.427 332.393 134.301 332.519 134.202C332.636 134.112 332.807 134.058 333.032 134.058C333.194 134.058 333.329 134.085 333.446 134.13C333.554 134.184 333.662 134.247 333.752 134.328C333.842 134.409 333.914 134.463 333.959 134.49C333.995 134.544 334.04 134.562 334.112 134.562H334.787C334.841 134.562 334.886 134.544 334.922 134.508C334.958 134.472 334.985 134.418 334.985 134.364C334.985 134.229 334.904 134.067 334.751 133.887C334.598 133.707 334.373 133.554 334.085 133.428C333.788 133.302 333.437 133.23 333.032 133.23C332.636 133.23 332.294 133.302 332.006 133.437C331.718 133.572 331.511 133.743 331.367 133.959C331.223 134.175 331.151 134.4 331.151 134.634C331.151 135.003 331.268 135.3 331.511 135.516C331.754 135.741 332.132 135.903 332.645 136.011C332.996 136.092 333.257 136.164 333.437 136.227C333.617 136.29 333.734 136.362 333.806 136.434C333.878 136.506 333.914 136.605 333.914 136.722C333.914 136.902 333.833 137.037 333.689 137.127C333.536 137.217 333.338 137.262 333.104 137.262C332.942 137.262 332.789 137.244 332.654 137.19C332.519 137.136 332.402 137.064 332.294 136.974C332.195 136.893 332.132 136.839 332.096 136.803C332.06 136.758 332.015 136.731 331.97 136.731H331.232C331.178 136.731 331.124 136.749 331.088 136.785C331.052 136.821 331.034 136.875 331.034 136.929C331.034 137.064 331.106 137.226 331.25 137.406C331.394 137.586 331.628 137.748 331.934 137.883ZM337.13 132.393C337.166 132.438 337.22 132.456 337.283 132.456H338.111C338.174 132.456 338.228 132.438 338.273 132.393C338.318 132.357 338.345 132.303 338.345 132.24V131.583C338.345 131.52 338.318 131.466 338.282 131.421C338.237 131.385 338.183 131.358 338.111 131.358H337.283C337.22 131.358 337.166 131.385 337.13 131.421C337.085 131.466 337.067 131.52 337.067 131.583V132.24C337.067 132.303 337.085 132.357 337.13 132.393ZM337.166 137.937C337.202 137.982 337.256 138 337.319 138H338.093C338.147 138 338.201 137.982 338.246 137.937C338.282 137.901 338.309 137.847 338.309 137.784V133.536C338.309 133.482 338.282 133.428 338.246 133.383C338.201 133.347 338.147 133.32 338.093 133.32H337.319C337.265 133.32 337.211 133.347 337.166 133.383C337.121 133.419 337.103 133.473 337.103 133.536V137.784C337.103 137.847 337.121 137.901 337.166 137.937ZM340.917 137.568C341.304 137.928 341.853 138.108 342.555 138.108C343.257 138.108 343.797 137.928 344.184 137.568C344.571 137.208 344.778 136.713 344.805 136.074C344.814 136.011 344.823 135.876 344.823 135.678C344.823 135.48 344.814 135.354 344.805 135.282C344.778 134.652 344.571 134.157 344.175 133.797C343.779 133.437 343.239 133.248 342.555 133.248C341.862 133.248 341.322 133.437 340.926 133.797C340.53 134.157 340.323 134.652 340.305 135.282L340.287 135.678L340.305 136.074C340.323 136.713 340.53 137.208 340.917 137.568ZM342.555 137.199C342.231 137.199 341.988 137.1 341.817 136.902C341.637 136.704 341.547 136.416 341.547 136.029L341.529 135.678L341.547 135.327C341.547 134.949 341.637 134.652 341.817 134.454C341.988 134.256 342.231 134.148 342.555 134.148C342.87 134.148 343.113 134.256 343.293 134.454C343.464 134.652 343.554 134.949 343.563 135.327C343.572 135.39 343.581 135.507 343.581 135.678C343.581 135.858 343.572 135.975 343.563 136.029C343.554 136.416 343.464 136.704 343.293 136.902C343.122 137.1 342.879 137.199 342.555 137.199ZM346.883 137.937C346.919 137.982 346.973 138 347.036 138H347.837C347.9 138 347.954 137.982 347.99 137.937C348.026 137.901 348.053 137.847 348.053 137.784V135.309C348.053 134.967 348.143 134.697 348.332 134.499C348.512 134.301 348.764 134.202 349.07 134.202C349.385 134.202 349.628 134.301 349.799 134.499C349.97 134.697 350.06 134.967 350.06 135.309V137.784C350.06 137.847 350.078 137.901 350.123 137.937C350.159 137.982 350.213 138 350.276 138H351.086C351.149 138 351.203 137.982 351.239 137.937C351.275 137.901 351.302 137.847 351.302 137.784V135.255C351.302 134.625 351.14 134.13 350.816 133.77C350.492 133.41 350.051 133.23 349.502 133.23C348.863 133.23 348.359 133.455 347.999 133.905V133.545C347.999 133.482 347.972 133.428 347.936 133.392C347.9 133.356 347.846 133.329 347.783 133.329H347.036C346.973 133.329 346.919 133.356 346.883 133.392C346.838 133.428 346.82 133.482 346.82 133.545V137.784C346.82 137.847 346.838 137.901 346.883 137.937Z" fill="#2D3942"/>
<defs>
<filter id="filter0_d" x="0" y="0" width="379" height="180" filterUnits="userSpaceOnUse" color-interpolation-filters="sRGB">
<feFlood flood-opacity="0" result="BackgroundImageFix"/>
<feColorMatrix in="SourceAlpha" type="matrix" values="0 0 0 0 0 0 0 0 0 0 0 0 0 0 0 0 0 0 127 0"/>
<feOffset dy="2"/>
<feGaussianBlur stdDeviation="4"/>
<feColorMatrix type="matrix" values="0 0 0 0 0 0 0 0 0 0 0 0 0 0 0 0 0 0 0.04 0"/>
<feBlend mode="normal" in2="BackgroundImageFix" result="effect1_dropShadow"/>
<feBlend mode="normal" in="SourceGraphic" in2="effect1_dropShadow" result="shape"/>
</filter>
</defs>
</svg>
