<svg width="379" height="180" viewBox="0 0 379 180" fill="none" xmlns="http://www.w3.org/2000/svg">
<g filter="url(#filter0_d)">
<rect x="8" y="6" width="363" height="164" rx="12" fill="white"/>
<rect x="8.5" y="6.5" width="362" height="163" rx="11.5" stroke="#EAEBEC"/>
</g>
<line x1="189.5" y1="100" x2="189.5" y2="162" stroke="#D5D7D9"/>
<line x1="189.5" y1="68" x2="189.5" y2="84" stroke="#D5D7D9"/>
<line x1="8" y1="91.5" x2="371" y2="91.5" stroke="#D5D7D9" stroke-dasharray="3 3"/>
<line x1="8" y1="60.5" x2="371" y2="60.5" stroke="#D5D7D9"/>
<path d="M8 18C8 11.3726 13.3726 6 20 6H359C365.627 6 371 11.3726 371 18V60H8V18Z" fill="#6ACFED"/>
<path d="M145.764 40.86C145.844 40.96 145.964 41 146.124 41H148.864C149.004 41 149.124 40.96 149.224 40.86C149.324 40.76 149.384 40.64 149.384 40.48V35.42H154.104V40.48C154.104 40.64 154.144 40.76 154.244 40.86C154.344 40.96 154.464 41 154.624 41H157.344C157.484 41 157.604 40.96 157.704 40.86C157.804 40.76 157.864 40.64 157.864 40.48V27.1C157.864 26.94 157.804 26.82 157.704 26.72C157.604 26.62 157.484 26.56 157.344 26.56H154.624C154.464 26.56 154.344 26.62 154.244 26.72C154.144 26.82 154.104 26.94 154.104 27.1V31.98H149.384V27.1C149.384 26.94 149.324 26.82 149.224 26.72C149.124 26.62 149.004 26.56 148.864 26.56H146.124C145.964 26.56 145.844 26.62 145.764 26.72C145.664 26.82 145.624 26.94 145.624 27.1V40.48C145.624 40.64 145.664 40.76 145.764 40.86ZM166.825 29.62C167.305 29.62 167.725 29.72 168.065 29.92C168.385 30.12 168.605 30.34 168.685 30.62C168.845 30.88 169.065 31 169.365 31H172.165C172.285 31 172.385 30.96 172.465 30.86C172.545 30.78 172.585 30.66 172.585 30.54C172.545 29.96 172.305 29.36 171.845 28.74C171.385 28.12 170.725 27.6 169.865 27.18C169.005 26.78 168.005 26.56 166.865 26.56C165.705 26.56 164.705 26.76 163.865 27.12C163.025 27.48 162.365 28 161.905 28.66C161.445 29.32 161.225 30.06 161.225 30.9C161.225 32.14 161.625 33.08 162.425 33.74C163.225 34.42 164.405 34.92 166.005 35.24C167.585 35.56 168.545 35.88 168.905 36.18C169.105 36.38 169.205 36.64 169.205 36.98C169.205 37.32 169.005 37.6 168.625 37.82C168.225 38.04 167.685 38.14 166.965 38.14C165.845 38.14 165.085 37.78 164.685 37.04C164.465 36.8 164.225 36.66 163.965 36.66H161.305C161.185 36.66 161.065 36.7 160.985 36.78C160.905 36.86 160.865 36.98 160.865 37.1C160.885 37.82 161.125 38.5 161.605 39.12C162.065 39.76 162.745 40.26 163.665 40.64C164.585 41.02 165.645 41.2 166.885 41.2C168.125 41.2 169.205 41.02 170.125 40.66C171.045 40.3 171.765 39.78 172.285 39.1C172.805 38.42 173.065 37.64 173.065 36.76C173.065 35.88 172.885 35.18 172.525 34.62C172.165 34.08 171.625 33.64 170.885 33.28C170.145 32.94 169.145 32.66 167.905 32.42C166.805 32.18 166.065 31.96 165.665 31.74C165.265 31.52 165.065 31.2 165.065 30.8C165.065 30.02 165.645 29.62 166.825 29.62ZM176.025 40.84C176.125 40.96 176.245 41 176.365 41H179.045C179.205 41 179.325 40.96 179.425 40.86C179.505 40.76 179.565 40.64 179.565 40.48V35.56L183.365 40.58C183.405 40.7 183.505 40.8 183.625 40.88C183.745 40.96 183.925 41 184.165 41H187.285C187.405 41 187.525 40.96 187.605 40.88C187.685 40.8 187.725 40.7 187.725 40.58C187.725 40.46 187.685 40.38 187.645 40.32L182.605 33.48L187.285 27.24C187.325 27.2 187.365 27.12 187.365 27C187.365 26.9 187.305 26.8 187.225 26.7C187.145 26.62 187.045 26.56 186.925 26.56H183.885C183.485 26.56 183.225 26.7 183.085 26.98L179.565 31.6V27.1C179.565 26.96 179.505 26.84 179.405 26.72C179.305 26.62 179.185 26.56 179.045 26.56H176.365C176.205 26.56 176.085 26.62 176.005 26.72C175.925 26.84 175.885 26.96 175.885 27.1V40.48C175.885 40.62 175.925 40.74 176.025 40.84ZM196.056 40.5C196.056 40.64 196.096 40.76 196.196 40.86C196.276 40.96 196.396 41 196.536 41H204.456C204.576 41 204.696 40.96 204.796 40.86C204.896 40.76 204.956 40.64 204.956 40.5V38.62C204.956 38.5 204.896 38.38 204.796 38.28C204.696 38.2 204.576 38.14 204.456 38.14H202.216V26.82C202.216 26.7 202.156 26.58 202.056 26.48C201.956 26.38 201.836 26.32 201.716 26.32H199.576C199.496 26.32 199.416 26.34 199.336 26.38C198.416 26.92 197.516 27.28 196.636 27.48C196.516 27.5 196.416 27.56 196.356 27.64C196.276 27.74 196.256 27.84 196.256 27.96V29.02C196.256 29.16 196.296 29.28 196.396 29.38C196.476 29.48 196.596 29.52 196.736 29.52H198.856V38.14H196.536C196.396 38.14 196.276 38.2 196.196 38.28C196.096 38.38 196.056 38.5 196.056 38.64V40.5ZM210.593 36.9C210.593 36.22 210.993 35.54 211.813 34.82C212.753 36.08 213.873 37.24 215.153 38.28C214.393 38.78 213.673 39.02 212.993 39.02C212.273 39.02 211.693 38.84 211.253 38.44C210.813 38.04 210.593 37.54 210.593 36.9ZM212.073 29.68C212.073 29.14 212.193 28.7 212.473 28.38C212.753 28.06 213.113 27.88 213.553 27.88C214.293 27.88 214.673 28.32 214.673 29.16C214.673 29.66 214.493 30.1 214.133 30.48C213.773 30.88 213.273 31.26 212.613 31.66C212.253 30.92 212.073 30.26 212.073 29.68ZM221.573 38.88C220.833 38.76 219.953 38.4 218.953 37.82C220.053 36.34 220.893 34.64 221.453 32.74H218.793C218.393 34.14 217.793 35.4 216.973 36.5C215.713 35.54 214.653 34.52 213.773 33.42C214.253 33.1 214.653 32.8 214.953 32.56C215.253 32.32 215.573 32 215.933 31.64C216.273 31.28 216.533 30.88 216.693 30.46C216.853 30.06 216.953 29.62 216.953 29.14C216.953 28.18 216.633 27.4 216.013 26.8C215.393 26.22 214.553 25.92 213.513 25.92C212.353 25.92 211.413 26.3 210.693 27.02C209.973 27.74 209.633 28.64 209.633 29.68C209.633 30.64 209.933 31.72 210.573 32.88C209.693 33.44 209.013 34.04 208.533 34.68C208.033 35.34 207.793 36.14 207.793 37.08C207.793 38.28 208.213 39.28 209.093 40.08C209.953 40.88 211.133 41.28 212.633 41.28C214.333 41.28 215.853 40.76 217.173 39.72C218.373 40.48 219.613 41 220.853 41.28L221.573 38.88ZM233.379 41C233.599 41.02 233.759 40.96 233.879 40.8C233.999 40.64 234.039 40.5 234.039 40.34V38.8C234.039 38.62 233.959 38.46 233.839 38.34C233.719 38.22 233.559 38.14 233.379 38.14H227.479C227.639 37.86 227.859 37.62 228.159 37.4C228.439 37.2 228.859 36.94 229.399 36.62C229.939 36.32 230.499 35.96 231.079 35.56C231.639 35.16 232.099 34.76 232.439 34.38C232.759 34.02 232.979 33.76 233.099 33.62C234.139 32.32 234.339 30.82 233.699 29.12C233.199 27.82 232.219 26.88 230.739 26.32C230.259 26.16 229.579 26.06 228.699 26.06C227.459 26.06 226.359 26.4 225.419 27.06C224.739 27.56 224.199 28.18 223.819 28.92C223.719 29.1 223.699 29.28 223.779 29.46C223.859 29.66 223.979 29.78 224.179 29.84L225.459 30.34C225.539 30.38 225.619 30.38 225.699 30.38C225.939 30.38 226.139 30.28 226.279 30.04C226.759 29.18 227.599 28.74 228.799 28.74C229.019 28.74 229.259 28.8 229.539 28.9C230.059 29.1 230.459 29.46 230.719 29.94C230.979 30.42 231.039 30.92 230.879 31.42C230.799 31.66 230.599 31.96 230.239 32.36C229.879 32.76 229.439 33.14 228.899 33.52C227.779 34.2 226.859 34.86 226.119 35.46C224.759 36.58 224.019 37.96 223.939 39.56L223.899 40.28C223.879 40.48 223.939 40.66 224.079 40.8C224.199 40.94 224.359 41 224.559 41H233.379Z" fill="white"/>
<path d="M78.294 81.916C78.35 81.972 78.42 82 78.504 82H79.75C79.946 82 80.072 81.916 80.156 81.734L80.8 79.998H84.944L85.588 81.734C85.658 81.916 85.798 82 85.994 82H87.24C87.31 82 87.38 81.972 87.436 81.916C87.492 81.86 87.534 81.79 87.534 81.706L87.506 81.58L84.146 72.34C84.048 72.102 83.88 71.976 83.642 71.976H82.102C81.85 71.976 81.682 72.102 81.598 72.34L78.238 81.58L78.21 81.706C78.21 81.79 78.238 81.86 78.294 81.916ZM81.29 78.346L82.872 73.936L84.454 78.346H81.29ZM90.1627 81.23C90.6667 81.846 91.3807 82.14 92.3327 82.14C93.2987 82.14 94.0407 81.804 94.5587 81.132V81.664C94.5587 81.762 94.5867 81.846 94.6567 81.902C94.7127 81.972 94.7967 82 94.8947 82H96.0287C96.1267 82 96.2107 81.972 96.2667 81.902C96.3227 81.846 96.3647 81.762 96.3647 81.664L96.3787 72.172C96.3787 72.074 96.3367 71.99 96.2807 71.934C96.2247 71.878 96.1407 71.836 96.0427 71.836H94.8247C94.7267 71.836 94.6427 71.878 94.5867 71.934C94.5167 71.99 94.4887 72.074 94.4887 72.172L94.4747 75.476C93.9987 74.944 93.2847 74.664 92.3047 74.664C91.3247 74.664 90.5967 74.944 90.1487 75.476C89.6447 76.092 89.3647 76.904 89.3367 77.884L89.3227 78.346L89.3367 78.808C89.3787 79.816 89.6587 80.628 90.1627 81.23ZM94.0407 80.11C93.7887 80.446 93.3967 80.614 92.8647 80.614C91.8567 80.614 91.3247 79.998 91.2687 78.766L91.2547 78.346L91.2687 77.926C91.2967 77.31 91.4367 76.876 91.6887 76.596C91.9407 76.316 92.3327 76.176 92.8367 76.176C93.4247 76.176 93.8167 76.316 94.0407 76.568C94.3067 76.904 94.4467 77.296 94.4747 77.758C94.4747 77.87 94.4887 78.052 94.4887 78.304C94.4887 78.556 94.4747 78.724 94.4747 78.836C94.4467 79.34 94.2927 79.774 94.0407 80.11ZM99.9163 81.314C100.406 81.874 101.092 82.154 101.96 82.154C102.982 82.154 103.752 81.804 104.284 81.104V81.678C104.284 81.776 104.312 81.86 104.382 81.916C104.438 81.986 104.522 82.014 104.62 82.014H105.768C105.88 82.014 105.964 81.986 106.02 81.916C106.076 81.846 106.104 81.762 106.104 81.678V75.07C106.104 74.972 106.076 74.888 106.02 74.832C105.964 74.776 105.88 74.734 105.768 74.734H104.536C104.438 74.734 104.354 74.776 104.298 74.832C104.228 74.888 104.2 74.972 104.2 75.07V78.92C104.2 79.452 104.046 79.872 103.766 80.18C103.486 80.488 103.094 80.642 102.604 80.642C101.61 80.642 101.12 80.068 101.12 78.92V75.07C101.12 74.986 101.078 74.902 101.022 74.832C100.952 74.776 100.868 74.734 100.784 74.734H99.5243C99.4263 74.734 99.3423 74.776 99.2863 74.832C99.2163 74.888 99.1883 74.972 99.1883 75.07V79.004C99.1883 79.984 99.4263 80.754 99.9163 81.314ZM109.065 81.902C109.121 81.972 109.205 82 109.303 82H110.479C110.577 82 110.661 81.972 110.717 81.902C110.773 81.846 110.815 81.762 110.815 81.664V71.752C110.815 71.654 110.773 71.57 110.717 71.514C110.661 71.458 110.577 71.416 110.479 71.416H109.303C109.205 71.416 109.121 71.458 109.065 71.514C108.995 71.57 108.967 71.654 108.967 71.752V81.664C108.967 81.762 108.995 81.846 109.065 81.902ZM115.058 81.342C115.478 81.79 116.122 82 116.976 82H118.124C118.222 82 118.306 81.972 118.362 81.902C118.418 81.846 118.46 81.762 118.46 81.664V80.782C118.46 80.684 118.418 80.6 118.362 80.544C118.306 80.488 118.222 80.446 118.124 80.446H117.144C116.822 80.446 116.598 80.348 116.458 80.138C116.318 79.942 116.248 79.634 116.248 79.228V76.218H117.998C118.082 76.218 118.166 76.19 118.236 76.12C118.292 76.064 118.334 75.98 118.334 75.882V75.056C118.334 74.972 118.292 74.888 118.236 74.818C118.166 74.762 118.082 74.72 117.998 74.72H116.248V72.396C116.248 72.298 116.206 72.214 116.15 72.158C116.094 72.102 116.01 72.06 115.912 72.06H114.75C114.652 72.06 114.568 72.102 114.512 72.158C114.442 72.214 114.414 72.298 114.414 72.396V74.72H113.308C113.21 74.72 113.126 74.762 113.07 74.818C113 74.888 112.972 74.972 112.972 75.056V75.882C112.972 75.98 113 76.064 113.07 76.12C113.126 76.19 113.21 76.218 113.308 76.218H114.414V79.382C114.414 80.25 114.624 80.894 115.058 81.342Z" fill="#2D3942"/>
<path d="M251.338 81.748C251.94 82 252.668 82.126 253.508 82.126C254.292 82.126 254.978 82.014 255.58 81.776C256.182 81.538 256.644 81.188 256.98 80.74C257.316 80.292 257.484 79.746 257.484 79.13C257.484 78.57 257.358 78.122 257.134 77.758C256.896 77.394 256.532 77.1 256.056 76.862C255.566 76.624 254.908 76.414 254.068 76.218C253.466 76.064 253.004 75.924 252.682 75.784C252.36 75.658 252.122 75.504 251.982 75.336C251.842 75.168 251.772 74.958 251.772 74.692C251.772 74.328 251.912 74.034 252.206 73.838C252.486 73.642 252.892 73.53 253.424 73.53C253.872 73.53 254.264 73.642 254.586 73.838C254.894 74.048 255.076 74.3 255.132 74.594C255.202 74.776 255.342 74.86 255.552 74.86H256.896C256.98 74.86 257.036 74.832 257.092 74.762C257.148 74.706 257.176 74.636 257.176 74.552C257.148 74.16 256.994 73.754 256.714 73.334C256.42 72.914 255.986 72.578 255.426 72.298C254.852 72.018 254.18 71.878 253.424 71.878C252.668 71.878 252.024 72.004 251.464 72.256C250.904 72.508 250.484 72.844 250.19 73.278C249.896 73.712 249.756 74.202 249.756 74.734C249.742 75.56 249.994 76.19 250.512 76.624C251.03 77.058 251.842 77.408 252.948 77.674C253.62 77.856 254.124 78.01 254.46 78.136C254.796 78.262 255.048 78.416 255.216 78.584C255.384 78.752 255.468 78.962 255.468 79.214C255.468 79.606 255.3 79.914 254.964 80.138C254.628 80.362 254.152 80.474 253.508 80.474C252.92 80.474 252.458 80.376 252.122 80.152C251.786 79.928 251.576 79.662 251.492 79.34C251.436 79.256 251.38 79.2 251.31 79.144C251.24 79.088 251.156 79.06 251.072 79.06H249.784C249.7 79.06 249.644 79.102 249.588 79.158C249.532 79.228 249.504 79.298 249.504 79.368C249.518 79.858 249.672 80.306 249.98 80.726C250.288 81.146 250.736 81.496 251.338 81.748ZM261.306 81.342C261.726 81.79 262.37 82 263.224 82H264.372C264.47 82 264.554 81.972 264.61 81.902C264.666 81.846 264.708 81.762 264.708 81.664V80.782C264.708 80.684 264.666 80.6 264.61 80.544C264.554 80.488 264.47 80.446 264.372 80.446H263.392C263.07 80.446 262.846 80.348 262.706 80.138C262.566 79.942 262.496 79.634 262.496 79.228V76.218H264.246C264.33 76.218 264.414 76.19 264.484 76.12C264.54 76.064 264.582 75.98 264.582 75.882V75.056C264.582 74.972 264.54 74.888 264.484 74.818C264.414 74.762 264.33 74.72 264.246 74.72H262.496V72.396C262.496 72.298 262.454 72.214 262.398 72.158C262.342 72.102 262.258 72.06 262.16 72.06H260.998C260.9 72.06 260.816 72.102 260.76 72.158C260.69 72.214 260.662 72.298 260.662 72.396V74.72H259.556C259.458 74.72 259.374 74.762 259.318 74.818C259.248 74.888 259.22 74.972 259.22 75.056V75.882C259.22 75.98 259.248 76.064 259.318 76.12C259.374 76.19 259.458 76.218 259.556 76.218H260.662V79.382C260.662 80.25 260.872 80.894 261.306 81.342ZM267.621 81.314C268.111 81.874 268.797 82.154 269.665 82.154C270.687 82.154 271.457 81.804 271.989 81.104V81.678C271.989 81.776 272.017 81.86 272.087 81.916C272.143 81.986 272.227 82.014 272.325 82.014H273.473C273.585 82.014 273.669 81.986 273.725 81.916C273.781 81.846 273.809 81.762 273.809 81.678V75.07C273.809 74.972 273.781 74.888 273.725 74.832C273.669 74.776 273.585 74.734 273.473 74.734H272.241C272.143 74.734 272.059 74.776 272.003 74.832C271.933 74.888 271.905 74.972 271.905 75.07V78.92C271.905 79.452 271.751 79.872 271.471 80.18C271.191 80.488 270.799 80.642 270.309 80.642C269.315 80.642 268.825 80.068 268.825 78.92V75.07C268.825 74.986 268.783 74.902 268.727 74.832C268.657 74.776 268.573 74.734 268.489 74.734H267.229C267.131 74.734 267.047 74.776 266.991 74.832C266.921 74.888 266.893 74.972 266.893 75.07V79.004C266.893 79.984 267.131 80.754 267.621 81.314ZM277.176 81.23C277.68 81.846 278.394 82.14 279.346 82.14C280.312 82.14 281.054 81.804 281.572 81.132V81.664C281.572 81.762 281.6 81.846 281.67 81.902C281.726 81.972 281.81 82 281.908 82H283.042C283.14 82 283.224 81.972 283.28 81.902C283.336 81.846 283.378 81.762 283.378 81.664L283.392 72.172C283.392 72.074 283.35 71.99 283.294 71.934C283.238 71.878 283.154 71.836 283.056 71.836H281.838C281.74 71.836 281.656 71.878 281.6 71.934C281.53 71.99 281.502 72.074 281.502 72.172L281.488 75.476C281.012 74.944 280.298 74.664 279.318 74.664C278.338 74.664 277.61 74.944 277.162 75.476C276.658 76.092 276.378 76.904 276.35 77.884L276.336 78.346L276.35 78.808C276.392 79.816 276.672 80.628 277.176 81.23ZM281.054 80.11C280.802 80.446 280.41 80.614 279.878 80.614C278.87 80.614 278.338 79.998 278.282 78.766L278.268 78.346L278.282 77.926C278.31 77.31 278.45 76.876 278.702 76.596C278.954 76.316 279.346 76.176 279.85 76.176C280.438 76.176 280.83 76.316 281.054 76.568C281.32 76.904 281.46 77.296 281.488 77.758C281.488 77.87 281.502 78.052 281.502 78.304C281.502 78.556 281.488 78.724 281.488 78.836C281.46 79.34 281.306 79.774 281.054 80.11ZM286.916 81.244C287.532 81.846 288.358 82.14 289.422 82.14C290.066 82.14 290.626 82.028 291.13 81.804C291.634 81.58 292.012 81.328 292.278 81.02C292.53 80.712 292.67 80.446 292.67 80.222C292.67 80.138 292.642 80.082 292.586 80.026C292.516 79.984 292.446 79.956 292.362 79.956H291.13C291.018 79.956 290.948 79.97 290.906 79.998C290.85 80.026 290.794 80.082 290.71 80.18C290.374 80.614 289.926 80.824 289.394 80.824C288.918 80.824 288.554 80.656 288.288 80.32C288.022 79.984 287.882 79.55 287.882 79.018V78.906H292.53C292.614 78.906 292.698 78.878 292.768 78.808C292.824 78.752 292.866 78.668 292.866 78.57V78.276C292.866 77.156 292.558 76.26 291.956 75.588C291.354 74.916 290.5 74.58 289.394 74.58C288.302 74.58 287.462 74.916 286.86 75.588C286.244 76.26 285.95 77.184 285.95 78.346V78.696C285.978 79.802 286.3 80.656 286.916 81.244ZM290.934 77.716H287.882V77.688C287.868 77.142 287.994 76.708 288.274 76.372C288.554 76.036 288.918 75.868 289.394 75.868C289.87 75.868 290.234 76.036 290.514 76.372C290.794 76.708 290.934 77.142 290.934 77.688V77.716ZM295.45 81.902C295.506 81.972 295.59 82 295.688 82H296.934C297.032 82 297.116 81.972 297.172 81.902C297.228 81.846 297.27 81.762 297.27 81.664V77.814C297.27 77.282 297.41 76.862 297.704 76.554C297.984 76.246 298.376 76.092 298.852 76.092C299.342 76.092 299.72 76.246 299.986 76.554C300.252 76.862 300.392 77.282 300.392 77.814V81.664C300.392 81.762 300.42 81.846 300.49 81.902C300.546 81.972 300.63 82 300.728 82H301.988C302.086 82 302.17 81.972 302.226 81.902C302.282 81.846 302.324 81.762 302.324 81.664V77.73C302.324 76.75 302.072 75.98 301.568 75.42C301.064 74.86 300.378 74.58 299.524 74.58C298.53 74.58 297.746 74.93 297.186 75.63V75.07C297.186 74.972 297.144 74.888 297.088 74.832C297.032 74.776 296.948 74.734 296.85 74.734H295.688C295.59 74.734 295.506 74.776 295.45 74.832C295.38 74.888 295.352 74.972 295.352 75.07V81.664C295.352 81.762 295.38 81.846 295.45 81.902ZM306.488 81.342C306.908 81.79 307.552 82 308.406 82H309.554C309.652 82 309.736 81.972 309.792 81.902C309.848 81.846 309.89 81.762 309.89 81.664V80.782C309.89 80.684 309.848 80.6 309.792 80.544C309.736 80.488 309.652 80.446 309.554 80.446H308.574C308.252 80.446 308.028 80.348 307.888 80.138C307.748 79.942 307.678 79.634 307.678 79.228V76.218H309.428C309.512 76.218 309.596 76.19 309.666 76.12C309.722 76.064 309.764 75.98 309.764 75.882V75.056C309.764 74.972 309.722 74.888 309.666 74.818C309.596 74.762 309.512 74.72 309.428 74.72H307.678V72.396C307.678 72.298 307.636 72.214 307.58 72.158C307.524 72.102 307.44 72.06 307.342 72.06H306.18C306.082 72.06 305.998 72.102 305.942 72.158C305.872 72.214 305.844 72.298 305.844 72.396V74.72H304.738C304.64 74.72 304.556 74.762 304.5 74.818C304.43 74.888 304.402 74.972 304.402 75.056V75.882C304.402 75.98 304.43 76.064 304.5 76.12C304.556 76.19 304.64 76.218 304.738 76.218H305.844V79.382C305.844 80.25 306.054 80.894 306.488 81.342Z" fill="#2D3942"/>
<path d="M47.78 126.18C46.82 125.18 45.74 124.6 44.56 124.44V122.2H42.96V124.46C41.94 124.64 41.14 125.08 40.54 125.76C39.94 126.46 39.64 127.32 39.64 128.34C39.64 129.02 39.78 129.6 40.1 130.12C40.4 130.64 40.78 131.04 41.24 131.32C41.68 131.62 42.18 131.92 42.72 132.22C43.26 132.52 43.76 132.78 44.22 133.02C44.66 133.26 45.04 133.56 45.36 133.96C45.66 134.36 45.82 134.8 45.82 135.3C45.82 135.98 45.62 136.48 45.22 136.84C44.82 137.2 44.26 137.38 43.5 137.38C42.4 137.38 41.28 136.9 40.12 135.94L39.08 137.52C39.58 137.98 40.18 138.36 40.88 138.68C41.56 139 42.26 139.18 42.96 139.24V141.46H44.56V139.18C45.64 139 46.5 138.56 47.12 137.84C47.72 137.12 48.04 136.22 48.04 135.14C48.04 134.28 47.82 133.54 47.4 132.94C46.96 132.34 46.46 131.86 45.86 131.52C45.26 131.2 44.64 130.9 44.04 130.62C43.44 130.34 42.92 130.02 42.5 129.62C42.06 129.24 41.86 128.78 41.86 128.24C41.86 127.64 42.04 127.16 42.42 126.82C42.78 126.48 43.3 126.3 43.94 126.3C44.46 126.3 44.92 126.4 45.32 126.6C45.7 126.8 46.12 127.1 46.58 127.52L47.78 126.18ZM61.3663 133.38C61.3663 133.2 61.2663 133.1 61.0663 133.1H59.4863V124.6C59.4863 124.42 59.3863 124.32 59.1863 124.32H56.7663C56.6463 124.32 56.5663 124.36 56.5263 124.42L50.6863 133.4C50.6463 133.44 50.6463 133.5 50.6463 133.54V134.84C50.6463 135.04 50.7463 135.14 50.9463 135.14H57.0063V138.72C57.0063 138.92 57.1063 139 57.3063 139H59.1863C59.3863 139 59.4863 138.92 59.4863 138.72V135.14H61.0663C61.2663 135.14 61.3663 135.04 61.3663 134.84V133.38ZM53.4063 133.1L56.1463 129.02L56.1663 128.98C56.2862 128.78 56.4463 128.48 56.6463 128.08C56.8063 127.8 56.9463 127.52 57.1063 127.24C57.0263 128.48 57.0063 129.24 57.0063 129.48V133.1H53.4063ZM70.4725 134.68C70.4725 135.28 70.1925 135.86 69.6725 136.4C69.1525 136.96 68.5325 137.22 67.8325 137.2C66.7525 137.16 65.6525 136.6 64.5525 135.48C64.4125 135.36 64.2925 135.36 64.1725 135.5L63.1325 136.82C63.0725 136.9 63.0725 136.96 63.1125 137C64.2325 138.46 65.8725 139.18 68.0325 139.16C69.4325 139.16 70.6325 138.72 71.6325 137.88C71.8125 137.74 71.9925 137.58 72.1525 137.4C72.7925 136.64 73.1125 135.78 73.1125 134.8C73.0725 133.8 72.7725 133 72.2125 132.4C71.6925 131.84 71.0325 131.44 70.2325 131.16C70.6725 130.98 71.0725 130.74 71.4325 130.42C72.1925 129.74 72.5925 128.88 72.5925 127.8C72.5925 126.6 72.1725 125.66 71.3125 124.98C70.4325 124.3 69.2725 123.96 67.8325 123.96C66.3725 123.96 64.9925 124.54 63.6925 125.66C63.5725 125.78 63.5725 125.88 63.6725 126L64.7525 127.24C64.8725 127.38 65.0125 127.38 65.1725 127.24C66.0525 126.44 66.9525 126.04 67.8725 126.02C68.1925 126.02 68.4725 126.06 68.7525 126.14C69.5725 126.46 69.9925 127.06 69.9925 127.96C69.9525 129.52 68.7525 130.3 66.3725 130.3C66.1925 130.3 66.1125 130.38 66.1125 130.54V131.98C66.1125 132.14 66.1925 132.22 66.3725 132.22C69.1525 132.22 70.5125 133.04 70.4725 134.68ZM85.4388 137.04L78.9188 137.02C78.9188 136.96 78.9588 136.86 78.9988 136.74C79.0388 136.62 79.0788 136.52 79.0988 136.44C79.0988 136.42 79.1188 136.4 79.1188 136.38C79.1188 136.36 79.1388 136.34 79.1388 136.32L79.1788 136.26C79.1788 136.24 79.1988 136.22 79.2188 136.18C79.2388 136.16 79.2588 136.14 79.2788 136.1C79.2788 136.06 79.2988 136.02 79.3388 135.98C79.3788 135.94 79.4388 135.86 79.5188 135.74C79.5988 135.62 79.7188 135.48 79.8788 135.32C79.9388 135.26 79.9988 135.18 80.0788 135.1C80.1588 135.02 80.3388 134.88 80.6388 134.64C80.8388 134.48 80.9988 134.36 81.0788 134.28C81.1588 134.22 81.2188 134.18 81.2588 134.14C81.2588 134.14 81.2988 134.12 81.3388 134.08C81.3788 134.04 81.3988 134.02 81.4188 134.02L81.4588 134L81.4788 133.98L81.5388 133.92C81.6588 133.84 81.8188 133.72 82.0188 133.58C82.1188 133.5 82.3988 133.28 82.8388 132.96C83.2788 132.64 83.6788 132.3 84.0388 131.94C84.8988 131.08 85.4188 130.22 85.5988 129.34C85.5988 129.3 85.5988 129.2 85.6388 129.06C85.6788 128.94 85.6988 128.7 85.6988 128.38C85.6188 126.98 85.1188 125.92 84.1788 125.16C83.8588 124.92 83.4388 124.66 82.8788 124.42C82.3188 124.18 81.5588 124.06 80.5988 124.04C78.8788 124.04 77.4188 124.68 76.1988 125.98H76.1788C76.0388 126.18 75.9788 126.34 75.9788 126.46C75.9788 126.58 76.0388 126.7 76.1788 126.8L76.8788 127.48C77.1588 127.76 77.4188 127.76 77.6988 127.48C78.6188 126.6 79.5388 126.14 80.4588 126.14C81.2588 126.14 81.9388 126.36 82.5188 126.78C83.0188 127.22 83.2788 127.76 83.2788 128.4C83.2588 129.08 83.0588 129.66 82.6988 130.14C82.3188 130.68 81.3788 131.46 79.8988 132.5C79.4188 132.82 78.8788 133.24 78.3188 133.72C77.7588 134.22 77.2788 134.76 76.9188 135.32C76.7988 135.48 76.7188 135.62 76.6588 135.72C76.2388 136.5 75.9988 137.38 75.9388 138.34C75.8988 138.76 76.1188 138.98 76.5588 139H85.4588C85.7787 139 85.9588 138.84 85.9588 138.52V137.5C85.9588 137.2 85.7787 137.04 85.4388 137.04Z" fill="#576168"/>
<path d="M99.401 132.231C98.969 131.781 98.483 131.52 97.952 131.448V130.44H97.232V131.457C96.773 131.538 96.413 131.736 96.143 132.042C95.873 132.357 95.738 132.744 95.738 133.203C95.738 133.509 95.801 133.77 95.945 134.004C96.08 134.238 96.251 134.418 96.458 134.544C96.656 134.679 96.881 134.814 97.124 134.949C97.367 135.084 97.592 135.201 97.799 135.309C97.997 135.417 98.168 135.552 98.312 135.732C98.447 135.912 98.519 136.11 98.519 136.335C98.519 136.641 98.429 136.866 98.249 137.028C98.069 137.19 97.817 137.271 97.475 137.271C96.98 137.271 96.476 137.055 95.954 136.623L95.486 137.334C95.711 137.541 95.981 137.712 96.296 137.856C96.602 138 96.917 138.081 97.232 138.108V139.107H97.952V138.081C98.438 138 98.825 137.802 99.104 137.478C99.374 137.154 99.518 136.749 99.518 136.263C99.518 135.876 99.419 135.543 99.23 135.273C99.032 135.003 98.807 134.787 98.537 134.634C98.267 134.49 97.988 134.355 97.718 134.229C97.448 134.103 97.214 133.959 97.025 133.779C96.827 133.608 96.737 133.401 96.737 133.158C96.737 132.888 96.818 132.672 96.989 132.519C97.151 132.366 97.385 132.285 97.673 132.285C97.907 132.285 98.114 132.33 98.294 132.42C98.465 132.51 98.654 132.645 98.861 132.834L99.401 132.231ZM101.835 137.928C101.835 138.018 101.88 138.063 101.97 138.063H105.633C105.714 138.063 105.759 138.027 105.759 137.937V137.208C105.759 137.136 105.714 137.091 105.633 137.091H104.463V131.592C104.463 131.511 104.409 131.466 104.319 131.466H103.608C103.59 131.466 103.59 131.475 103.59 131.475C103.59 131.475 103.581 131.484 103.572 131.484C103.176 131.601 102.735 131.745 102.24 131.925C102.15 131.961 102.105 132.015 102.105 132.087V132.6C102.105 132.69 102.141 132.726 102.231 132.726H103.293V137.091H101.97C101.88 137.091 101.835 137.136 101.835 137.217V137.928ZM111.865 137.118L108.931 137.109C108.931 137.082 108.949 137.037 108.967 136.983C108.985 136.929 109.003 136.884 109.012 136.848C109.012 136.839 109.021 136.83 109.021 136.821C109.021 136.812 109.03 136.803 109.03 136.794L109.048 136.767C109.048 136.758 109.057 136.749 109.066 136.731C109.075 136.722 109.084 136.713 109.093 136.695C109.093 136.677 109.102 136.659 109.12 136.641C109.138 136.623 109.165 136.587 109.201 136.533C109.237 136.479 109.291 136.416 109.363 136.344C109.39 136.317 109.417 136.281 109.453 136.245C109.489 136.209 109.57 136.146 109.705 136.038C109.795 135.966 109.867 135.912 109.903 135.876C109.939 135.849 109.966 135.831 109.984 135.813C109.984 135.813 110.002 135.804 110.02 135.786C110.038 135.768 110.047 135.759 110.056 135.759L110.074 135.75L110.083 135.741L110.11 135.714C110.164 135.678 110.236 135.624 110.326 135.561C110.371 135.525 110.497 135.426 110.695 135.282C110.893 135.138 111.073 134.985 111.235 134.823C111.622 134.436 111.856 134.049 111.937 133.653C111.937 133.635 111.937 133.59 111.955 133.527C111.973 133.473 111.982 133.365 111.982 133.221C111.946 132.591 111.721 132.114 111.298 131.772C111.154 131.664 110.965 131.547 110.713 131.439C110.461 131.331 110.119 131.277 109.687 131.268C108.913 131.268 108.256 131.556 107.707 132.141H107.698C107.635 132.231 107.608 132.303 107.608 132.357C107.608 132.411 107.635 132.465 107.698 132.51L108.013 132.816C108.139 132.942 108.256 132.942 108.382 132.816C108.796 132.42 109.21 132.213 109.624 132.213C109.984 132.213 110.29 132.312 110.551 132.501C110.776 132.699 110.893 132.942 110.893 133.23C110.884 133.536 110.794 133.797 110.632 134.013C110.461 134.256 110.038 134.607 109.372 135.075C109.156 135.219 108.913 135.408 108.661 135.624C108.409 135.849 108.193 136.092 108.031 136.344C107.977 136.416 107.941 136.479 107.914 136.524C107.725 136.875 107.617 137.271 107.59 137.703C107.572 137.892 107.671 137.991 107.869 138H111.874C112.018 138 112.099 137.928 112.099 137.784V137.325C112.099 137.19 112.018 137.118 111.865 137.118ZM116.51 139.62H117.23L119.732 130.818H119.012L116.51 139.62ZM122.133 137.883C122.439 138.027 122.817 138.09 123.276 138.09C123.933 138.09 124.446 137.964 124.815 137.694C125.184 137.433 125.373 137.091 125.373 136.659C125.373 135.93 124.833 135.462 123.753 135.246C123.402 135.183 123.141 135.12 122.97 135.057C122.79 134.994 122.673 134.922 122.619 134.85C122.565 134.778 122.538 134.688 122.538 134.58C122.538 134.427 122.592 134.301 122.718 134.202C122.835 134.112 123.006 134.058 123.231 134.058C123.393 134.058 123.528 134.085 123.645 134.13C123.753 134.184 123.861 134.247 123.951 134.328C124.041 134.409 124.113 134.463 124.158 134.49C124.194 134.544 124.239 134.562 124.311 134.562H124.986C125.04 134.562 125.085 134.544 125.121 134.508C125.157 134.472 125.184 134.418 125.184 134.364C125.184 134.229 125.103 134.067 124.95 133.887C124.797 133.707 124.572 133.554 124.284 133.428C123.987 133.302 123.636 133.23 123.231 133.23C122.835 133.23 122.493 133.302 122.205 133.437C121.917 133.572 121.71 133.743 121.566 133.959C121.422 134.175 121.35 134.4 121.35 134.634C121.35 135.003 121.467 135.3 121.71 135.516C121.953 135.741 122.331 135.903 122.844 136.011C123.195 136.092 123.456 136.164 123.636 136.227C123.816 136.29 123.933 136.362 124.005 136.434C124.077 136.506 124.113 136.605 124.113 136.722C124.113 136.902 124.032 137.037 123.888 137.127C123.735 137.217 123.537 137.262 123.303 137.262C123.141 137.262 122.988 137.244 122.853 137.19C122.718 137.136 122.601 137.064 122.493 136.974C122.394 136.893 122.331 136.839 122.295 136.803C122.259 136.758 122.214 136.731 122.169 136.731H121.431C121.377 136.731 121.323 136.749 121.287 136.785C121.251 136.821 121.233 136.875 121.233 136.929C121.233 137.064 121.305 137.226 121.449 137.406C121.593 137.586 121.827 137.748 122.133 137.883ZM127.725 137.514C128.121 137.901 128.652 138.09 129.336 138.09C129.75 138.09 130.11 138.018 130.434 137.874C130.758 137.73 131.001 137.568 131.172 137.37C131.334 137.172 131.424 137.001 131.424 136.857C131.424 136.803 131.406 136.767 131.37 136.731C131.325 136.704 131.28 136.686 131.226 136.686H130.434C130.362 136.686 130.317 136.695 130.29 136.713C130.254 136.731 130.218 136.767 130.164 136.83C129.948 137.109 129.66 137.244 129.318 137.244C129.012 137.244 128.778 137.136 128.607 136.92C128.436 136.704 128.346 136.425 128.346 136.083V136.011H131.334C131.388 136.011 131.442 135.993 131.487 135.948C131.523 135.912 131.55 135.858 131.55 135.795V135.606C131.55 134.886 131.352 134.31 130.965 133.878C130.578 133.446 130.029 133.23 129.318 133.23C128.616 133.23 128.076 133.446 127.689 133.878C127.293 134.31 127.104 134.904 127.104 135.651V135.876C127.122 136.587 127.329 137.136 127.725 137.514ZM130.308 135.246H128.346V135.228C128.337 134.877 128.418 134.598 128.598 134.382C128.778 134.166 129.012 134.058 129.318 134.058C129.624 134.058 129.858 134.166 130.038 134.382C130.218 134.598 130.308 134.877 130.308 135.228V135.246ZM134.135 137.883C134.441 138.027 134.819 138.09 135.278 138.09C135.935 138.09 136.448 137.964 136.817 137.694C137.186 137.433 137.375 137.091 137.375 136.659C137.375 135.93 136.835 135.462 135.755 135.246C135.404 135.183 135.143 135.12 134.972 135.057C134.792 134.994 134.675 134.922 134.621 134.85C134.567 134.778 134.54 134.688 134.54 134.58C134.54 134.427 134.594 134.301 134.72 134.202C134.837 134.112 135.008 134.058 135.233 134.058C135.395 134.058 135.53 134.085 135.647 134.13C135.755 134.184 135.863 134.247 135.953 134.328C136.043 134.409 136.115 134.463 136.16 134.49C136.196 134.544 136.241 134.562 136.313 134.562H136.988C137.042 134.562 137.087 134.544 137.123 134.508C137.159 134.472 137.186 134.418 137.186 134.364C137.186 134.229 137.105 134.067 136.952 133.887C136.799 133.707 136.574 133.554 136.286 133.428C135.989 133.302 135.638 133.23 135.233 133.23C134.837 133.23 134.495 133.302 134.207 133.437C133.919 133.572 133.712 133.743 133.568 133.959C133.424 134.175 133.352 134.4 133.352 134.634C133.352 135.003 133.469 135.3 133.712 135.516C133.955 135.741 134.333 135.903 134.846 136.011C135.197 136.092 135.458 136.164 135.638 136.227C135.818 136.29 135.935 136.362 136.007 136.434C136.079 136.506 136.115 136.605 136.115 136.722C136.115 136.902 136.034 137.037 135.89 137.127C135.737 137.217 135.539 137.262 135.305 137.262C135.143 137.262 134.99 137.244 134.855 137.19C134.72 137.136 134.603 137.064 134.495 136.974C134.396 136.893 134.333 136.839 134.297 136.803C134.261 136.758 134.216 136.731 134.171 136.731H133.433C133.379 136.731 133.325 136.749 133.289 136.785C133.253 136.821 133.235 136.875 133.235 136.929C133.235 137.064 133.307 137.226 133.451 137.406C133.595 137.586 133.829 137.748 134.135 137.883ZM139.934 137.883C140.24 138.027 140.618 138.09 141.077 138.09C141.734 138.09 142.247 137.964 142.616 137.694C142.985 137.433 143.174 137.091 143.174 136.659C143.174 135.93 142.634 135.462 141.554 135.246C141.203 135.183 140.942 135.12 140.771 135.057C140.591 134.994 140.474 134.922 140.42 134.85C140.366 134.778 140.339 134.688 140.339 134.58C140.339 134.427 140.393 134.301 140.519 134.202C140.636 134.112 140.807 134.058 141.032 134.058C141.194 134.058 141.329 134.085 141.446 134.13C141.554 134.184 141.662 134.247 141.752 134.328C141.842 134.409 141.914 134.463 141.959 134.49C141.995 134.544 142.04 134.562 142.112 134.562H142.787C142.841 134.562 142.886 134.544 142.922 134.508C142.958 134.472 142.985 134.418 142.985 134.364C142.985 134.229 142.904 134.067 142.751 133.887C142.598 133.707 142.373 133.554 142.085 133.428C141.788 133.302 141.437 133.23 141.032 133.23C140.636 133.23 140.294 133.302 140.006 133.437C139.718 133.572 139.511 133.743 139.367 133.959C139.223 134.175 139.151 134.4 139.151 134.634C139.151 135.003 139.268 135.3 139.511 135.516C139.754 135.741 140.132 135.903 140.645 136.011C140.996 136.092 141.257 136.164 141.437 136.227C141.617 136.29 141.734 136.362 141.806 136.434C141.878 136.506 141.914 136.605 141.914 136.722C141.914 136.902 141.833 137.037 141.689 137.127C141.536 137.217 141.338 137.262 141.104 137.262C140.942 137.262 140.789 137.244 140.654 137.19C140.519 137.136 140.402 137.064 140.294 136.974C140.195 136.893 140.132 136.839 140.096 136.803C140.06 136.758 140.015 136.731 139.97 136.731H139.232C139.178 136.731 139.124 136.749 139.088 136.785C139.052 136.821 139.034 136.875 139.034 136.929C139.034 137.064 139.106 137.226 139.25 137.406C139.394 137.586 139.628 137.748 139.934 137.883ZM145.13 132.393C145.166 132.438 145.22 132.456 145.283 132.456H146.111C146.174 132.456 146.228 132.438 146.273 132.393C146.318 132.357 146.345 132.303 146.345 132.24V131.583C146.345 131.52 146.318 131.466 146.282 131.421C146.237 131.385 146.183 131.358 146.111 131.358H145.283C145.22 131.358 145.166 131.385 145.13 131.421C145.085 131.466 145.067 131.52 145.067 131.583V132.24C145.067 132.303 145.085 132.357 145.13 132.393ZM145.166 137.937C145.202 137.982 145.256 138 145.319 138H146.093C146.147 138 146.201 137.982 146.246 137.937C146.282 137.901 146.309 137.847 146.309 137.784V133.536C146.309 133.482 146.282 133.428 146.246 133.383C146.201 133.347 146.147 133.32 146.093 133.32H145.319C145.265 133.32 145.211 133.347 145.166 133.383C145.121 133.419 145.103 133.473 145.103 133.536V137.784C145.103 137.847 145.121 137.901 145.166 137.937ZM148.917 137.568C149.304 137.928 149.853 138.108 150.555 138.108C151.257 138.108 151.797 137.928 152.184 137.568C152.571 137.208 152.778 136.713 152.805 136.074C152.814 136.011 152.823 135.876 152.823 135.678C152.823 135.48 152.814 135.354 152.805 135.282C152.778 134.652 152.571 134.157 152.175 133.797C151.779 133.437 151.239 133.248 150.555 133.248C149.862 133.248 149.322 133.437 148.926 133.797C148.53 134.157 148.323 134.652 148.305 135.282L148.287 135.678L148.305 136.074C148.323 136.713 148.53 137.208 148.917 137.568ZM150.555 137.199C150.231 137.199 149.988 137.1 149.817 136.902C149.637 136.704 149.547 136.416 149.547 136.029L149.529 135.678L149.547 135.327C149.547 134.949 149.637 134.652 149.817 134.454C149.988 134.256 150.231 134.148 150.555 134.148C150.87 134.148 151.113 134.256 151.293 134.454C151.464 134.652 151.554 134.949 151.563 135.327C151.572 135.39 151.581 135.507 151.581 135.678C151.581 135.858 151.572 135.975 151.563 136.029C151.554 136.416 151.464 136.704 151.293 136.902C151.122 137.1 150.879 137.199 150.555 137.199ZM154.883 137.937C154.919 137.982 154.973 138 155.036 138H155.837C155.9 138 155.954 137.982 155.99 137.937C156.026 137.901 156.053 137.847 156.053 137.784V135.309C156.053 134.967 156.143 134.697 156.332 134.499C156.512 134.301 156.764 134.202 157.07 134.202C157.385 134.202 157.628 134.301 157.799 134.499C157.97 134.697 158.06 134.967 158.06 135.309V137.784C158.06 137.847 158.078 137.901 158.123 137.937C158.159 137.982 158.213 138 158.276 138H159.086C159.149 138 159.203 137.982 159.239 137.937C159.275 137.901 159.302 137.847 159.302 137.784V135.255C159.302 134.625 159.14 134.13 158.816 133.77C158.492 133.41 158.051 133.23 157.502 133.23C156.863 133.23 156.359 133.455 155.999 133.905V133.545C155.999 133.482 155.972 133.428 155.936 133.392C155.9 133.356 155.846 133.329 155.783 133.329H155.036C154.973 133.329 154.919 133.356 154.883 133.392C154.838 133.428 154.82 133.482 154.82 133.545V137.784C154.82 137.847 154.838 137.901 154.883 137.937Z" fill="#2D3942"/>
<path d="M227.78 126.18C226.82 125.18 225.74 124.6 224.56 124.44V122.2H222.96V124.46C221.94 124.64 221.14 125.08 220.54 125.76C219.94 126.46 219.64 127.32 219.64 128.34C219.64 129.02 219.78 129.6 220.1 130.12C220.4 130.64 220.78 131.04 221.24 131.32C221.68 131.62 222.18 131.92 222.72 132.22C223.26 132.52 223.76 132.78 224.22 133.02C224.66 133.26 225.04 133.56 225.36 133.96C225.66 134.36 225.82 134.8 225.82 135.3C225.82 135.98 225.62 136.48 225.22 136.84C224.82 137.2 224.26 137.38 223.5 137.38C222.4 137.38 221.28 136.9 220.12 135.94L219.08 137.52C219.58 137.98 220.18 138.36 220.88 138.68C221.56 139 222.26 139.18 222.96 139.24V141.46H224.56V139.18C225.64 139 226.5 138.56 227.12 137.84C227.72 137.12 228.04 136.22 228.04 135.14C228.04 134.28 227.82 133.54 227.4 132.94C226.96 132.34 226.46 131.86 225.86 131.52C225.26 131.2 224.64 130.9 224.04 130.62C223.44 130.34 222.92 130.02 222.5 129.62C222.06 129.24 221.86 128.78 221.86 128.24C221.86 127.64 222.04 127.16 222.42 126.82C222.78 126.48 223.3 126.3 223.94 126.3C224.46 126.3 224.92 126.4 225.32 126.6C225.7 126.8 226.12 127.1 226.58 127.52L227.78 126.18ZM241.366 133.38C241.366 133.2 241.266 133.1 241.066 133.1H239.486V124.6C239.486 124.42 239.386 124.32 239.186 124.32H236.766C236.646 124.32 236.566 124.36 236.526 124.42L230.686 133.4C230.646 133.44 230.646 133.5 230.646 133.54V134.84C230.646 135.04 230.746 135.14 230.946 135.14H237.006V138.72C237.006 138.92 237.106 139 237.306 139H239.186C239.386 139 239.486 138.92 239.486 138.72V135.14H241.066C241.266 135.14 241.366 135.04 241.366 134.84V133.38ZM233.406 133.1L236.146 129.02L236.166 128.98C236.286 128.78 236.446 128.48 236.646 128.08C236.806 127.8 236.946 127.52 237.106 127.24C237.026 128.48 237.006 129.24 237.006 129.48V133.1H233.406ZM250.993 131.34C252.233 130.38 252.873 129.28 252.873 128.02C252.873 126.78 252.473 125.78 251.693 125.06C250.893 124.34 249.873 123.96 248.593 123.96C247.313 123.96 246.253 124.32 245.452 125.02C244.633 125.74 244.233 126.68 244.233 127.82C244.233 129.18 244.873 130.32 246.153 131.24C245.433 131.64 244.833 132.14 244.353 132.78C243.813 133.46 243.553 134.26 243.553 135.16C243.553 136.32 244.013 137.28 244.953 138.04C245.893 138.8 247.073 139.16 248.513 139.16C249.953 139.16 251.133 138.8 252.053 138.04C252.973 137.3 253.433 136.36 253.433 135.22C253.433 133.62 252.613 132.32 250.993 131.34ZM247.493 132.1C248.113 132.36 248.513 132.54 248.673 132.62C248.833 132.7 248.953 132.76 248.993 132.78L249.093 132.82L249.173 132.86C249.193 132.88 249.213 132.9 249.233 132.9C249.253 132.92 249.333 132.96 249.453 133C250.453 133.54 250.953 134.22 250.953 135.04C250.953 135.76 250.733 136.3 250.293 136.68C249.853 137.06 249.253 137.24 248.513 137.24C247.773 137.24 247.153 137.02 246.653 136.58C246.153 136.18 245.913 135.62 245.913 134.94C245.913 133.78 246.433 132.82 247.493 132.1ZM249.433 130.56C249.293 130.52 249.173 130.46 249.073 130.42C248.953 130.38 248.853 130.34 248.773 130.3C248.692 130.26 248.593 130.22 248.493 130.16C248.393 130.12 248.273 130.06 248.133 129.98C247.973 129.9 247.833 129.82 247.713 129.72C247.593 129.64 247.513 129.58 247.493 129.56C246.893 129.14 246.593 128.6 246.593 127.92C246.593 127.26 246.753 126.76 247.113 126.4C247.473 126.06 247.952 125.88 248.593 125.88C249.213 125.88 249.713 126.1 250.073 126.5C250.433 126.9 250.633 127.42 250.633 128.06C250.633 128.98 250.233 129.8 249.433 130.56ZM260.919 139.18C262.499 139.18 263.739 138.52 264.639 137.2C265.519 135.88 265.979 134 265.979 131.54C265.979 129.94 265.759 128.52 265.339 127.24C265.199 126.86 264.939 126.4 264.579 125.86C264.379 125.56 264.059 125.22 263.639 124.86C262.879 124.28 261.979 123.98 260.919 123.98C259.319 123.98 258.059 124.64 257.179 125.94C256.299 127.24 255.859 129.1 255.859 131.54C255.859 133.98 256.299 135.88 257.199 137.2C258.079 138.52 259.319 139.18 260.919 139.18ZM260.919 136.86C259.399 136.86 258.659 135.1 258.659 131.58C258.659 128.06 259.399 126.3 260.919 126.3C262.419 126.3 263.179 128.06 263.179 131.58C263.179 135.1 262.419 136.86 260.919 136.86Z" fill="#576168"/>
<path d="M279.401 132.231C278.969 131.781 278.483 131.52 277.952 131.448V130.44H277.232V131.457C276.773 131.538 276.413 131.736 276.143 132.042C275.873 132.357 275.738 132.744 275.738 133.203C275.738 133.509 275.801 133.77 275.945 134.004C276.08 134.238 276.251 134.418 276.458 134.544C276.656 134.679 276.881 134.814 277.124 134.949C277.367 135.084 277.592 135.201 277.799 135.309C277.997 135.417 278.168 135.552 278.312 135.732C278.447 135.912 278.519 136.11 278.519 136.335C278.519 136.641 278.429 136.866 278.249 137.028C278.069 137.19 277.817 137.271 277.475 137.271C276.98 137.271 276.476 137.055 275.954 136.623L275.486 137.334C275.711 137.541 275.981 137.712 276.296 137.856C276.602 138 276.917 138.081 277.232 138.108V139.107H277.952V138.081C278.438 138 278.825 137.802 279.104 137.478C279.374 137.154 279.518 136.749 279.518 136.263C279.518 135.876 279.419 135.543 279.23 135.273C279.032 135.003 278.807 134.787 278.537 134.634C278.267 134.49 277.988 134.355 277.718 134.229C277.448 134.103 277.214 133.959 277.025 133.779C276.827 133.608 276.737 133.401 276.737 133.158C276.737 132.888 276.818 132.672 276.989 132.519C277.151 132.366 277.385 132.285 277.673 132.285C277.907 132.285 278.114 132.33 278.294 132.42C278.465 132.51 278.654 132.645 278.861 132.834L279.401 132.231ZM281.835 137.928C281.835 138.018 281.88 138.063 281.97 138.063H285.633C285.714 138.063 285.759 138.027 285.759 137.937V137.208C285.759 137.136 285.714 137.091 285.633 137.091H284.463V131.592C284.463 131.511 284.409 131.466 284.319 131.466H283.608C283.59 131.466 283.59 131.475 283.59 131.475C283.59 131.475 283.581 131.484 283.572 131.484C283.176 131.601 282.735 131.745 282.24 131.925C282.15 131.961 282.105 132.015 282.105 132.087V132.6C282.105 132.69 282.141 132.726 282.231 132.726H283.293V137.091H281.97C281.88 137.091 281.835 137.136 281.835 137.217V137.928ZM291.865 137.118L288.931 137.109C288.931 137.082 288.949 137.037 288.967 136.983C288.985 136.929 289.003 136.884 289.012 136.848C289.012 136.839 289.021 136.83 289.021 136.821C289.021 136.812 289.03 136.803 289.03 136.794L289.048 136.767C289.048 136.758 289.057 136.749 289.066 136.731C289.075 136.722 289.084 136.713 289.093 136.695C289.093 136.677 289.102 136.659 289.12 136.641C289.138 136.623 289.165 136.587 289.201 136.533C289.237 136.479 289.291 136.416 289.363 136.344C289.39 136.317 289.417 136.281 289.453 136.245C289.489 136.209 289.57 136.146 289.705 136.038C289.795 135.966 289.867 135.912 289.903 135.876C289.939 135.849 289.966 135.831 289.984 135.813C289.984 135.813 290.002 135.804 290.02 135.786C290.038 135.768 290.047 135.759 290.056 135.759L290.074 135.75L290.083 135.741L290.11 135.714C290.164 135.678 290.236 135.624 290.326 135.561C290.371 135.525 290.497 135.426 290.695 135.282C290.893 135.138 291.073 134.985 291.235 134.823C291.622 134.436 291.856 134.049 291.937 133.653C291.937 133.635 291.937 133.59 291.955 133.527C291.973 133.473 291.982 133.365 291.982 133.221C291.946 132.591 291.721 132.114 291.298 131.772C291.154 131.664 290.965 131.547 290.713 131.439C290.461 131.331 290.119 131.277 289.687 131.268C288.913 131.268 288.256 131.556 287.707 132.141H287.698C287.635 132.231 287.608 132.303 287.608 132.357C287.608 132.411 287.635 132.465 287.698 132.51L288.013 132.816C288.139 132.942 288.256 132.942 288.382 132.816C288.796 132.42 289.21 132.213 289.624 132.213C289.984 132.213 290.29 132.312 290.551 132.501C290.776 132.699 290.893 132.942 290.893 133.23C290.884 133.536 290.794 133.797 290.632 134.013C290.461 134.256 290.038 134.607 289.372 135.075C289.156 135.219 288.913 135.408 288.661 135.624C288.409 135.849 288.193 136.092 288.031 136.344C287.977 136.416 287.941 136.479 287.914 136.524C287.725 136.875 287.617 137.271 287.59 137.703C287.572 137.892 287.671 137.991 287.869 138H291.874C292.018 138 292.099 137.928 292.099 137.784V137.325C292.099 137.19 292.018 137.118 291.865 137.118ZM296.51 139.62H297.23L299.732 130.818H299.012L296.51 139.62ZM302.133 137.883C302.439 138.027 302.817 138.09 303.276 138.09C303.933 138.09 304.446 137.964 304.815 137.694C305.184 137.433 305.373 137.091 305.373 136.659C305.373 135.93 304.833 135.462 303.753 135.246C303.402 135.183 303.141 135.12 302.97 135.057C302.79 134.994 302.673 134.922 302.619 134.85C302.565 134.778 302.538 134.688 302.538 134.58C302.538 134.427 302.592 134.301 302.718 134.202C302.835 134.112 303.006 134.058 303.231 134.058C303.393 134.058 303.528 134.085 303.645 134.13C303.753 134.184 303.861 134.247 303.951 134.328C304.041 134.409 304.113 134.463 304.158 134.49C304.194 134.544 304.239 134.562 304.311 134.562H304.986C305.04 134.562 305.085 134.544 305.121 134.508C305.157 134.472 305.184 134.418 305.184 134.364C305.184 134.229 305.103 134.067 304.95 133.887C304.797 133.707 304.572 133.554 304.284 133.428C303.987 133.302 303.636 133.23 303.231 133.23C302.835 133.23 302.493 133.302 302.205 133.437C301.917 133.572 301.71 133.743 301.566 133.959C301.422 134.175 301.35 134.4 301.35 134.634C301.35 135.003 301.467 135.3 301.71 135.516C301.953 135.741 302.331 135.903 302.844 136.011C303.195 136.092 303.456 136.164 303.636 136.227C303.816 136.29 303.933 136.362 304.005 136.434C304.077 136.506 304.113 136.605 304.113 136.722C304.113 136.902 304.032 137.037 303.888 137.127C303.735 137.217 303.537 137.262 303.303 137.262C303.141 137.262 302.988 137.244 302.853 137.19C302.718 137.136 302.601 137.064 302.493 136.974C302.394 136.893 302.331 136.839 302.295 136.803C302.259 136.758 302.214 136.731 302.169 136.731H301.431C301.377 136.731 301.323 136.749 301.287 136.785C301.251 136.821 301.233 136.875 301.233 136.929C301.233 137.064 301.305 137.226 301.449 137.406C301.593 137.586 301.827 137.748 302.133 137.883ZM307.725 137.514C308.121 137.901 308.652 138.09 309.336 138.09C309.75 138.09 310.11 138.018 310.434 137.874C310.758 137.73 311.001 137.568 311.172 137.37C311.334 137.172 311.424 137.001 311.424 136.857C311.424 136.803 311.406 136.767 311.37 136.731C311.325 136.704 311.28 136.686 311.226 136.686H310.434C310.362 136.686 310.317 136.695 310.29 136.713C310.254 136.731 310.218 136.767 310.164 136.83C309.948 137.109 309.66 137.244 309.318 137.244C309.012 137.244 308.778 137.136 308.607 136.92C308.436 136.704 308.346 136.425 308.346 136.083V136.011H311.334C311.388 136.011 311.442 135.993 311.487 135.948C311.523 135.912 311.55 135.858 311.55 135.795V135.606C311.55 134.886 311.352 134.31 310.965 133.878C310.578 133.446 310.029 133.23 309.318 133.23C308.616 133.23 308.076 133.446 307.689 133.878C307.293 134.31 307.104 134.904 307.104 135.651V135.876C307.122 136.587 307.329 137.136 307.725 137.514ZM310.308 135.246H308.346V135.228C308.337 134.877 308.418 134.598 308.598 134.382C308.778 134.166 309.012 134.058 309.318 134.058C309.624 134.058 309.858 134.166 310.038 134.382C310.218 134.598 310.308 134.877 310.308 135.228V135.246ZM314.135 137.883C314.441 138.027 314.819 138.09 315.278 138.09C315.935 138.09 316.448 137.964 316.817 137.694C317.186 137.433 317.375 137.091 317.375 136.659C317.375 135.93 316.835 135.462 315.755 135.246C315.404 135.183 315.143 135.12 314.972 135.057C314.792 134.994 314.675 134.922 314.621 134.85C314.567 134.778 314.54 134.688 314.54 134.58C314.54 134.427 314.594 134.301 314.72 134.202C314.837 134.112 315.008 134.058 315.233 134.058C315.395 134.058 315.53 134.085 315.647 134.13C315.755 134.184 315.863 134.247 315.953 134.328C316.043 134.409 316.115 134.463 316.16 134.49C316.196 134.544 316.241 134.562 316.313 134.562H316.988C317.042 134.562 317.087 134.544 317.123 134.508C317.159 134.472 317.186 134.418 317.186 134.364C317.186 134.229 317.105 134.067 316.952 133.887C316.799 133.707 316.574 133.554 316.286 133.428C315.989 133.302 315.638 133.23 315.233 133.23C314.837 133.23 314.495 133.302 314.207 133.437C313.919 133.572 313.712 133.743 313.568 133.959C313.424 134.175 313.352 134.4 313.352 134.634C313.352 135.003 313.469 135.3 313.712 135.516C313.955 135.741 314.333 135.903 314.846 136.011C315.197 136.092 315.458 136.164 315.638 136.227C315.818 136.29 315.935 136.362 316.007 136.434C316.079 136.506 316.115 136.605 316.115 136.722C316.115 136.902 316.034 137.037 315.89 137.127C315.737 137.217 315.539 137.262 315.305 137.262C315.143 137.262 314.99 137.244 314.855 137.19C314.72 137.136 314.603 137.064 314.495 136.974C314.396 136.893 314.333 136.839 314.297 136.803C314.261 136.758 314.216 136.731 314.171 136.731H313.433C313.379 136.731 313.325 136.749 313.289 136.785C313.253 136.821 313.235 136.875 313.235 136.929C313.235 137.064 313.307 137.226 313.451 137.406C313.595 137.586 313.829 137.748 314.135 137.883ZM319.934 137.883C320.24 138.027 320.618 138.09 321.077 138.09C321.734 138.09 322.247 137.964 322.616 137.694C322.985 137.433 323.174 137.091 323.174 136.659C323.174 135.93 322.634 135.462 321.554 135.246C321.203 135.183 320.942 135.12 320.771 135.057C320.591 134.994 320.474 134.922 320.42 134.85C320.366 134.778 320.339 134.688 320.339 134.58C320.339 134.427 320.393 134.301 320.519 134.202C320.636 134.112 320.807 134.058 321.032 134.058C321.194 134.058 321.329 134.085 321.446 134.13C321.554 134.184 321.662 134.247 321.752 134.328C321.842 134.409 321.914 134.463 321.959 134.49C321.995 134.544 322.04 134.562 322.112 134.562H322.787C322.841 134.562 322.886 134.544 322.922 134.508C322.958 134.472 322.985 134.418 322.985 134.364C322.985 134.229 322.904 134.067 322.751 133.887C322.598 133.707 322.373 133.554 322.085 133.428C321.788 133.302 321.437 133.23 321.032 133.23C320.636 133.23 320.294 133.302 320.006 133.437C319.718 133.572 319.511 133.743 319.367 133.959C319.223 134.175 319.151 134.4 319.151 134.634C319.151 135.003 319.268 135.3 319.511 135.516C319.754 135.741 320.132 135.903 320.645 136.011C320.996 136.092 321.257 136.164 321.437 136.227C321.617 136.29 321.734 136.362 321.806 136.434C321.878 136.506 321.914 136.605 321.914 136.722C321.914 136.902 321.833 137.037 321.689 137.127C321.536 137.217 321.338 137.262 321.104 137.262C320.942 137.262 320.789 137.244 320.654 137.19C320.519 137.136 320.402 137.064 320.294 136.974C320.195 136.893 320.132 136.839 320.096 136.803C320.06 136.758 320.015 136.731 319.97 136.731H319.232C319.178 136.731 319.124 136.749 319.088 136.785C319.052 136.821 319.034 136.875 319.034 136.929C319.034 137.064 319.106 137.226 319.25 137.406C319.394 137.586 319.628 137.748 319.934 137.883ZM325.13 132.393C325.166 132.438 325.22 132.456 325.283 132.456H326.111C326.174 132.456 326.228 132.438 326.273 132.393C326.318 132.357 326.345 132.303 326.345 132.24V131.583C326.345 131.52 326.318 131.466 326.282 131.421C326.237 131.385 326.183 131.358 326.111 131.358H325.283C325.22 131.358 325.166 131.385 325.13 131.421C325.085 131.466 325.067 131.52 325.067 131.583V132.24C325.067 132.303 325.085 132.357 325.13 132.393ZM325.166 137.937C325.202 137.982 325.256 138 325.319 138H326.093C326.147 138 326.201 137.982 326.246 137.937C326.282 137.901 326.309 137.847 326.309 137.784V133.536C326.309 133.482 326.282 133.428 326.246 133.383C326.201 133.347 326.147 133.32 326.093 133.32H325.319C325.265 133.32 325.211 133.347 325.166 133.383C325.121 133.419 325.103 133.473 325.103 133.536V137.784C325.103 137.847 325.121 137.901 325.166 137.937ZM328.917 137.568C329.304 137.928 329.853 138.108 330.555 138.108C331.257 138.108 331.797 137.928 332.184 137.568C332.571 137.208 332.778 136.713 332.805 136.074C332.814 136.011 332.823 135.876 332.823 135.678C332.823 135.48 332.814 135.354 332.805 135.282C332.778 134.652 332.571 134.157 332.175 133.797C331.779 133.437 331.239 133.248 330.555 133.248C329.862 133.248 329.322 133.437 328.926 133.797C328.53 134.157 328.323 134.652 328.305 135.282L328.287 135.678L328.305 136.074C328.323 136.713 328.53 137.208 328.917 137.568ZM330.555 137.199C330.231 137.199 329.988 137.1 329.817 136.902C329.637 136.704 329.547 136.416 329.547 136.029L329.529 135.678L329.547 135.327C329.547 134.949 329.637 134.652 329.817 134.454C329.988 134.256 330.231 134.148 330.555 134.148C330.87 134.148 331.113 134.256 331.293 134.454C331.464 134.652 331.554 134.949 331.563 135.327C331.572 135.39 331.581 135.507 331.581 135.678C331.581 135.858 331.572 135.975 331.563 136.029C331.554 136.416 331.464 136.704 331.293 136.902C331.122 137.1 330.879 137.199 330.555 137.199ZM334.883 137.937C334.919 137.982 334.973 138 335.036 138H335.837C335.9 138 335.954 137.982 335.99 137.937C336.026 137.901 336.053 137.847 336.053 137.784V135.309C336.053 134.967 336.143 134.697 336.332 134.499C336.512 134.301 336.764 134.202 337.07 134.202C337.385 134.202 337.628 134.301 337.799 134.499C337.97 134.697 338.06 134.967 338.06 135.309V137.784C338.06 137.847 338.078 137.901 338.123 137.937C338.159 137.982 338.213 138 338.276 138H339.086C339.149 138 339.203 137.982 339.239 137.937C339.275 137.901 339.302 137.847 339.302 137.784V135.255C339.302 134.625 339.14 134.13 338.816 133.77C338.492 133.41 338.051 133.23 337.502 133.23C336.863 133.23 336.359 133.455 335.999 133.905V133.545C335.999 133.482 335.972 133.428 335.936 133.392C335.9 133.356 335.846 133.329 335.783 133.329H335.036C334.973 133.329 334.919 133.356 334.883 133.392C334.838 133.428 334.82 133.482 334.82 133.545V137.784C334.82 137.847 334.838 137.901 334.883 137.937Z" fill="#2D3942"/>
<defs>
<filter id="filter0_d" x="0" y="0" width="379" height="180" filterUnits="userSpaceOnUse" color-interpolation-filters="sRGB">
<feFlood flood-opacity="0" result="BackgroundImageFix"/>
<feColorMatrix in="SourceAlpha" type="matrix" values="0 0 0 0 0 0 0 0 0 0 0 0 0 0 0 0 0 0 127 0"/>
<feOffset dy="2"/>
<feGaussianBlur stdDeviation="4"/>
<feColorMatrix type="matrix" values="0 0 0 0 0 0 0 0 0 0 0 0 0 0 0 0 0 0 0.04 0"/>
<feBlend mode="normal" in2="BackgroundImageFix" result="effect1_dropShadow"/>
<feBlend mode="normal" in="SourceGraphic" in2="effect1_dropShadow" result="shape"/>
</filter>
</defs>
</svg>
