<svg width="234" height="234" viewBox="0 0 234 234" fill="none" xmlns="http://www.w3.org/2000/svg">
<g clip-path="url(#clip0)">
<path d="M142.04 80.358C135.023 72.9716 127.711 66.5455 120.103 61.0795C112.495 55.6136 105.367 51.5142 98.7193 48.7812C92.0716 46.0483 85.9778 44.7372 80.438 44.848C74.8983 44.9588 70.5772 46.6761 67.475 50C66.7363 50.7386 66.1085 51.5696 65.5914 52.4929C65.0744 53.4162 64.7051 54.1364 64.4835 54.6534C64.2619 55.1705 63.9664 56.0937 63.5971 57.4233C63.2278 58.7528 62.9693 59.6023 62.8216 59.9716L21.6056 195.585L24.1539 198.244C21.2733 200.239 18.7065 202.565 16.4537 205.224C14.2008 207.884 12.225 210.062 10.5261 211.761C8.82724 213.46 6.79599 214.642 4.43235 215.307C3.91531 215.455 3.269 215.953 2.49343 216.803C1.71786 217.652 1.33008 218.409 1.33008 219.074C1.33008 220.403 1.99485 221.511 3.3244 222.398C4.65394 223.284 6.13121 223.727 7.75621 223.727C9.8244 223.727 11.8187 222.896 13.7392 221.234C15.6596 219.572 17.5985 217.449 19.5559 214.864C21.5133 212.278 22.9352 210.58 23.8216 209.767C25.742 208.068 27.8841 206.443 30.2477 204.892L33.1284 207.662L164.089 163.233C166.969 162.347 169.185 161.017 170.736 159.244C173.839 155.92 175.445 151.322 175.556 145.45C175.667 139.578 174.43 133.115 171.844 126.061C169.259 119.007 165.4 111.473 160.266 103.459C155.133 95.4446 149.057 87.7443 142.04 80.358ZM130.074 92.4347C141.376 103.957 149.962 114.982 155.834 125.507C161.706 136.033 163.128 142.957 160.1 146.281C157.072 149.605 150.461 148.386 140.268 142.625C130.074 136.864 119.364 128.259 108.137 116.81C96.7619 105.287 88.1383 94.2812 82.2662 83.7926C76.394 73.304 74.9721 66.3608 78.0005 62.9631C81.0289 59.6392 87.6582 60.858 97.8883 66.6193C108.118 72.3807 118.847 80.9858 130.074 92.4347ZM105.81 138.304C111.202 143.105 116.557 147.315 121.876 150.935C121.949 151.082 123.796 154.554 127.415 161.349L118.108 164.562C113.677 156.216 109.577 147.463 105.81 138.304ZM68.0289 87.5597C69.6539 91.179 71.9068 95.5739 74.7875 100.744C77.1511 111.381 80.8627 122.903 85.9224 135.312C90.9821 147.722 96.5034 159.355 102.486 170.213L93.2903 173.315C86.3471 160.463 80.2903 147.001 75.1198 132.93C69.9494 118.859 66.7733 106.432 65.5914 95.6477L68.0289 87.5597ZM55.1767 128.111C60.3471 144.656 67.6227 161.645 77.0034 179.077L67.9181 182.29C60.6056 168.256 54.8443 155.071 50.6341 142.736L55.1767 128.111ZM42.4352 168.551C45.3159 175.347 48.3812 181.81 51.6312 187.94L42.546 191.153C41.5119 189.159 40.0346 186.094 38.1142 181.957L42.4352 168.551ZM123.87 11L129.41 27.7301L115.117 38.1449H132.733L138.162 54.875L143.591 38.1449H161.097L146.915 27.7301L152.455 11.1108L138.162 21.4148L123.87 11ZM92.8471 11L89.8556 26.179L105.035 29.1705L108.026 13.9915L92.8471 11ZM192.674 56.6477L204.861 43.9062L220.705 51.6619L212.506 36.1506L224.805 23.6307L207.41 26.6222L199.211 11L196.773 28.5057L179.378 31.4972L195.222 39.142L192.674 56.6477ZM188.574 83.9034L203.31 93.6534L198.657 110.716L212.395 99.6364L227.02 109.386L220.927 92.767L234.665 81.9091L217.049 82.6847L210.844 66.1761L206.302 83.1278L188.574 83.9034ZM182.259 42.7983L149.242 69.8324L153.341 74.8182L186.358 47.7841L182.259 42.7983ZM193.782 95.0937L167.966 92.767L167.302 99.1932L193.228 101.52L193.782 95.0937ZM196.33 126.116L191.566 140.963L206.302 145.727L211.177 130.991L196.33 126.116Z" fill="#6ACFED"/>
</g>
<defs>
<clipPath id="clip0">
<rect width="234" height="212.727" fill="white" transform="translate(0 11)"/>
</clipPath>
</defs>
</svg>
